ModularB-Regular.ufo
<glyph name="exclam" format="1">
  <advance width="261"/>
  <unicode hex="0021"/>
  <outline>
    <contour>
      <point x="92" y="565" type="line"/>
      <point x="90" y="508" type="line"/>
      <point x="112" y="162" type="line"/>
      <point x="144" y="162" type="line"/>
      <point x="166" y="508" type="line"/>
      <point x="166" y="565" type="line"/>
    </contour>
    <contour>
      <point x="97" y="75"/>
      <point x="79" y="61"/>
      <point x="79" y="36" type="curve" smooth="yes"/>
      <point x="79" y="14"/>
      <point x="93" y="-4"/>
      <point x="126" y="-4" type="curve" smooth="yes"/>
      <point x="160" y="-4"/>
      <point x="173" y="15"/>
      <point x="173" y="36" type="curve" smooth="yes"/>
      <point x="173" y="61"/>
      <point x="155" y="75"/>
      <point x="126" y="75" type="curve" smooth="yes"/>
    </contour>
  </outline>
</glyph>
<glyph name="numbersign" format="1">
  <advance width="619"/>
  <unicode hex="0023"/>
  <outline>
    <contour>
      <point x="467" y="592" type="line"/>
      <point x="414" y="413" type="line"/>
      <point x="275" y="413" type="line"/>
      <point x="328" y="592" type="line"/>
      <point x="274" y="592" type="line"/>
      <point x="221" y="413" type="line"/>
      <point x="88" y="413" type="line"/>
      <point x="79" y="364" type="line"/>
      <point x="207" y="364" type="line"/>
      <point x="170" y="229" type="line"/>
      <point x="63" y="229" type="line"/>
      <point x="54" y="179" type="line"/>
      <point x="157" y="179" type="line"/>
      <point x="103" y="1" type="line"/>
      <point x="157" y="1" type="line"/>
      <point x="210" y="179" type="line"/>
      <point x="348" y="179" type="line"/>
      <point x="295" y="1" type="line"/>
      <point x="349" y="1" type="line"/>
      <point x="402" y="179" type="line"/>
      <point x="531" y="179" type="line"/>
      <point x="541" y="229" type="line"/>
      <point x="417" y="229" type="line"/>
      <point x="453" y="364" type="line"/>
      <point x="557" y="364" type="line"/>
      <point x="566" y="413" type="line"/>
      <point x="468" y="413" type="line"/>
      <point x="520" y="592" type="line"/>
    </contour>
    <contour>
      <point x="363" y="229" type="line"/>
      <point x="224" y="229" type="line"/>
      <point x="261" y="364" type="line"/>
      <point x="400" y="364" type="line"/>
    </contour>
  </outline>
</glyph>
<glyph name="dollar" format="1">
  <advance width="467"/>
  <unicode hex="0024"/>
  <outline>
    <contour>
      <point x="217" y="593" type="line"/>
      <point x="217" y="537" type="line"/>
      <point x="125" y="531"/>
      <point x="58" y="487"/>
      <point x="58" y="402" type="curve" smooth="yes"/>
      <point x="58" y="330"/>
      <point x="112" y="279"/>
      <point x="216" y="254" type="curve"/>
      <point x="216" y="34" type="line"/>
      <point x="138" y="37"/>
      <point x="101" y="65"/>
      <point x="97" y="139" type="curve"/>
      <point x="48" y="139" type="line"/>
      <point x="48" y="46" type="line"/>
      <point x="87" y="15"/>
      <point x="143" y="-2"/>
      <point x="216" y="-5" type="curve"/>
      <point x="216" y="-77" type="line"/>
      <point x="256" y="-77" type="line"/>
      <point x="256" y="-5" type="line"/>
      <point x="354" y="2"/>
      <point x="428" y="54"/>
      <point x="428" y="147" type="curve" smooth="yes"/>
      <point x="428" y="235"/>
      <point x="362" y="277"/>
      <point x="256" y="303" type="curve"/>
      <point x="256" y="498" type="line"/>
      <point x="328" y="493"/>
      <point x="357" y="470"/>
      <point x="357" y="403" type="curve"/>
      <point x="406" y="403" type="line"/>
      <point x="405" y="491" type="line"/>
      <point x="361" y="518"/>
      <point x="312" y="533"/>
      <point x="256" y="538" type="curve"/>
      <point x="256" y="593" type="line"/>
    </contour>
    <contour>
      <point x="256" y="243" type="line"/>
      <point x="332" y="226"/>
      <point x="366" y="189"/>
      <point x="366" y="139" type="curve" smooth="yes"/>
      <point x="366" y="75"/>
      <point x="321" y="41"/>
      <point x="256" y="35" type="curve"/>
    </contour>
    <contour>
      <point x="217" y="314" type="line"/>
      <point x="149" y="334"/>
      <point x="120" y="362"/>
      <point x="120" y="410" type="curve" smooth="yes"/>
      <point x="120" y="461"/>
      <point x="156" y="493"/>
      <point x="217" y="499" type="curve"/>
    </contour>
  </outline>
</glyph>
<glyph name="percent" format="1">
  <advance width="751"/>
  <unicode hex="0025"/>
  <outline>
    <contour>
      <point x="549" y="571" type="line"/>
      <point x="155" y="-6" type="line"/>
      <point x="203" y="-6" type="line"/>
      <point x="596" y="571" type="line"/>
    </contour>
    <contour>
      <point x="82" y="576"/>
      <point x="34" y="520"/>
      <point x="34" y="421" type="curve" smooth="yes"/>
      <point x="34" y="322"/>
      <point x="81" y="267"/>
      <point x="165" y="267" type="curve" smooth="yes"/>
      <point x="251" y="267"/>
      <point x="297" y="321"/>
      <point x="297" y="422" type="curve" smooth="yes"/>
      <point x="297" y="515"/>
      <point x="255" y="576"/>
      <point x="167" y="576" type="curve" smooth="yes"/>
    </contour>
    <contour>
      <point x="217" y="544"/>
      <point x="241" y="504"/>
      <point x="241" y="421" type="curve" smooth="yes"/>
      <point x="241" y="340"/>
      <point x="215" y="298"/>
      <point x="166" y="298" type="curve" smooth="yes"/>
      <point x="116" y="298"/>
      <point x="92" y="340"/>
      <point x="92" y="420" type="curve" smooth="yes"/>
      <point x="92" y="503"/>
      <point x="116" y="544"/>
      <point x="165" y="544" type="curve" smooth="yes"/>
    </contour>
    <contour>
      <point x="500" y="300"/>
      <point x="453" y="243"/>
      <point x="453" y="146" type="curve" smooth="yes"/>
      <point x="453" y="46"/>
      <point x="499" y="-8"/>
      <point x="583" y="-8" type="curve" smooth="yes"/>
      <point x="669" y="-8"/>
      <point x="716" y="47"/>
      <point x="716" y="144" type="curve" smooth="yes"/>
      <point x="716" y="244"/>
      <point x="671" y="300"/>
      <point x="587" y="300" type="curve" smooth="yes"/>
    </contour>
    <contour>
      <point x="635" y="268"/>
      <point x="660" y="229"/>
      <point x="660" y="145" type="curve" smooth="yes"/>
      <point x="660" y="63"/>
      <point x="634" y="23"/>
      <point x="584" y="23" type="curve" smooth="yes"/>
      <point x="535" y="23"/>
      <point x="510" y="63"/>
      <point x="510" y="145" type="curve" smooth="yes"/>
      <point x="510" y="227"/>
      <point x="535" y="268"/>
      <point x="583" y="268" type="curve" smooth="yes"/>
    </contour>
  </outline>
</glyph>
<glyph name="ampersand" format="1">
  <advance width="674"/>
  <unicode hex="0026"/>
  <outline>
    <contour>
      <point x="218" y="600"/>
      <point x="138" y="549"/>
      <point x="138" y="465" type="curve" smooth="yes"/>
      <point x="138" y="438"/>
      <point x="147" y="410"/>
      <point x="166" y="380" type="curve"/>
      <point x="94" y="336"/>
      <point x="49" y="267"/>
      <point x="49" y="190" type="curve" smooth="yes"/>
      <point x="49" y="74"/>
      <point x="149" y="-8"/>
      <point x="284" y="-8" type="curve" smooth="yes"/>
      <point x="347" y="-8"/>
      <point x="415" y="6"/>
      <point x="477" y="36" type="curve"/>
      <point x="491" y="6"/>
      <point x="517" y="-10"/>
      <point x="563" y="-10" type="curve" smooth="yes"/>
      <point x="617" y="-10"/>
      <point x="651" y="27"/>
      <point x="651" y="88" type="curve"/>
      <point x="612" y="84" type="line"/>
      <point x="612" y="55"/>
      <point x="601" y="36"/>
      <point x="578" y="36" type="curve" smooth="yes"/>
      <point x="535" y="36"/>
      <point x="538" y="83"/>
      <point x="538" y="133" type="curve" smooth="yes"/>
      <point x="538" y="350" type="line"/>
      <point x="642" y="350" type="line"/>
      <point x="642" y="392" type="line"/>
      <point x="537" y="392" type="line"/>
      <point x="537" y="493" type="line"/>
      <point x="480" y="483" type="line"/>
      <point x="472" y="392" type="line"/>
      <point x="213" y="392" type="line"/>
      <point x="203" y="415"/>
      <point x="197" y="437"/>
      <point x="197" y="458" type="curve" smooth="yes"/>
      <point x="197" y="522"/>
      <point x="250" y="557"/>
      <point x="322" y="557" type="curve" smooth="yes"/>
      <point x="371" y="557"/>
      <point x="408" y="538"/>
      <point x="412" y="488" type="curve"/>
      <point x="451" y="493" type="line"/>
      <point x="446" y="571" type="line"/>
      <point x="412" y="589"/>
      <point x="368" y="600"/>
      <point x="313" y="600" type="curve" smooth="yes"/>
    </contour>
    <contour>
      <point x="464" y="132" type="line" smooth="yes"/>
      <point x="464" y="115"/>
      <point x="465" y="98"/>
      <point x="466" y="83" type="curve"/>
      <point x="405" y="53"/>
      <point x="345" y="40"/>
      <point x="293" y="40" type="curve" smooth="yes"/>
      <point x="190" y="40"/>
      <point x="119" y="102"/>
      <point x="119" y="193" type="curve" smooth="yes"/>
      <point x="119" y="256"/>
      <point x="153" y="315"/>
      <point x="210" y="350" type="curve"/>
      <point x="464" y="350" type="line"/>
    </contour>
  </outline>
</glyph>
<glyph name="quotesingle" format="1">
  <advance width="178"/>
  <unicode hex="0027"/>
  <outline>
    <contour>
      <point x="69" y="614"/>
      <point x="53" y="596"/>
      <point x="53" y="571" type="curve" smooth="yes"/>
      <point x="53" y="522"/>
      <point x="72" y="416"/>
      <point x="76" y="385" type="curve"/>
      <point x="103" y="385" type="line"/>
      <point x="110" y="447"/>
      <point x="118" y="510"/>
      <point x="125" y="572" type="curve"/>
      <point x="125" y="600"/>
      <point x="108" y="614"/>
      <point x="90" y="614" type="curve" smooth="yes"/>
    </contour>
  </outline>
</glyph>
<glyph name="parenleft" format="1">
  <advance width="307"/>
  <unicode hex="0028"/>
  <outline>
    <contour>
      <point x="119" y="492"/>
      <point x="68" y="353"/>
      <point x="68" y="207" type="curve" smooth="yes"/>
      <point x="68" y="68"/>
      <point x="121" y="-70"/>
      <point x="245" y="-148" type="curve"/>
      <point x="280" y="-125" type="line"/>
      <point x="180" y="-36"/>
      <point x="142" y="72"/>
      <point x="142" y="211" type="curve" smooth="yes"/>
      <point x="142" y="358"/>
      <point x="187" y="466"/>
      <point x="280" y="546" type="curve"/>
      <point x="246" y="570" type="line"/>
    </contour>
  </outline>
</glyph>
<glyph name="parenright" format="1">
  <advance width="295"/>
  <unicode hex="0029"/>
  <outline>
    <contour>
      <point x="24" y="529" type="line"/>
      <point x="120" y="444"/>
      <point x="157" y="339"/>
      <point x="157" y="206" type="curve" smooth="yes"/>
      <point x="157" y="64"/>
      <point x="115" y="-40"/>
      <point x="24" y="-120" type="curve"/>
      <point x="57" y="-142" type="line"/>
      <point x="180" y="-64"/>
      <point x="229" y="66"/>
      <point x="229" y="208" type="curve" smooth="yes"/>
      <point x="229" y="342"/>
      <point x="178" y="468"/>
      <point x="62" y="548" type="curve"/>
    </contour>
  </outline>
</glyph>
<glyph name="asterisk" format="1">
  <advance width="398"/>
  <unicode hex="002A"/>
  <outline>
    <contour>
      <point x="168" y="480" type="line"/>
      <point x="171" y="423" type="line"/>
      <point x="181" y="402"/>
      <point x="187" y="379"/>
      <point x="188" y="344" type="curve"/>
      <point x="163" y="362"/>
      <point x="146" y="379"/>
      <point x="133" y="403" type="curve"/>
      <point x="87" y="438" type="line"/>
      <point x="53" y="390" type="line"/>
      <point x="103" y="360" type="line"/>
      <point x="126" y="356"/>
      <point x="148" y="347"/>
      <point x="179" y="328" type="curve"/>
      <point x="149" y="309"/>
      <point x="126" y="299"/>
      <point x="103" y="294" type="curve"/>
      <point x="53" y="264" type="line"/>
      <point x="87" y="216" type="line"/>
      <point x="133" y="251" type="line"/>
      <point x="146" y="276"/>
      <point x="163" y="293"/>
      <point x="188" y="312" type="curve"/>
      <point x="187" y="275"/>
      <point x="181" y="253"/>
      <point x="171" y="232" type="curve"/>
      <point x="171" y="175" type="line"/>
      <point x="228" y="175" type="line"/>
      <point x="225" y="232" type="line"/>
      <point x="212" y="256"/>
      <point x="208" y="280"/>
      <point x="207" y="309" type="curve"/>
      <point x="237" y="288"/>
      <point x="252" y="271"/>
      <point x="264" y="251" type="curve"/>
      <point x="310" y="216" type="line"/>
      <point x="344" y="264" type="line"/>
      <point x="294" y="294" type="line"/>
      <point x="264" y="298"/>
      <point x="240" y="309"/>
      <point x="213" y="328" type="curve"/>
      <point x="241" y="346"/>
      <point x="264" y="357"/>
      <point x="294" y="360" type="curve"/>
      <point x="344" y="390" type="line"/>
      <point x="310" y="438" type="line"/>
      <point x="264" y="403" type="line"/>
      <point x="252" y="384"/>
      <point x="236" y="368"/>
      <point x="207" y="346" type="curve"/>
      <point x="208" y="376"/>
      <point x="212" y="398"/>
      <point x="225" y="424" type="curve"/>
      <point x="228" y="480" type="line"/>
    </contour>
  </outline>
</glyph>
<glyph name="plus" format="1">
  <advance width="673"/>
  <unicode hex="002B"/>
  <outline>
    <contour>
      <point x="310" y="517" type="line"/>
      <point x="310" y="297" type="line"/>
      <point x="86" y="297" type="line"/>
      <point x="86" y="245" type="line"/>
      <point x="310" y="245" type="line"/>
      <point x="310" y="25" type="line"/>
      <point x="363" y="25" type="line"/>
      <point x="363" y="245" type="line"/>
      <point x="586" y="245" type="line"/>
      <point x="586" y="297" type="line"/>
      <point x="363" y="297" type="line"/>
      <point x="363" y="517" type="line"/>
    </contour>
  </outline>
</glyph>
<glyph name="comma" format="1">
  <advance width="245"/>
  <unicode hex="002C"/>
  <outline>
    <contour>
      <point x="77" y="83" type="line"/>
      <point x="67" y="4" type="line"/>
      <point x="96" y="2" type="line"/>
      <point x="92" y="-38"/>
      <point x="85" y="-68"/>
      <point x="64" y="-82" type="curve"/>
      <point x="89" y="-106" type="line"/>
      <point x="126" y="-90"/>
      <point x="148" y="-51"/>
      <point x="158" y="0" type="curve" smooth="yes"/>
      <point x="176" y="83" type="line"/>
    </contour>
  </outline>
</glyph>
<glyph name="hyphen" format="1">
  <advance width="333"/>
  <unicode hex="002D"/>
  <outline>
    <contour>
      <point x="33" y="230" type="line"/>
      <point x="33" y="166" type="line"/>
      <point x="298" y="166" type="line"/>
      <point x="298" y="230" type="line"/>
    </contour>
  </outline>
</glyph>
<glyph name="period" format="1">
  <advance width="236"/>
  <unicode hex="002E"/>
  <outline>
    <contour>
      <point x="114" y="72" type="curve" smooth="yes"/>
      <point x="85" y="72"/>
      <point x="69" y="59"/>
      <point x="69" y="35" type="curve" smooth="yes"/>
      <point x="69" y="13"/>
      <point x="82" y="-4"/>
      <point x="114" y="-4" type="curve" smooth="yes"/>
      <point x="147" y="-4"/>
      <point x="160" y="14"/>
      <point x="160" y="35" type="curve" smooth="yes"/>
      <point x="160" y="59"/>
      <point x="142" y="72"/>
    </contour>
  </outline>
</glyph>
<glyph name="slash" format="1">
  <advance width="235"/>
  <unicode hex="002F"/>
  <outline>
    <contour>
      <point x="193" y="549" type="line"/>
      <point x="-16" y="-44" type="line"/>
      <point x="36" y="-44" type="line"/>
      <point x="245" y="549" type="line"/>
    </contour>
  </outline>
</glyph>
<glyph name="zero" format="1">
  <advance width="481"/>
  <unicode hex="0030"/>
  <outline>
    <contour>
      <point x="240" y="554" type="curve" smooth="yes"/>
      <point x="109" y="554"/>
      <point x="40" y="456"/>
      <point x="40" y="272" type="curve" smooth="yes"/>
      <point x="40" y="86"/>
      <point x="109" y="-10"/>
      <point x="240" y="-10" type="curve" smooth="yes"/>
      <point x="369" y="-10"/>
      <point x="440" y="85"/>
      <point x="440" y="272" type="curve" smooth="yes"/>
      <point x="440" y="458"/>
      <point x="371" y="554"/>
    </contour>
    <contour>
      <point x="240" y="511" type="curve" smooth="yes"/>
      <point x="327" y="511"/>
      <point x="370" y="433"/>
      <point x="370" y="272" type="curve" smooth="yes"/>
      <point x="370" y="118"/>
      <point x="330" y="35"/>
      <point x="240" y="35" type="curve" smooth="yes"/>
      <point x="136" y="35"/>
      <point x="111" y="144"/>
      <point x="111" y="273" type="curve" smooth="yes"/>
      <point x="111" y="432"/>
      <point x="154" y="511"/>
    </contour>
  </outline>
</glyph>
<glyph name="one" format="1">
  <advance width="481"/>
  <unicode hex="0031"/>
  <outline>
    <contour>
      <point x="240" y="544" type="line"/>
      <point x="198" y="524"/>
      <point x="157" y="509"/>
      <point x="114" y="501" type="curve"/>
      <point x="114" y="449" type="line"/>
      <point x="147" y="456"/>
      <point x="181" y="468"/>
      <point x="215" y="485" type="curve"/>
      <point x="215" y="66" type="line" smooth="yes"/>
      <point x="215" y="39"/>
      <point x="197" y="41"/>
      <point x="127" y="41" type="curve"/>
      <point x="127" y="0" type="line"/>
      <point x="136" y="0"/>
      <point x="235" y="1"/>
      <point x="249" y="1" type="curve" smooth="yes"/>
      <point x="274" y="0"/>
      <point x="357" y="0"/>
      <point x="366" y="0" type="curve"/>
      <point x="366" y="41" type="line"/>
      <point x="307" y="41"/>
      <point x="283" y="35"/>
      <point x="283" y="65" type="curve" smooth="yes"/>
      <point x="283" y="544" type="line"/>
    </contour>
  </outline>
</glyph>
<glyph name="two" format="1">
  <advance width="481"/>
  <unicode hex="0032"/>
  <outline>
    <contour>
      <point x="245" y="553" type="curve" smooth="yes"/>
      <point x="173" y="553"/>
      <point x="115" y="541"/>
      <point x="67" y="503" type="curve"/>
      <point x="67" y="400" type="line"/>
      <point x="115" y="399" type="line"/>
      <point x="115" y="477"/>
      <point x="149" y="511"/>
      <point x="233" y="511" type="curve" smooth="yes"/>
      <point x="296" y="511"/>
      <point x="343" y="477"/>
      <point x="343" y="416" type="curve" smooth="yes"/>
      <point x="343" y="365"/>
      <point x="313" y="334"/>
      <point x="264" y="302" type="curve" smooth="yes"/>
      <point x="207" y="264"/>
      <point x="155" y="231"/>
      <point x="116" y="189" type="curve" smooth="yes"/>
      <point x="50" y="115"/>
      <point x="51" y="23"/>
      <point x="55" y="0" type="curve"/>
      <point x="411" y="0" type="line"/>
      <point x="411" y="160" type="line"/>
      <point x="367" y="160" type="line"/>
      <point x="367" y="96"/>
      <point x="375" y="48"/>
      <point x="338" y="48" type="curve" smooth="yes"/>
      <point x="120" y="48" type="line"/>
      <point x="120" y="116"/>
      <point x="172" y="171"/>
      <point x="248" y="221" type="curve" smooth="yes"/>
      <point x="339" y="282"/>
      <point x="411" y="317"/>
      <point x="411" y="408" type="curve" smooth="yes"/>
      <point x="411" y="505"/>
      <point x="346" y="553"/>
    </contour>
  </outline>
</glyph>
<glyph name="three" format="1">
  <advance width="481"/>
  <unicode hex="0033"/>
  <outline>
    <contour>
      <point x="225" y="554" type="curve" smooth="yes"/>
      <point x="163" y="554"/>
      <point x="109" y="539"/>
      <point x="67" y="509" type="curve"/>
      <point x="67" y="402" type="line"/>
      <point x="116" y="402" type="line"/>
      <point x="116" y="475"/>
      <point x="147" y="512"/>
      <point x="222" y="512" type="curve" smooth="yes"/>
      <point x="285" y="512"/>
      <point x="332" y="476"/>
      <point x="332" y="416" type="curve" smooth="yes"/>
      <point x="332" y="344"/>
      <point x="274" y="311"/>
      <point x="198" y="310" type="curve"/>
      <point x="198" y="265" type="line"/>
      <point x="282" y="265"/>
      <point x="351" y="237"/>
      <point x="351" y="150" type="curve" smooth="yes"/>
      <point x="351" y="77"/>
      <point x="297" y="37"/>
      <point x="229" y="37" type="curve" smooth="yes"/>
      <point x="144" y="37"/>
      <point x="100" y="77"/>
      <point x="100" y="163" type="curve"/>
      <point x="48" y="163" type="line"/>
      <point x="49" y="53"/>
      <point x="116" y="-10"/>
      <point x="224" y="-10" type="curve" smooth="yes"/>
      <point x="337" y="-10"/>
      <point x="421" y="44"/>
      <point x="421" y="149" type="curve" smooth="yes"/>
      <point x="421" y="232"/>
      <point x="373" y="276"/>
      <point x="295" y="291" type="curve"/>
      <point x="365" y="309"/>
      <point x="399" y="351"/>
      <point x="399" y="414" type="curve" smooth="yes"/>
      <point x="399" y="508"/>
      <point x="325" y="554"/>
    </contour>
  </outline>
</glyph>
<glyph name="four" format="1">
  <advance width="481"/>
  <unicode hex="0034"/>
  <outline>
    <contour>
      <point x="272" y="546" type="line"/>
      <point x="38" y="216" type="line"/>
      <point x="43" y="199"/>
      <point x="46" y="181"/>
      <point x="49" y="161" type="curve"/>
      <point x="286" y="161" type="line"/>
      <point x="286" y="60" type="line" smooth="yes"/>
      <point x="286" y="35"/>
      <point x="260" y="39"/>
      <point x="206" y="39" type="curve"/>
      <point x="206" y="0" type="line"/>
      <point x="214" y="0"/>
      <point x="291" y="1"/>
      <point x="302" y="1" type="curve" smooth="yes"/>
      <point x="325" y="1"/>
      <point x="401" y="0"/>
      <point x="415" y="0" type="curve"/>
      <point x="415" y="39" type="line"/>
      <point x="362" y="39"/>
      <point x="349" y="34"/>
      <point x="349" y="66" type="curve" smooth="yes"/>
      <point x="349" y="161" type="line"/>
      <point x="440" y="161" type="line"/>
      <point x="440" y="205" type="line"/>
      <point x="349" y="205" type="line"/>
      <point x="349" y="546" type="line"/>
    </contour>
    <contour>
      <point x="287" y="205" type="line"/>
      <point x="85" y="205" type="line"/>
      <point x="286" y="493" type="line"/>
    </contour>
  </outline>
</glyph>
<glyph name="five" format="1">
  <advance width="500"/>
  <unicode hex="0035"/>
  <outline>
    <contour>
      <point x="88" y="565" type="line"/>
      <point x="88" y="265" type="line"/>
      <point x="123" y="254" type="line"/>
      <point x="153" y="295"/>
      <point x="191" y="316"/>
      <point x="244" y="316" type="curve" smooth="yes"/>
      <point x="324" y="316"/>
      <point x="372" y="261"/>
      <point x="372" y="179" type="curve" smooth="yes"/>
      <point x="372" y="92"/>
      <point x="324" y="34"/>
      <point x="242" y="34" type="curve" smooth="yes"/>
      <point x="164" y="34"/>
      <point x="130" y="70"/>
      <point x="125" y="139" type="curve"/>
      <point x="79" y="139" type="line"/>
      <point x="88" y="27" type="line"/>
      <point x="130" y="3"/>
      <point x="179" y="-10"/>
      <point x="230" y="-10" type="curve" smooth="yes"/>
      <point x="354" y="-10"/>
      <point x="445" y="54"/>
      <point x="445" y="181" type="curve" smooth="yes"/>
      <point x="445" y="293"/>
      <point x="374" y="364"/>
      <point x="261" y="364" type="curve" smooth="yes"/>
      <point x="216" y="364"/>
      <point x="175" y="350"/>
      <point x="139" y="322" type="curve"/>
      <point x="148" y="514" type="line"/>
      <point x="361" y="514" type="line" smooth="yes"/>
      <point x="376" y="514"/>
      <point x="371" y="501"/>
      <point x="371" y="462" type="curve"/>
      <point x="416" y="462" type="line"/>
      <point x="416" y="565" type="line"/>
    </contour>
  </outline>
</glyph>
<glyph name="six" format="1">
  <advance width="481"/>
  <unicode hex="0036"/>
  <outline>
    <contour>
      <point x="264" y="554" type="curve" smooth="yes"/>
      <point x="104" y="554"/>
      <point x="53" y="421"/>
      <point x="53" y="256" type="curve" smooth="yes"/>
      <point x="53" y="96"/>
      <point x="106" y="-9"/>
      <point x="248" y="-9" type="curve" smooth="yes"/>
      <point x="365" y="-9"/>
      <point x="439" y="63"/>
      <point x="439" y="178" type="curve" smooth="yes"/>
      <point x="439" y="282"/>
      <point x="369" y="352"/>
      <point x="265" y="352" type="curve" smooth="yes"/>
      <point x="209" y="352"/>
      <point x="159" y="330"/>
      <point x="122" y="286" type="curve"/>
      <point x="122" y="413"/>
      <point x="151" y="513"/>
      <point x="264" y="513" type="curve" smooth="yes"/>
      <point x="346" y="513"/>
      <point x="379" y="484"/>
      <point x="381" y="425" type="curve"/>
      <point x="423" y="426" type="line"/>
      <point x="422" y="507" type="line"/>
      <point x="378" y="539"/>
      <point x="328" y="554"/>
    </contour>
    <contour>
      <point x="251" y="307" type="curve" smooth="yes"/>
      <point x="330" y="307"/>
      <point x="370" y="250"/>
      <point x="370" y="171" type="curve" smooth="yes"/>
      <point x="370" y="89"/>
      <point x="327" y="33"/>
      <point x="250" y="33" type="curve" smooth="yes"/>
      <point x="168" y="33"/>
      <point x="125" y="96"/>
      <point x="125" y="183" type="curve" smooth="yes"/>
      <point x="125" y="209"/>
      <point x="129" y="232"/>
      <point x="139" y="252" type="curve"/>
      <point x="169" y="288"/>
      <point x="209" y="307"/>
    </contour>
  </outline>
</glyph>
<glyph name="seven" format="1">
  <advance width="500"/>
  <unicode hex="0037"/>
  <outline>
    <contour>
      <point x="69" y="565" type="line"/>
      <point x="69" y="418" type="line"/>
      <point x="116" y="418" type="line"/>
      <point x="116" y="491" type="line" smooth="yes"/>
      <point x="116" y="511"/>
      <point x="125" y="511"/>
      <point x="148" y="513" type="curve"/>
      <point x="381" y="514" type="line"/>
      <point x="258" y="366"/>
      <point x="181" y="176"/>
      <point x="157" y="0" type="curve"/>
      <point x="233" y="0" type="line"/>
      <point x="255" y="174"/>
      <point x="329" y="354"/>
      <point x="443" y="504" type="curve"/>
      <point x="443" y="565" type="line"/>
    </contour>
  </outline>
</glyph>
<glyph name="eight" format="1">
  <advance width="500"/>
  <unicode hex="0038"/>
  <outline>
    <contour>
      <point x="144" y="576"/>
      <point x="61" y="528"/>
      <point x="61" y="431" type="curve" smooth="yes"/>
      <point x="61" y="366"/>
      <point x="103" y="317"/>
      <point x="175" y="298" type="curve"/>
      <point x="88" y="276"/>
      <point x="43" y="226"/>
      <point x="43" y="151" type="curve" smooth="yes"/>
      <point x="43" y="44"/>
      <point x="131" y="-10"/>
      <point x="248" y="-10" type="curve" smooth="yes"/>
      <point x="368" y="-10"/>
      <point x="458" y="43"/>
      <point x="458" y="152" type="curve" smooth="yes"/>
      <point x="458" y="227"/>
      <point x="413" y="278"/>
      <point x="322" y="300" type="curve"/>
      <point x="399" y="321"/>
      <point x="439" y="366"/>
      <point x="439" y="433" type="curve" smooth="yes"/>
      <point x="439" y="529"/>
      <point x="358" y="576"/>
      <point x="249" y="576" type="curve" smooth="yes"/>
    </contour>
    <contour>
      <point x="333" y="262"/>
      <point x="391" y="222"/>
      <point x="391" y="152" type="curve" smooth="yes"/>
      <point x="391" y="78"/>
      <point x="330" y="36"/>
      <point x="252" y="36" type="curve" smooth="yes"/>
      <point x="171" y="36"/>
      <point x="111" y="76"/>
      <point x="111" y="153" type="curve" smooth="yes"/>
      <point x="111" y="220"/>
      <point x="158" y="262"/>
      <point x="249" y="277" type="curve"/>
    </contour>
    <contour>
      <point x="316" y="532"/>
      <point x="371" y="502"/>
      <point x="371" y="434" type="curve" smooth="yes"/>
      <point x="371" y="375"/>
      <point x="330" y="338"/>
      <point x="252" y="323" type="curve"/>
      <point x="172" y="338"/>
      <point x="128" y="378"/>
      <point x="128" y="436" type="curve" smooth="yes"/>
      <point x="128" y="499"/>
      <point x="181" y="532"/>
      <point x="252" y="532" type="curve" smooth="yes"/>
    </contour>
  </outline>
</glyph>
<glyph name="nine" format="1">
  <advance width="500"/>
  <unicode hex="0039"/>
  <outline>
    <contour>
      <point x="123" y="576"/>
      <point x="47" y="501"/>
      <point x="47" y="382" type="curve" smooth="yes"/>
      <point x="47" y="272"/>
      <point x="118" y="200"/>
      <point x="227" y="200" type="curve" smooth="yes"/>
      <point x="287" y="200"/>
      <point x="339" y="223"/>
      <point x="376" y="267" type="curve"/>
      <point x="376" y="135"/>
      <point x="349" y="33"/>
      <point x="228" y="33" type="curve" smooth="yes"/>
      <point x="158" y="33"/>
      <point x="130" y="58"/>
      <point x="127" y="124" type="curve"/>
      <point x="75" y="123" type="line"/>
      <point x="75" y="45" type="line"/>
      <point x="107" y="9"/>
      <point x="161" y="-10"/>
      <point x="233" y="-10" type="curve" smooth="yes"/>
      <point x="394" y="-10"/>
      <point x="446" y="128"/>
      <point x="446" y="298" type="curve" smooth="yes"/>
      <point x="446" y="466"/>
      <point x="393" y="576"/>
      <point x="243" y="576" type="curve" smooth="yes"/>
    </contour>
    <contour>
      <point x="335" y="531"/>
      <point x="373" y="456"/>
      <point x="373" y="357" type="curve"/>
      <point x="364" y="321"/>
      <point x="346" y="293"/>
      <point x="324" y="275" type="curve" smooth="yes"/>
      <point x="301" y="256"/>
      <point x="271" y="246"/>
      <point x="240" y="246" type="curve" smooth="yes"/>
      <point x="161" y="246"/>
      <point x="118" y="305"/>
      <point x="118" y="385" type="curve" smooth="yes"/>
      <point x="118" y="472"/>
      <point x="161" y="531"/>
      <point x="242" y="531" type="curve" smooth="yes"/>
    </contour>
  </outline>
</glyph>
<glyph name="colon" format="1">
  <advance width="250"/>
  <unicode hex="003A"/>
  <outline>
    <contour>
      <point x="95" y="75"/>
      <point x="78" y="61"/>
      <point x="78" y="36" type="curve" smooth="yes"/>
      <point x="78" y="14"/>
      <point x="90" y="-4"/>
      <point x="125" y="-4" type="curve" smooth="yes"/>
      <point x="158" y="-4"/>
      <point x="172" y="15"/>
      <point x="172" y="36" type="curve" smooth="yes"/>
      <point x="172" y="57"/>
      <point x="158" y="75"/>
      <point x="125" y="75" type="curve" smooth="yes"/>
    </contour>
    <contour>
      <point x="92" y="386"/>
      <point x="78" y="368"/>
      <point x="78" y="346" type="curve" smooth="yes"/>
      <point x="78" y="324"/>
      <point x="90" y="308"/>
      <point x="125" y="308" type="curve" smooth="yes"/>
      <point x="158" y="308"/>
      <point x="172" y="326"/>
      <point x="172" y="346" type="curve" smooth="yes"/>
      <point x="172" y="368"/>
      <point x="158" y="386"/>
      <point x="125" y="386" type="curve" smooth="yes"/>
    </contour>
  </outline>
</glyph>
<glyph name="semicolon" format="1">
  <advance width="240"/>
  <unicode hex="003B"/>
  <outline>
    <contour>
      <point x="120" y="371" type="curve" smooth="yes"/>
      <point x="88" y="371"/>
      <point x="75" y="354"/>
      <point x="75" y="333" type="curve" smooth="yes"/>
      <point x="75" y="312"/>
      <point x="88" y="296"/>
      <point x="120" y="296" type="curve" smooth="yes"/>
      <point x="153" y="296"/>
      <point x="165" y="313"/>
      <point x="165" y="333" type="curve" smooth="yes"/>
      <point x="165" y="354"/>
      <point x="152" y="371"/>
    </contour>
    <contour>
      <point x="74" y="80" type="line"/>
      <point x="64" y="4" type="line"/>
      <point x="92" y="2" type="line"/>
      <point x="88" y="-37"/>
      <point x="82" y="-65"/>
      <point x="62" y="-79" type="curve"/>
      <point x="86" y="-102" type="line"/>
      <point x="121" y="-87"/>
      <point x="142" y="-49"/>
      <point x="152" y="0" type="curve" smooth="yes"/>
      <point x="169" y="80" type="line"/>
    </contour>
  </outline>
</glyph>
<glyph name="less" format="1">
  <advance width="673"/>
  <unicode hex="003C"/>
  <outline>
    <contour>
      <point x="88" y="295" type="line"/>
      <point x="88" y="249" type="line"/>
      <point x="583" y="47" type="line"/>
      <point x="583" y="105" type="line"/>
      <point x="165" y="271" type="line"/>
      <point x="583" y="439" type="line"/>
      <point x="583" y="496" type="line"/>
    </contour>
  </outline>
</glyph>
<glyph name="equal" format="1">
  <advance width="673"/>
  <unicode hex="003D"/>
  <outline>
    <contour>
      <point x="86" y="390" type="line"/>
      <point x="86" y="337" type="line"/>
      <point x="586" y="337" type="line"/>
      <point x="586" y="390" type="line"/>
    </contour>
    <contour>
      <point x="86" y="207" type="line"/>
      <point x="86" y="154" type="line"/>
      <point x="586" y="154" type="line"/>
      <point x="586" y="207" type="line"/>
    </contour>
  </outline>
</glyph>
<glyph name="greater" format="1">
  <advance width="647"/>
  <unicode hex="003E"/>
  <outline>
    <contour>
      <point x="85" y="422" type="line"/>
      <point x="488" y="261" type="line"/>
      <point x="85" y="101" type="line"/>
      <point x="85" y="45" type="line"/>
      <point x="561" y="239" type="line"/>
      <point x="561" y="284" type="line"/>
      <point x="85" y="477" type="line"/>
    </contour>
  </outline>
</glyph>
<glyph name="question" format="1">
  <advance width="413"/>
  <unicode hex="003F"/>
  <outline>
    <contour>
      <point x="198" y="554" type="curve" smooth="yes"/>
      <point x="136" y="554"/>
      <point x="82" y="536"/>
      <point x="40" y="505" type="curve"/>
      <point x="37" y="399" type="line"/>
      <point x="86" y="399" type="line"/>
      <point x="87" y="475"/>
      <point x="120" y="512"/>
      <point x="197" y="512" type="curve" smooth="yes"/>
      <point x="261" y="512"/>
      <point x="310" y="476"/>
      <point x="310" y="414" type="curve" smooth="yes"/>
      <point x="310" y="360"/>
      <point x="277" y="336"/>
      <point x="234" y="309" type="curve" smooth="yes"/>
      <point x="189" y="281"/>
      <point x="157" y="254"/>
      <point x="157" y="197" type="curve"/>
      <point x="158" y="182"/>
      <point x="159" y="168"/>
      <point x="160" y="153" type="curve"/>
      <point x="207" y="153" type="line"/>
      <point x="209" y="167"/>
      <point x="210" y="180"/>
      <point x="212" y="194" type="curve"/>
      <point x="244" y="312"/>
      <point x="381" y="287"/>
      <point x="381" y="423" type="curve" smooth="yes"/>
      <point x="381" y="511"/>
      <point x="299" y="554"/>
    </contour>
    <contour>
      <point x="185" y="72" type="curve" smooth="yes"/>
      <point x="157" y="72"/>
      <point x="140" y="59"/>
      <point x="140" y="35" type="curve" smooth="yes"/>
      <point x="140" y="13"/>
      <point x="153" y="-4"/>
      <point x="185" y="-4" type="curve" smooth="yes"/>
      <point x="218" y="-4"/>
      <point x="231" y="14"/>
      <point x="231" y="35" type="curve" smooth="yes"/>
      <point x="231" y="59"/>
      <point x="213" y="72"/>
    </contour>
  </outline>
</glyph>
<glyph name="at" format="1">
  <advance width="762"/>
  <unicode hex="0040"/>
  <outline>
    <contour>
      <point x="413" y="584" type="curve" smooth="yes"/>
      <point x="176" y="584"/>
      <point x="29" y="409"/>
      <point x="29" y="215" type="curve" smooth="yes"/>
      <point x="29" y="7"/>
      <point x="186" y="-128"/>
      <point x="402" y="-128" type="curve" smooth="yes"/>
      <point x="520" y="-128"/>
      <point x="624" y="-86"/>
      <point x="701" y="-4" type="curve"/>
      <point x="670" y="4" type="line"/>
      <point x="594" y="-69"/>
      <point x="503" y="-99"/>
      <point x="405" y="-99" type="curve" smooth="yes"/>
      <point x="213" y="-99"/>
      <point x="73" y="21"/>
      <point x="73" y="209" type="curve" smooth="yes"/>
      <point x="73" y="409"/>
      <point x="215" y="554"/>
      <point x="417" y="554" type="curve" smooth="yes"/>
      <point x="586" y="554"/>
      <point x="698" y="451"/>
      <point x="698" y="298" type="curve" smooth="yes"/>
      <point x="698" y="175"/>
      <point x="616" y="55"/>
      <point x="532" y="55" type="curve" smooth="yes"/>
      <point x="512" y="55"/>
      <point x="502" y="67"/>
      <point x="502" y="89" type="curve" smooth="yes"/>
      <point x="502" y="99"/>
      <point x="506" y="117"/>
      <point x="510" y="132" type="curve"/>
      <point x="578" y="412" type="line"/>
      <point x="520" y="412" type="line"/>
      <point x="502" y="342" type="line"/>
      <point x="482" y="395"/>
      <point x="446" y="418"/>
      <point x="393" y="418" type="curve" smooth="yes"/>
      <point x="283" y="418"/>
      <point x="187" y="306"/>
      <point x="187" y="181" type="curve" smooth="yes"/>
      <point x="187" y="95"/>
      <point x="235" y="26"/>
      <point x="317" y="26" type="curve" smooth="yes"/>
      <point x="369" y="26"/>
      <point x="413" y="52"/>
      <point x="450" y="105" type="curve"/>
      <point x="450" y="105"/>
      <point x="450" y="105"/>
      <point x="451" y="105" type="curve"/>
      <point x="451" y="84"/>
      <point x="444" y="25"/>
      <point x="519" y="25" type="curve" smooth="yes"/>
      <point x="647" y="25"/>
      <point x="728" y="178"/>
      <point x="728" y="293" type="curve" smooth="yes"/>
      <point x="728" y="468"/>
      <point x="602" y="584"/>
    </contour>
    <contour>
      <point x="397" y="391" type="curve" smooth="yes"/>
      <point x="449" y="391"/>
      <point x="481" y="348"/>
      <point x="481" y="293" type="curve" smooth="yes"/>
      <point x="481" y="191"/>
      <point x="411" y="58"/>
      <point x="330" y="58" type="curve" smooth="yes"/>
      <point x="279" y="58"/>
      <point x="247" y="97"/>
      <point x="247" y="163" type="curve" smooth="yes"/>
      <point x="247" y="261"/>
      <point x="315" y="391"/>
    </contour>
  </outline>
</glyph>
<glyph name="A" format="1">
  <advance width="605"/>
  <unicode hex="0041"/>
  <outline>
    <contour>
      <point x="254" y="565" type="line"/>
      <point x="232" y="504" type="line"/>
      <point x="60" y="57" type="line"/>
      <point x="55" y="49"/>
      <point x="45" y="45"/>
      <point x="28" y="44" type="curve"/>
      <point x="-5" y="44" type="line"/>
      <point x="-5" y="0" type="line"/>
      <point x="30" y="1"/>
      <point x="79" y="1"/>
      <point x="104" y="1" type="curve" smooth="yes"/>
      <point x="121" y="1"/>
      <point x="186" y="0"/>
      <point x="202" y="0" type="curve"/>
      <point x="202" y="42" type="line"/>
      <point x="171" y="42" type="line" smooth="yes"/>
      <point x="150" y="42"/>
      <point x="131" y="40"/>
      <point x="131" y="53" type="curve" smooth="yes"/>
      <point x="131" y="56"/>
      <point x="133" y="61"/>
      <point x="136" y="70" type="curve" smooth="yes"/>
      <point x="184" y="207" type="line"/>
      <point x="413" y="207" type="line"/>
      <point x="459" y="68" type="line" smooth="yes"/>
      <point x="461" y="63"/>
      <point x="463" y="58"/>
      <point x="463" y="54" type="curve" smooth="yes"/>
      <point x="463" y="44"/>
      <point x="446" y="42"/>
      <point x="433" y="42" type="curve" smooth="yes"/>
      <point x="396" y="42" type="line"/>
      <point x="396" y="0" type="line"/>
      <point x="423" y="0"/>
      <point x="508" y="1"/>
      <point x="516" y="1" type="curve" smooth="yes"/>
      <point x="534" y="1"/>
      <point x="599" y="0"/>
      <point x="615" y="0" type="curve"/>
      <point x="615" y="43" type="line"/>
      <point x="581" y="44" type="line" smooth="yes"/>
      <point x="563" y="44"/>
      <point x="552" y="52"/>
      <point x="546" y="67" type="curve"/>
      <point x="355" y="565" type="line"/>
    </contour>
    <contour>
      <point x="396" y="252" type="line"/>
      <point x="201" y="252" type="line"/>
      <point x="298" y="524" type="line"/>
    </contour>
  </outline>
</glyph>
<glyph name="B" format="1">
  <advance width="542"/>
  <unicode hex="0042"/>
  <outline>
    <contour>
      <point x="25" y="565" type="line"/>
      <point x="25" y="521" type="line"/>
      <point x="66" y="522" type="line" smooth="yes"/>
      <point x="89" y="522"/>
      <point x="101" y="516"/>
      <point x="101" y="492" type="curve" smooth="yes"/>
      <point x="101" y="76" type="line" smooth="yes"/>
      <point x="101" y="48"/>
      <point x="90" y="44"/>
      <point x="53" y="44" type="curve" smooth="yes"/>
      <point x="25" y="44" type="line"/>
      <point x="25" y="0" type="line"/>
      <point x="286" y="0" type="line" smooth="yes"/>
      <point x="419" y="0"/>
      <point x="500" y="47"/>
      <point x="500" y="155" type="curve" smooth="yes"/>
      <point x="500" y="230"/>
      <point x="459" y="278"/>
      <point x="374" y="296" type="curve"/>
      <point x="442" y="317"/>
      <point x="475" y="360"/>
      <point x="475" y="422" type="curve" smooth="yes"/>
      <point x="475" y="534"/>
      <point x="391" y="565"/>
      <point x="253" y="565" type="curve" smooth="yes"/>
    </contour>
    <contour>
      <point x="349" y="271"/>
      <point x="419" y="248"/>
      <point x="419" y="156" type="curve" smooth="yes"/>
      <point x="419" y="88"/>
      <point x="373" y="48"/>
      <point x="274" y="48" type="curve" smooth="yes"/>
      <point x="180" y="48" type="line"/>
      <point x="180" y="271" type="line"/>
      <point x="242" y="271" type="line" smooth="yes"/>
    </contour>
    <contour>
      <point x="345" y="518"/>
      <point x="397" y="486"/>
      <point x="397" y="418" type="curve" smooth="yes"/>
      <point x="397" y="348"/>
      <point x="345" y="314"/>
      <point x="268" y="314" type="curve" smooth="yes"/>
      <point x="180" y="314" type="line"/>
      <point x="180" y="518" type="line"/>
      <point x="263" y="518" type="line" smooth="yes"/>
    </contour>
  </outline>
</glyph>
<glyph name="C" format="1">
  <advance width="619"/>
  <unicode hex="0043"/>
  <outline>
    <contour>
      <point x="165" y="575"/>
      <point x="51" y="459"/>
      <point x="51" y="282" type="curve" smooth="yes"/>
      <point x="51" y="103"/>
      <point x="155" y="-10"/>
      <point x="338" y="-10" type="curve" smooth="yes"/>
      <point x="425" y="-10"/>
      <point x="509" y="8"/>
      <point x="577" y="67" type="curve"/>
      <point x="581" y="180" type="line"/>
      <point x="530" y="189" type="line"/>
      <point x="529" y="74"/>
      <point x="466" y="40"/>
      <point x="346" y="40" type="curve" smooth="yes"/>
      <point x="211" y="40"/>
      <point x="136" y="141"/>
      <point x="136" y="283" type="curve" smooth="yes"/>
      <point x="136" y="424"/>
      <point x="212" y="526"/>
      <point x="346" y="526" type="curve" smooth="yes"/>
      <point x="440" y="526"/>
      <point x="511" y="490"/>
      <point x="518" y="402" type="curve"/>
      <point x="569" y="401" type="line"/>
      <point x="569" y="558" type="line"/>
      <point x="515" y="558" type="line"/>
      <point x="510" y="516" type="line"/>
      <point x="466" y="553"/>
      <point x="407" y="575"/>
      <point x="340" y="575" type="curve" smooth="yes"/>
    </contour>
  </outline>
</glyph>
<glyph name="D" format="1">
  <advance width="647"/>
  <unicode hex="0044"/>
  <outline>
    <contour>
      <point x="22" y="565" type="line"/>
      <point x="22" y="522" type="line"/>
      <point x="57" y="522" type="line" smooth="yes"/>
      <point x="84" y="521"/>
      <point x="99" y="516"/>
      <point x="99" y="485" type="curve"/>
      <point x="100" y="76" type="line" smooth="yes"/>
      <point x="100" y="50"/>
      <point x="88" y="44"/>
      <point x="57" y="44" type="curve" smooth="yes"/>
      <point x="22" y="44" type="line"/>
      <point x="22" y="0" type="line"/>
      <point x="253" y="0" type="line" smooth="yes"/>
      <point x="476" y="0"/>
      <point x="600" y="80"/>
      <point x="600" y="288" type="curve" smooth="yes"/>
      <point x="600" y="475"/>
      <point x="482" y="565"/>
      <point x="248" y="565" type="curve" smooth="yes"/>
    </contour>
    <contour>
      <point x="427" y="517"/>
      <point x="515" y="444"/>
      <point x="515" y="287" type="curve" smooth="yes"/>
      <point x="515" y="122"/>
      <point x="431" y="49"/>
      <point x="268" y="49" type="curve" smooth="yes"/>
      <point x="179" y="49" type="line"/>
      <point x="179" y="517" type="line"/>
      <point x="269" y="517" type="line" smooth="yes"/>
    </contour>
  </outline>
</glyph>
<glyph name="E" format="1">
  <advance width="513"/>
  <unicode hex="0045"/>
  <outline>
    <contour>
      <point x="23" y="542" type="line"/>
      <point x="23" y="501" type="line"/>
      <point x="68" y="501" type="line" smooth="yes"/>
      <point x="96" y="501"/>
      <point x="95" y="489"/>
      <point x="95" y="461" type="curve" smooth="yes"/>
      <point x="95" y="76" type="line" smooth="yes"/>
      <point x="95" y="54"/>
      <point x="93" y="42"/>
      <point x="68" y="42" type="curve" smooth="yes"/>
      <point x="20" y="42" type="line"/>
      <point x="20" y="0" type="line"/>
      <point x="475" y="0" type="line"/>
      <point x="475" y="147" type="line"/>
      <point x="428" y="147" type="line"/>
      <point x="428" y="125" type="line" smooth="yes"/>
      <point x="428" y="83"/>
      <point x="430" y="47"/>
      <point x="400" y="47" type="curve" smooth="yes"/>
      <point x="172" y="47" type="line"/>
      <point x="172" y="257" type="line"/>
      <point x="315" y="257" type="line" smooth="yes"/>
      <point x="336" y="257"/>
      <point x="334" y="232"/>
      <point x="336" y="210" type="curve"/>
      <point x="370" y="210" type="line"/>
      <point x="370" y="346" type="line"/>
      <point x="336" y="346" type="line"/>
      <point x="334" y="319"/>
      <point x="338" y="300"/>
      <point x="317" y="300" type="curve" smooth="yes"/>
      <point x="172" y="300" type="line"/>
      <point x="172" y="495" type="line"/>
      <point x="396" y="495" type="line" smooth="yes"/>
      <point x="429" y="495"/>
      <point x="426" y="468"/>
      <point x="426" y="425" type="curve" smooth="yes"/>
      <point x="426" y="405" type="line"/>
      <point x="474" y="405" type="line"/>
      <point x="474" y="542" type="line"/>
    </contour>
  </outline>
</glyph>
<glyph name="F" format="1">
  <advance width="466"/>
  <unicode hex="0046"/>
  <outline>
    <contour>
      <point x="22" y="543" type="line"/>
      <point x="22" y="501" type="line"/>
      <point x="69" y="501" type="line" smooth="yes"/>
      <point x="96" y="501"/>
      <point x="95" y="492"/>
      <point x="95" y="464" type="curve" smooth="yes"/>
      <point x="95" y="75" type="line" smooth="yes"/>
      <point x="95" y="51"/>
      <point x="93" y="42"/>
      <point x="69" y="42" type="curve" smooth="yes"/>
      <point x="19" y="42" type="line"/>
      <point x="19" y="0" type="line"/>
      <point x="29" y="0"/>
      <point x="124" y="1"/>
      <point x="137" y="1" type="curve" smooth="yes"/>
      <point x="172" y="0"/>
      <point x="226" y="0"/>
      <point x="250" y="0" type="curve"/>
      <point x="250" y="42" type="line"/>
      <point x="227" y="42" type="line" smooth="yes"/>
      <point x="192" y="42"/>
      <point x="172" y="39"/>
      <point x="172" y="70" type="curve" smooth="yes"/>
      <point x="172" y="257" type="line"/>
      <point x="294" y="257" type="line" smooth="yes"/>
      <point x="320" y="257"/>
      <point x="326" y="253"/>
      <point x="327" y="222" type="curve"/>
      <point x="357" y="222" type="line"/>
      <point x="357" y="336" type="line"/>
      <point x="327" y="336" type="line"/>
      <point x="327" y="310"/>
      <point x="322" y="301"/>
      <point x="293" y="301" type="curve" smooth="yes"/>
      <point x="172" y="301" type="line"/>
      <point x="172" y="495" type="line"/>
      <point x="380" y="495" type="line" smooth="yes"/>
      <point x="406" y="495"/>
      <point x="414" y="477"/>
      <point x="414" y="421" type="curve" smooth="yes"/>
      <point x="414" y="404" type="line"/>
      <point x="461" y="404" type="line"/>
      <point x="461" y="543" type="line"/>
    </contour>
  </outline>
</glyph>
<glyph name="G" format="1">
  <advance width="670"/>
  <unicode hex="0047"/>
  <outline>
    <contour>
      <point x="162" y="576"/>
      <point x="46" y="454"/>
      <point x="46" y="283" type="curve" smooth="yes"/>
      <point x="46" y="97"/>
      <point x="161" y="-10"/>
      <point x="355" y="-10" type="curve" smooth="yes"/>
      <point x="435" y="-10"/>
      <point x="516" y="8"/>
      <point x="575" y="70" type="curve"/>
      <point x="578" y="197" type="line"/>
      <point x="578" y="223"/>
      <point x="607" y="218"/>
      <point x="634" y="219" type="curve"/>
      <point x="634" y="264" type="line"/>
      <point x="628" y="264"/>
      <point x="588" y="263"/>
      <point x="543" y="263" type="curve" smooth="yes"/>
      <point x="492" y="263"/>
      <point x="416" y="264"/>
      <point x="407" y="264" type="curve"/>
      <point x="407" y="218" type="line"/>
      <point x="462" y="218" type="line" smooth="yes"/>
      <point x="504" y="218"/>
      <point x="518" y="215"/>
      <point x="518" y="196" type="curve" smooth="yes"/>
      <point x="518" y="138" type="line" smooth="yes"/>
      <point x="518" y="72"/>
      <point x="462" y="41"/>
      <point x="353" y="41" type="curve" smooth="yes"/>
      <point x="212" y="41"/>
      <point x="132" y="136"/>
      <point x="132" y="284" type="curve" smooth="yes"/>
      <point x="132" y="427"/>
      <point x="209" y="525"/>
      <point x="348" y="525" type="curve" smooth="yes"/>
      <point x="439" y="525"/>
      <point x="505" y="486"/>
      <point x="517" y="401" type="curve"/>
      <point x="569" y="401" type="line"/>
      <point x="569" y="557" type="line"/>
      <point x="514" y="557" type="line"/>
      <point x="510" y="513" type="line"/>
      <point x="464" y="556"/>
      <point x="401" y="576"/>
      <point x="332" y="576" type="curve" smooth="yes"/>
    </contour>
  </outline>
</glyph>
<glyph name="H" format="1">
  <advance width="627"/>
  <unicode hex="0048"/>
  <outline>
    <contour>
      <point x="602" y="543" type="line"/>
      <point x="595" y="543"/>
      <point x="504" y="542"/>
      <point x="500" y="542" type="curve" smooth="yes"/>
      <point x="471" y="542"/>
      <point x="413" y="543"/>
      <point x="382" y="543" type="curve"/>
      <point x="382" y="501" type="line"/>
      <point x="402" y="501" type="line" smooth="yes"/>
      <point x="438" y="501"/>
      <point x="454" y="504"/>
      <point x="454" y="474" type="curve" smooth="yes"/>
      <point x="454" y="305" type="line"/>
      <point x="173" y="305" type="line"/>
      <point x="173" y="471" type="line" smooth="yes"/>
      <point x="173" y="503"/>
      <point x="185" y="501"/>
      <point x="224" y="501" type="curve" smooth="yes"/>
      <point x="244" y="501" type="line"/>
      <point x="244" y="543" type="line"/>
      <point x="238" y="543"/>
      <point x="153" y="542"/>
      <point x="151" y="542" type="curve" smooth="yes"/>
      <point x="141" y="542"/>
      <point x="35" y="543"/>
      <point x="25" y="543" type="curve"/>
      <point x="25" y="501" type="line"/>
      <point x="45" y="501" type="line" smooth="yes"/>
      <point x="72" y="501"/>
      <point x="96" y="507"/>
      <point x="96" y="475" type="curve" smooth="yes"/>
      <point x="96" y="75" type="line" smooth="yes"/>
      <point x="96" y="46"/>
      <point x="83" y="42"/>
      <point x="45" y="42" type="curve" smooth="yes"/>
      <point x="25" y="42" type="line"/>
      <point x="25" y="0" type="line"/>
      <point x="35" y="0"/>
      <point x="131" y="1"/>
      <point x="144" y="1" type="curve" smooth="yes"/>
      <point x="154" y="1"/>
      <point x="234" y="0"/>
      <point x="244" y="0" type="curve"/>
      <point x="244" y="42" type="line"/>
      <point x="224" y="42" type="line" smooth="yes"/>
      <point x="186" y="42"/>
      <point x="173" y="37"/>
      <point x="173" y="73" type="curve" smooth="yes"/>
      <point x="173" y="260" type="line"/>
      <point x="454" y="260" type="line"/>
      <point x="454" y="75" type="line" smooth="yes"/>
      <point x="454" y="45"/>
      <point x="439" y="42"/>
      <point x="402" y="42" type="curve" smooth="yes"/>
      <point x="382" y="42" type="line"/>
      <point x="382" y="0" type="line"/>
      <point x="391" y="0"/>
      <point x="471" y="1"/>
      <point x="482" y="1" type="curve" smooth="yes"/>
      <point x="494" y="1"/>
      <point x="591" y="0"/>
      <point x="602" y="0" type="curve"/>
      <point x="602" y="42" type="line"/>
      <point x="582" y="42" type="line" smooth="yes"/>
      <point x="544" y="42"/>
      <point x="531" y="48"/>
      <point x="531" y="77" type="curve" smooth="yes"/>
      <point x="531" y="474" type="line" smooth="yes"/>
      <point x="531" y="503"/>
      <point x="547" y="501"/>
      <point x="582" y="501" type="curve" smooth="yes"/>
      <point x="602" y="501" type="line"/>
    </contour>
  </outline>
</glyph>
<glyph name="I" format="1">
  <advance width="287"/>
  <unicode hex="0049"/>
  <outline>
    <contour>
      <point x="233" y="565"/>
      <point x="210" y="564"/>
      <point x="148" y="564" type="curve" smooth="yes"/>
      <point x="127" y="564"/>
      <point x="57" y="564"/>
      <point x="30" y="565" type="curve"/>
      <point x="30" y="521" type="line"/>
      <point x="51" y="521" type="line" smooth="yes"/>
      <point x="88" y="521"/>
      <point x="104" y="521"/>
      <point x="104" y="488" type="curve" smooth="yes"/>
      <point x="104" y="74" type="line" smooth="yes"/>
      <point x="104" y="43"/>
      <point x="83" y="44"/>
      <point x="51" y="44" type="curve" smooth="yes"/>
      <point x="30" y="44" type="line"/>
      <point x="30" y="0" type="line"/>
      <point x="47" y="0"/>
      <point x="121" y="1"/>
      <point x="144" y="1" type="curve" smooth="yes"/>
      <point x="158" y="1"/>
      <point x="249" y="0"/>
      <point x="259" y="0" type="curve"/>
      <point x="259" y="44" type="line"/>
      <point x="237" y="44" type="line" smooth="yes"/>
      <point x="209" y="44"/>
      <point x="184" y="37"/>
      <point x="184" y="71" type="curve" smooth="yes"/>
      <point x="184" y="491" type="line" smooth="yes"/>
      <point x="184" y="518"/>
      <point x="199" y="521"/>
      <point x="237" y="521" type="curve" smooth="yes"/>
      <point x="259" y="521" type="line"/>
      <point x="259" y="565" type="line"/>
    </contour>
  </outline>
</glyph>
<glyph name="J" format="1">
  <advance width="334"/>
  <unicode hex="004A"/>
  <outline>
    <contour>
      <point x="294" y="565"/>
      <point x="224" y="564"/>
      <point x="210" y="564" type="curve" smooth="yes"/>
      <point x="194" y="564"/>
      <point x="95" y="565"/>
      <point x="71" y="565" type="curve"/>
      <point x="71" y="521" type="line"/>
      <point x="115" y="521" type="line" smooth="yes"/>
      <point x="151" y="521"/>
      <point x="158" y="516"/>
      <point x="158" y="486" type="curve" smooth="yes"/>
      <point x="158" y="105" type="line" smooth="yes"/>
      <point x="158" y="29"/>
      <point x="157" y="-38"/>
      <point x="85" y="-47" type="curve"/>
      <point x="50" y="-47"/>
      <point x="42" y="-27"/>
      <point x="35" y="14" type="curve"/>
      <point x="-8" y="19" type="line"/>
      <point x="-8" y="-87" type="line"/>
      <point x="17" y="-95"/>
      <point x="45" y="-100"/>
      <point x="78" y="-100" type="curve" smooth="yes"/>
      <point x="218" y="-100"/>
      <point x="238" y="-26"/>
      <point x="238" y="122" type="curve" smooth="yes"/>
      <point x="238" y="487" type="line" smooth="yes"/>
      <point x="238" y="514"/>
      <point x="246" y="521"/>
      <point x="280" y="521" type="curve" smooth="yes"/>
      <point x="317" y="521" type="line"/>
      <point x="317" y="565" type="line"/>
    </contour>
  </outline>
</glyph>
<glyph name="K" format="1">
  <advance width="545"/>
  <unicode hex="004B"/>
  <outline>
    <contour>
      <point x="432" y="542" type="line" smooth="yes"/>
      <point x="412" y="542"/>
      <point x="354" y="541"/>
      <point x="327" y="543" type="curve"/>
      <point x="327" y="501" type="line"/>
      <point x="348" y="501" type="line" smooth="yes"/>
      <point x="362" y="501"/>
      <point x="379" y="504"/>
      <point x="379" y="496" type="curve" smooth="yes"/>
      <point x="379" y="493"/>
      <point x="374" y="486"/>
      <point x="364" y="477" type="curve" smooth="yes"/>
      <point x="154" y="289" type="line"/>
      <point x="154" y="471" type="line" smooth="yes"/>
      <point x="154" y="497"/>
      <point x="167" y="501"/>
      <point x="205" y="501" type="curve" smooth="yes"/>
      <point x="226" y="501" type="line"/>
      <point x="226" y="543" type="line"/>
      <point x="158" y="542"/>
      <point x="114" y="542"/>
      <point x="113" y="542" type="curve" smooth="yes"/>
      <point x="72" y="542"/>
      <point x="54" y="541"/>
      <point x="5" y="543" type="curve"/>
      <point x="5" y="501" type="line"/>
      <point x="26" y="501" type="line" smooth="yes"/>
      <point x="56" y="501"/>
      <point x="77" y="506"/>
      <point x="77" y="470" type="curve" smooth="yes"/>
      <point x="77" y="70" type="line" smooth="yes"/>
      <point x="77" y="42"/>
      <point x="55" y="42"/>
      <point x="26" y="42" type="curve" smooth="yes"/>
      <point x="5" y="42" type="line"/>
      <point x="5" y="0" type="line"/>
      <point x="20" y="0"/>
      <point x="96" y="1"/>
      <point x="115" y="1" type="curve" smooth="yes"/>
      <point x="136" y="1"/>
      <point x="211" y="0"/>
      <point x="226" y="0" type="curve"/>
      <point x="226" y="42" type="line"/>
      <point x="205" y="42" type="line" smooth="yes"/>
      <point x="170" y="42"/>
      <point x="154" y="37"/>
      <point x="154" y="69" type="curve" smooth="yes"/>
      <point x="154" y="239" type="line"/>
      <point x="181" y="262" type="line"/>
      <point x="369" y="64" type="line" smooth="yes"/>
      <point x="376" y="57"/>
      <point x="382" y="51"/>
      <point x="382" y="45" type="curve" smooth="yes"/>
      <point x="382" y="41"/>
      <point x="373" y="42"/>
      <point x="361" y="42" type="curve" smooth="yes"/>
      <point x="316" y="42" type="line"/>
      <point x="316" y="0" type="line"/>
      <point x="324" y="0"/>
      <point x="416" y="1"/>
      <point x="425" y="1" type="curve" smooth="yes"/>
      <point x="446" y="1"/>
      <point x="522" y="0"/>
      <point x="537" y="0" type="curve"/>
      <point x="537" y="42" type="line"/>
      <point x="492" y="42"/>
      <point x="477" y="37"/>
      <point x="451" y="65" type="curve" smooth="yes"/>
      <point x="230" y="297" type="line"/>
      <point x="409" y="456" type="line" smooth="yes"/>
      <point x="445" y="487"/>
      <point x="459" y="502"/>
      <point x="493" y="502" type="curve" smooth="yes"/>
      <point x="498" y="502"/>
      <point x="519" y="501"/>
      <point x="525" y="501" type="curve"/>
      <point x="525" y="543" type="line"/>
    </contour>
  </outline>
</glyph>
<glyph name="L" format="1">
  <advance width="476"/>
  <unicode hex="004C"/>
  <outline>
    <contour>
      <point x="230" y="564"/>
      <point x="201" y="564"/>
      <point x="174" y="564" type="curve" smooth="yes"/>
      <point x="133" y="564"/>
      <point x="58" y="564"/>
      <point x="25" y="565" type="curve"/>
      <point x="25" y="521" type="line"/>
      <point x="47" y="521" type="line" smooth="yes"/>
      <point x="84" y="521"/>
      <point x="102" y="519"/>
      <point x="102" y="493" type="curve"/>
      <point x="102" y="84" type="line"/>
      <point x="102" y="50"/>
      <point x="92" y="44"/>
      <point x="47" y="44" type="curve" smooth="yes"/>
      <point x="25" y="44" type="line"/>
      <point x="25" y="0" type="line"/>
      <point x="460" y="0" type="line"/>
      <point x="460" y="192" type="line"/>
      <point x="409" y="192" type="line"/>
      <point x="409" y="148"/>
      <point x="409" y="112"/>
      <point x="406" y="87" type="curve" smooth="yes"/>
      <point x="401" y="63"/>
      <point x="395" y="50"/>
      <point x="381" y="50" type="curve" smooth="yes"/>
      <point x="182" y="50" type="line"/>
      <point x="182" y="485" type="line" smooth="yes"/>
      <point x="182" y="514"/>
      <point x="191" y="521"/>
      <point x="230" y="521" type="curve" smooth="yes"/>
      <point x="261" y="521" type="line"/>
      <point x="261" y="565" type="line"/>
    </contour>
  </outline>
</glyph>
<glyph name="M" format="1">
  <advance width="743"/>
  <unicode hex="004D"/>
  <outline>
    <contour>
      <point x="721" y="543" type="line"/>
      <point x="711" y="543"/>
      <point x="626" y="542"/>
      <point x="621" y="542" type="curve" smooth="yes"/>
      <point x="617" y="542"/>
      <point x="540" y="543"/>
      <point x="538" y="543" type="curve"/>
      <point x="371" y="89" type="line"/>
      <point x="205" y="543" type="line"/>
      <point x="203" y="543"/>
      <point x="132" y="542"/>
      <point x="128" y="542" type="curve" smooth="yes"/>
      <point x="103" y="542"/>
      <point x="51" y="542"/>
      <point x="25" y="543" type="curve"/>
      <point x="25" y="501" type="line"/>
      <point x="50" y="501" type="line" smooth="yes"/>
      <point x="82" y="501"/>
      <point x="95" y="502"/>
      <point x="95" y="471" type="curve" smooth="yes"/>
      <point x="94" y="77" type="line" smooth="yes"/>
      <point x="94" y="41"/>
      <point x="85" y="42"/>
      <point x="48" y="42" type="curve" smooth="yes"/>
      <point x="22" y="42" type="line"/>
      <point x="22" y="0" type="line"/>
      <point x="30" y="0"/>
      <point x="119" y="1"/>
      <point x="130" y="1" type="curve" smooth="yes"/>
      <point x="142" y="1"/>
      <point x="213" y="0"/>
      <point x="222" y="0" type="curve"/>
      <point x="222" y="42" type="line"/>
      <point x="197" y="42" type="line" smooth="yes"/>
      <point x="160" y="42"/>
      <point x="152" y="41"/>
      <point x="152" y="76" type="curve" smooth="yes"/>
      <point x="152" y="504" type="line"/>
      <point x="342" y="0" type="line"/>
      <point x="389" y="0" type="line"/>
      <point x="580" y="505" type="line"/>
      <point x="580" y="80" type="line" smooth="yes"/>
      <point x="580" y="50"/>
      <point x="573" y="42"/>
      <point x="534" y="42" type="curve" smooth="yes"/>
      <point x="509" y="42" type="line"/>
      <point x="509" y="0" type="line"/>
      <point x="516" y="0"/>
      <point x="587" y="1"/>
      <point x="598" y="1" type="curve" smooth="yes"/>
      <point x="610" y="1"/>
      <point x="711" y="0"/>
      <point x="722" y="0" type="curve"/>
      <point x="722" y="42" type="line"/>
      <point x="696" y="42" type="line" smooth="yes"/>
      <point x="659" y="42"/>
      <point x="650" y="43"/>
      <point x="650" y="79" type="curve" smooth="yes"/>
      <point x="650" y="472" type="line" smooth="yes"/>
      <point x="650" y="502"/>
      <point x="664" y="501"/>
      <point x="695" y="501" type="curve" smooth="yes"/>
      <point x="721" y="501" type="line"/>
    </contour>
  </outline>
</glyph>
<glyph name="N" format="1">
  <advance width="631"/>
  <unicode hex="004E"/>
  <outline>
    <contour>
      <point x="580" y="565"/>
      <point x="546" y="564"/>
      <point x="513" y="564" type="curve"/>
      <point x="476" y="564"/>
      <point x="439" y="565"/>
      <point x="402" y="565" type="curve"/>
      <point x="402" y="521" type="line"/>
      <point x="425" y="521" type="line" smooth="yes"/>
      <point x="464" y="521"/>
      <point x="480" y="524"/>
      <point x="480" y="490" type="curve" smooth="yes"/>
      <point x="480" y="82" type="line"/>
      <point x="479" y="82" type="line"/>
      <point x="188" y="565" type="line"/>
      <point x="20" y="565" type="line"/>
      <point x="19" y="521" type="line"/>
      <point x="46" y="521" type="line" smooth="yes"/>
      <point x="85" y="521"/>
      <point x="94" y="523"/>
      <point x="94" y="486" type="curve" smooth="yes"/>
      <point x="94" y="79" type="line" smooth="yes"/>
      <point x="94" y="46"/>
      <point x="86" y="44"/>
      <point x="45" y="44" type="curve" smooth="yes"/>
      <point x="17" y="44" type="line"/>
      <point x="17" y="0" type="line"/>
      <point x="55" y="0"/>
      <point x="95" y="0"/>
      <point x="133" y="1" type="curve"/>
      <point x="166" y="0"/>
      <point x="200" y="0"/>
      <point x="233" y="0" type="curve"/>
      <point x="233" y="44" type="line"/>
      <point x="209" y="44" type="line" smooth="yes"/>
      <point x="167" y="44"/>
      <point x="153" y="41"/>
      <point x="153" y="77" type="curve" smooth="yes"/>
      <point x="153" y="492" type="line"/>
      <point x="154" y="492" type="line"/>
      <point x="456" y="-4" type="line"/>
      <point x="541" y="-4" type="line"/>
      <point x="541" y="491" type="line"/>
      <point x="541" y="518"/>
      <point x="551" y="521"/>
      <point x="587" y="521" type="curve" smooth="yes"/>
      <point x="615" y="521" type="line"/>
      <point x="615" y="565" type="line"/>
    </contour>
  </outline>
</glyph>
<glyph name="O" format="1">
  <advance width="669"/>
  <unicode hex="004F"/>
  <outline>
    <contour>
      <point x="158" y="576"/>
      <point x="46" y="459"/>
      <point x="46" y="283" type="curve" smooth="yes"/>
      <point x="46" y="105"/>
      <point x="158" y="-10"/>
      <point x="338" y="-10" type="curve" smooth="yes"/>
      <point x="512" y="-10"/>
      <point x="624" y="109"/>
      <point x="624" y="283" type="curve" smooth="yes"/>
      <point x="624" y="459"/>
      <point x="511" y="576"/>
      <point x="335" y="576" type="curve" smooth="yes"/>
    </contour>
    <contour>
      <point x="468" y="526"/>
      <point x="538" y="424"/>
      <point x="538" y="283" type="curve" smooth="yes"/>
      <point x="538" y="142"/>
      <point x="467" y="41"/>
      <point x="335" y="41" type="curve" smooth="yes"/>
      <point x="201" y="41"/>
      <point x="132" y="142"/>
      <point x="132" y="283" type="curve" smooth="yes"/>
      <point x="132" y="423"/>
      <point x="202" y="526"/>
      <point x="335" y="526" type="curve" smooth="yes"/>
    </contour>
  </outline>
</glyph>
<glyph name="P" format="1">
  <advance width="491"/>
  <unicode hex="0050"/>
  <outline>
    <contour>
      <point x="23" y="543" type="line"/>
      <point x="23" y="501" type="line"/>
      <point x="45" y="501" type="line"/>
      <point x="78" y="502"/>
      <point x="97" y="501"/>
      <point x="97" y="474" type="curve" smooth="yes"/>
      <point x="97" y="76" type="line" smooth="yes"/>
      <point x="97" y="42"/>
      <point x="79" y="42"/>
      <point x="45" y="42" type="curve" smooth="yes"/>
      <point x="23" y="42" type="line"/>
      <point x="23" y="0" type="line"/>
      <point x="43" y="0"/>
      <point x="126" y="1"/>
      <point x="152" y="1" type="curve" smooth="yes"/>
      <point x="162" y="1"/>
      <point x="240" y="0"/>
      <point x="249" y="0" type="curve"/>
      <point x="249" y="42" type="line"/>
      <point x="227" y="42" type="line" smooth="yes"/>
      <point x="191" y="42"/>
      <point x="174" y="41"/>
      <point x="174" y="74" type="curve" smooth="yes"/>
      <point x="174" y="232" type="line"/>
      <point x="272" y="232" type="line" smooth="yes"/>
      <point x="396" y="232"/>
      <point x="470" y="279"/>
      <point x="470" y="387" type="curve" smooth="yes"/>
      <point x="470" y="493"/>
      <point x="392" y="543"/>
      <point x="271" y="543" type="curve" smooth="yes"/>
    </contour>
    <contour>
      <point x="257" y="498" type="line" smooth="yes"/>
      <point x="346" y="498"/>
      <point x="394" y="467"/>
      <point x="394" y="386" type="curve" smooth="yes"/>
      <point x="394" y="311"/>
      <point x="349" y="275"/>
      <point x="255" y="275" type="curve" smooth="yes"/>
      <point x="174" y="275" type="line"/>
      <point x="174" y="498" type="line"/>
    </contour>
  </outline>
</glyph>
<glyph name="Q" format="1">
  <advance width="669"/>
  <unicode hex="0051"/>
  <outline>
    <contour>
      <point x="158" y="576"/>
      <point x="46" y="459"/>
      <point x="46" y="283" type="curve" smooth="yes"/>
      <point x="46" y="126"/>
      <point x="134" y="18"/>
      <point x="288" y="-6" type="curve"/>
      <point x="269" y="-8"/>
      <point x="252" y="-11"/>
      <point x="238" y="-23" type="curve"/>
      <point x="251" y="-40" type="line"/>
      <point x="261" y="-32"/>
      <point x="275" y="-28"/>
      <point x="288" y="-28" type="curve"/>
      <point x="417" y="-60"/>
      <point x="419" y="-112"/>
      <point x="545" y="-122" type="curve"/>
      <point x="548" y="-123"/>
      <point x="560" y="-123"/>
      <point x="563" y="-123" type="curve"/>
      <point x="578" y="-78" type="line"/>
      <point x="487" y="-67"/>
      <point x="475" y="-49"/>
      <point x="382" y="-10" type="curve"/>
      <point x="380" y="-6" type="line"/>
      <point x="530" y="10"/>
      <point x="624" y="127"/>
      <point x="624" y="283" type="curve" smooth="yes"/>
      <point x="624" y="459"/>
      <point x="512" y="576"/>
      <point x="336" y="576" type="curve" smooth="yes"/>
    </contour>
    <contour>
      <point x="467" y="526"/>
      <point x="538" y="424"/>
      <point x="538" y="284" type="curve" smooth="yes"/>
      <point x="538" y="145"/>
      <point x="467" y="41"/>
      <point x="335" y="41" type="curve" smooth="yes"/>
      <point x="202" y="41"/>
      <point x="132" y="145"/>
      <point x="132" y="284" type="curve" smooth="yes"/>
      <point x="132" y="423"/>
      <point x="202" y="526"/>
      <point x="335" y="526" type="curve" smooth="yes"/>
    </contour>
  </outline>
</glyph>
<glyph name="R" format="1">
  <advance width="581"/>
  <unicode hex="0052"/>
  <outline>
    <contour>
      <point x="20" y="565" type="line"/>
      <point x="20" y="521" type="line"/>
      <point x="66" y="521" type="line"/>
      <point x="89" y="520"/>
      <point x="100" y="520"/>
      <point x="100" y="493" type="curve" smooth="yes"/>
      <point x="100" y="72" type="line" smooth="yes"/>
      <point x="100" y="41"/>
      <point x="75" y="44"/>
      <point x="42" y="44" type="curve" smooth="yes"/>
      <point x="20" y="44" type="line"/>
      <point x="20" y="0" type="line"/>
      <point x="29" y="0"/>
      <point x="132" y="1"/>
      <point x="145" y="1" type="curve" smooth="yes"/>
      <point x="168" y="0"/>
      <point x="250" y="0"/>
      <point x="258" y="0" type="curve"/>
      <point x="258" y="44" type="line"/>
      <point x="235" y="44" type="line" smooth="yes"/>
      <point x="202" y="44"/>
      <point x="180" y="40"/>
      <point x="180" y="67" type="curve" smooth="yes"/>
      <point x="180" y="268" type="line"/>
      <point x="238" y="268" type="line" smooth="yes"/>
      <point x="316" y="268"/>
      <point x="332" y="251"/>
      <point x="355" y="168" type="curve" smooth="yes"/>
      <point x="381" y="74"/>
      <point x="398" y="-10"/>
      <point x="488" y="-10" type="curve" smooth="yes"/>
      <point x="548" y="-10"/>
      <point x="582" y="27"/>
      <point x="582" y="88" type="curve"/>
      <point x="539" y="84" type="line"/>
      <point x="539" y="55"/>
      <point x="525" y="42"/>
      <point x="501" y="42" type="curve" smooth="yes"/>
      <point x="465" y="42"/>
      <point x="454" y="97"/>
      <point x="442" y="153" type="curve" smooth="yes"/>
      <point x="426" y="216"/>
      <point x="408" y="250"/>
      <point x="363" y="284" type="curve"/>
      <point x="442" y="302"/>
      <point x="487" y="349"/>
      <point x="487" y="419" type="curve" smooth="yes"/>
      <point x="487" y="541"/>
      <point x="386" y="565"/>
      <point x="261" y="565" type="curve" smooth="yes"/>
    </contour>
    <contour>
      <point x="344" y="518"/>
      <point x="408" y="505"/>
      <point x="408" y="415" type="curve" smooth="yes"/>
      <point x="408" y="335"/>
      <point x="362" y="311"/>
      <point x="276" y="311" type="curve" smooth="yes"/>
      <point x="180" y="311" type="line"/>
      <point x="180" y="518" type="line"/>
      <point x="248" y="518" type="line" smooth="yes"/>
    </contour>
  </outline>
</glyph>
<glyph name="S" format="1">
  <advance width="478"/>
  <unicode hex="0053"/>
  <outline>
    <contour>
      <point x="218" y="553" type="curve" smooth="yes"/>
      <point x="120" y="553"/>
      <point x="45" y="499"/>
      <point x="45" y="410" type="curve" smooth="yes"/>
      <point x="45" y="307"/>
      <point x="141" y="276"/>
      <point x="241" y="245" type="curve" smooth="yes"/>
      <point x="292" y="229"/>
      <point x="362" y="204"/>
      <point x="362" y="139" type="curve" smooth="yes"/>
      <point x="362" y="73"/>
      <point x="305" y="37"/>
      <point x="236" y="37" type="curve" smooth="yes"/>
      <point x="141" y="37"/>
      <point x="93" y="83"/>
      <point x="93" y="172" type="curve"/>
      <point x="42" y="172" type="line"/>
      <point x="42" y="0" type="line"/>
      <point x="98" y="0" type="line"/>
      <point x="98" y="49" type="line"/>
      <point x="128" y="12"/>
      <point x="183" y="-10"/>
      <point x="259" y="-10" type="curve" smooth="yes"/>
      <point x="360" y="-10"/>
      <point x="438" y="52"/>
      <point x="438" y="147" type="curve" smooth="yes"/>
      <point x="438" y="237"/>
      <point x="375" y="274"/>
      <point x="270" y="307" type="curve" smooth="yes"/>
      <point x="224" y="322"/>
      <point x="118" y="344"/>
      <point x="118" y="421" type="curve" smooth="yes"/>
      <point x="118" y="478"/>
      <point x="169" y="509"/>
      <point x="232" y="509" type="curve" smooth="yes"/>
      <point x="339" y="509"/>
      <point x="362" y="456"/>
      <point x="366" y="396" type="curve"/>
      <point x="415" y="396" type="line"/>
      <point x="415" y="541" type="line"/>
      <point x="363" y="541" type="line"/>
      <point x="363" y="506" type="line"/>
      <point x="319" y="544"/>
      <point x="274" y="553"/>
    </contour>
  </outline>
</glyph>
<glyph name="T" format="1">
  <advance width="535"/>
  <unicode hex="0054"/>
  <outline>
    <contour>
      <point x="24" y="565"/>
      <point x="21" y="565"/>
      <point x="21" y="565" type="curve"/>
      <point x="21" y="396" type="line"/>
      <point x="67" y="396" type="line"/>
      <point x="67" y="491" type="line"/>
      <point x="67" y="518"/>
      <point x="97" y="515"/>
      <point x="133" y="515" type="curve" smooth="yes"/>
      <point x="229" y="515" type="line"/>
      <point x="229" y="74" type="line" smooth="yes"/>
      <point x="229" y="47"/>
      <point x="212" y="44"/>
      <point x="174" y="44" type="curve" smooth="yes"/>
      <point x="150" y="44" type="line"/>
      <point x="150" y="0" type="line"/>
      <point x="155" y="0"/>
      <point x="161" y="0"/>
      <point x="265" y="1" type="curve"/>
      <point x="306" y="0"/>
      <point x="346" y="0"/>
      <point x="387" y="0" type="curve"/>
      <point x="387" y="44" type="line"/>
      <point x="363" y="44" type="line" smooth="yes"/>
      <point x="336" y="44"/>
      <point x="308" y="37"/>
      <point x="308" y="69" type="curve" smooth="yes"/>
      <point x="308" y="515" type="line"/>
      <point x="396" y="515" type="line" smooth="yes"/>
      <point x="453" y="515"/>
      <point x="468" y="508"/>
      <point x="468" y="486" type="curve" smooth="yes"/>
      <point x="468" y="396" type="line"/>
      <point x="515" y="396" type="line"/>
      <point x="515" y="565" type="line"/>
    </contour>
  </outline>
</glyph>
<glyph name="U" format="1">
  <advance width="592"/>
  <unicode hex="0055"/>
  <outline>
    <contour>
      <point x="560" y="565"/>
      <point x="471" y="565"/>
      <point x="464" y="565" type="curve"/>
      <point x="457" y="564"/>
      <point x="388" y="564"/>
      <point x="368" y="565" type="curve"/>
      <point x="368" y="521" type="line"/>
      <point x="419" y="520" type="line" smooth="yes"/>
      <point x="440" y="520"/>
      <point x="446" y="514"/>
      <point x="446" y="492" type="curve" smooth="yes"/>
      <point x="446" y="213" type="line" smooth="yes"/>
      <point x="446" y="100"/>
      <point x="421" y="42"/>
      <point x="305" y="42" type="curve" smooth="yes"/>
      <point x="191" y="42"/>
      <point x="162" y="100"/>
      <point x="162" y="216" type="curve" smooth="yes"/>
      <point x="162" y="494" type="line" smooth="yes"/>
      <point x="162" y="520"/>
      <point x="181" y="521"/>
      <point x="215" y="521" type="curve" smooth="yes"/>
      <point x="236" y="521" type="line"/>
      <point x="236" y="565" type="line"/>
      <point x="211" y="565"/>
      <point x="165" y="564"/>
      <point x="141" y="564" type="curve" smooth="yes"/>
      <point x="108" y="564"/>
      <point x="43" y="564"/>
      <point x="10" y="565" type="curve"/>
      <point x="10" y="521" type="line"/>
      <point x="32" y="521" type="line" smooth="yes"/>
      <point x="63" y="521"/>
      <point x="83" y="524"/>
      <point x="83" y="496" type="curve" smooth="yes"/>
      <point x="83" y="214" type="line" smooth="yes"/>
      <point x="83" y="58"/>
      <point x="138" y="-10"/>
      <point x="300" y="-10" type="curve" smooth="yes"/>
      <point x="453" y="-10"/>
      <point x="510" y="62"/>
      <point x="510" y="216" type="curve" smooth="yes"/>
      <point x="510" y="494" type="line" smooth="yes"/>
      <point x="510" y="508"/>
      <point x="514" y="521"/>
      <point x="534" y="521" type="curve" smooth="yes"/>
      <point x="581" y="521" type="line"/>
      <point x="581" y="565" type="line"/>
    </contour>
  </outline>
</glyph>
<glyph name="V" format="1">
  <advance width="588"/>
  <unicode hex="0056"/>
  <outline>
    <contour>
      <point x="576" y="565"/>
      <point x="509" y="564"/>
      <point x="492" y="564" type="curve" smooth="yes"/>
      <point x="483" y="564"/>
      <point x="411" y="565"/>
      <point x="391" y="565" type="curve"/>
      <point x="391" y="521" type="line"/>
      <point x="418" y="521" type="line" smooth="yes"/>
      <point x="443" y="521"/>
      <point x="464" y="523"/>
      <point x="464" y="506" type="curve" smooth="yes"/>
      <point x="464" y="499"/>
      <point x="460" y="490"/>
      <point x="454" y="475" type="curve" smooth="yes"/>
      <point x="306" y="68" type="line"/>
      <point x="147" y="476" type="line"/>
      <point x="142" y="487"/>
      <point x="140" y="495"/>
      <point x="140" y="501" type="curve" smooth="yes"/>
      <point x="140" y="519"/>
      <point x="159" y="521"/>
      <point x="184" y="521" type="curve"/>
      <point x="209" y="521" type="line"/>
      <point x="209" y="565" type="line"/>
      <point x="188" y="565"/>
      <point x="116" y="564"/>
      <point x="101" y="564" type="curve" smooth="yes"/>
      <point x="89" y="563"/>
      <point x="19" y="564"/>
      <point x="-6" y="565" type="curve"/>
      <point x="-6" y="521" type="line"/>
      <point x="48" y="521"/>
      <point x="50" y="520"/>
      <point x="71" y="470" type="curve" smooth="yes"/>
      <point x="260" y="-5" type="line"/>
      <point x="338" y="-5" type="line"/>
      <point x="523" y="485" type="line" smooth="yes"/>
      <point x="529" y="502"/>
      <point x="540" y="511"/>
      <point x="550" y="516" type="curve" smooth="yes"/>
      <point x="561" y="521"/>
      <point x="574" y="521"/>
      <point x="594" y="521" type="curve"/>
      <point x="594" y="565" type="line"/>
    </contour>
  </outline>
</glyph>
<glyph name="W" format="1">
  <advance width="834"/>
  <unicode hex="0057"/>
  <outline>
    <contour>
      <point x="815" y="564"/>
      <point x="765" y="564"/>
      <point x="743" y="564" type="curve" smooth="yes"/>
      <point x="730" y="564"/>
      <point x="661" y="565"/>
      <point x="640" y="565" type="curve"/>
      <point x="640" y="521" type="line"/>
      <point x="662" y="521" type="line"/>
      <point x="686" y="521"/>
      <point x="710" y="520"/>
      <point x="710" y="500" type="curve"/>
      <point x="709" y="492"/>
      <point x="707" y="483"/>
      <point x="704" y="469" type="curve" smooth="yes"/>
      <point x="596" y="64" type="line"/>
      <point x="462" y="558" type="line"/>
      <point x="380" y="558" type="line"/>
      <point x="254" y="66" type="line"/>
      <point x="146" y="466" type="line"/>
      <point x="141" y="479"/>
      <point x="139" y="489"/>
      <point x="139" y="497" type="curve" smooth="yes"/>
      <point x="139" y="524"/>
      <point x="170" y="521"/>
      <point x="208" y="521" type="curve"/>
      <point x="208" y="565" type="line"/>
      <point x="173" y="565"/>
      <point x="133" y="564"/>
      <point x="106" y="564" type="curve" smooth="yes"/>
      <point x="104" y="564"/>
      <point x="12" y="565"/>
      <point x="-4" y="565" type="curve"/>
      <point x="-4" y="521" type="line"/>
      <point x="25" y="521"/>
      <point x="40" y="521"/>
      <point x="50" y="514" type="curve" smooth="yes"/>
      <point x="59" y="505"/>
      <point x="63" y="491"/>
      <point x="72" y="462" type="curve" smooth="yes"/>
      <point x="207" y="-5" type="line"/>
      <point x="288" y="-5" type="line"/>
      <point x="419" y="499" type="line"/>
      <point x="550" y="-5" type="line"/>
      <point x="629" y="-5" type="line"/>
      <point x="762" y="464" type="line" smooth="yes"/>
      <point x="779" y="519"/>
      <point x="784" y="521"/>
      <point x="840" y="521" type="curve"/>
      <point x="840" y="565" type="line"/>
    </contour>
  </outline>
</glyph>
<glyph name="X" format="1">
  <advance width="616"/>
  <unicode hex="0058"/>
  <outline>
    <contour>
      <point x="574" y="565"/>
      <point x="563" y="565"/>
      <point x="480" y="563" type="curve"/>
      <point x="460" y="563"/>
      <point x="405" y="565"/>
      <point x="364" y="565" type="curve"/>
      <point x="364" y="521" type="line"/>
      <point x="391" y="521"/>
      <point x="408" y="521"/>
      <point x="418" y="519" type="curve" smooth="yes"/>
      <point x="426" y="518"/>
      <point x="433" y="516"/>
      <point x="433" y="510" type="curve" smooth="yes"/>
      <point x="433" y="509"/>
      <point x="431" y="505"/>
      <point x="427" y="501" type="curve"/>
      <point x="308" y="336" type="line"/>
      <point x="205" y="472" type="line" smooth="yes"/>
      <point x="194" y="485"/>
      <point x="182" y="501"/>
      <point x="182" y="510" type="curve" smooth="yes"/>
      <point x="182" y="521"/>
      <point x="203" y="521"/>
      <point x="224" y="521" type="curve" smooth="yes"/>
      <point x="248" y="521" type="line"/>
      <point x="248" y="565" type="line"/>
      <point x="229" y="565"/>
      <point x="141" y="563"/>
      <point x="116" y="563" type="curve" smooth="yes"/>
      <point x="103" y="563"/>
      <point x="29" y="565"/>
      <point x="15" y="565" type="curve"/>
      <point x="15" y="521" type="line"/>
      <point x="46" y="521"/>
      <point x="62" y="521"/>
      <point x="77" y="513" type="curve" smooth="yes"/>
      <point x="92" y="504"/>
      <point x="104" y="488"/>
      <point x="129" y="456" type="curve" smooth="yes"/>
      <point x="260" y="284" type="line"/>
      <point x="116" y="96" type="line" smooth="yes"/>
      <point x="96" y="70"/>
      <point x="81" y="56"/>
      <point x="67" y="50" type="curve" smooth="yes"/>
      <point x="52" y="44"/>
      <point x="35" y="44"/>
      <point x="12" y="44" type="curve"/>
      <point x="12" y="0" type="line"/>
      <point x="22" y="0"/>
      <point x="106" y="1"/>
      <point x="116" y="1" type="curve" smooth="yes"/>
      <point x="154" y="1"/>
      <point x="202" y="0"/>
      <point x="241" y="0" type="curve"/>
      <point x="241" y="43" type="line"/>
      <point x="217" y="43"/>
      <point x="200" y="44"/>
      <point x="188" y="45" type="curve" smooth="yes"/>
      <point x="176" y="46"/>
      <point x="171" y="50"/>
      <point x="171" y="57" type="curve" smooth="yes"/>
      <point x="171" y="62"/>
      <point x="173" y="69"/>
      <point x="178" y="77" type="curve" smooth="yes"/>
      <point x="298" y="241" type="line"/>
      <point x="401" y="105" type="line" smooth="yes"/>
      <point x="417" y="85"/>
      <point x="428" y="70"/>
      <point x="428" y="61" type="curve" smooth="yes"/>
      <point x="428" y="54"/>
      <point x="423" y="49"/>
      <point x="413" y="47" type="curve"/>
      <point x="401" y="45"/>
      <point x="385" y="43"/>
      <point x="362" y="43" type="curve"/>
      <point x="362" y="0" type="line"/>
      <point x="371" y="0"/>
      <point x="472" y="1"/>
      <point x="485" y="1" type="curve" smooth="yes"/>
      <point x="496" y="1"/>
      <point x="592" y="0"/>
      <point x="602" y="0" type="curve"/>
      <point x="602" y="43" type="line"/>
      <point x="570" y="43"/>
      <point x="551" y="46"/>
      <point x="536" y="56" type="curve" smooth="yes"/>
      <point x="520" y="67"/>
      <point x="506" y="84"/>
      <point x="485" y="112" type="curve" smooth="yes"/>
      <point x="346" y="293" type="line"/>
      <point x="492" y="488" type="line"/>
      <point x="501" y="502"/>
      <point x="510" y="511"/>
      <point x="524" y="516" type="curve" smooth="yes"/>
      <point x="538" y="521"/>
      <point x="556" y="523"/>
      <point x="586" y="523" type="curve"/>
      <point x="587" y="565" type="line"/>
    </contour>
  </outline>
</glyph>
<glyph name="Y" format="1">
  <advance width="551"/>
  <unicode hex="0059"/>
  <outline>
    <contour>
      <point x="528" y="565"/>
      <point x="457" y="564"/>
      <point x="451" y="564" type="curve" smooth="yes"/>
      <point x="446" y="564"/>
      <point x="365" y="565"/>
      <point x="348" y="565" type="curve"/>
      <point x="348" y="521" type="line"/>
      <point x="401" y="520" type="line"/>
      <point x="412" y="519"/>
      <point x="417" y="516"/>
      <point x="417" y="510" type="curve" smooth="yes"/>
      <point x="417" y="505"/>
      <point x="415" y="500"/>
      <point x="411" y="493" type="curve"/>
      <point x="284" y="291" type="line"/>
      <point x="172" y="470" type="line" smooth="yes"/>
      <point x="160" y="489"/>
      <point x="153" y="501"/>
      <point x="152" y="510" type="curve" smooth="yes"/>
      <point x="152" y="523"/>
      <point x="178" y="521"/>
      <point x="206" y="521" type="curve" smooth="yes"/>
      <point x="223" y="521" type="line"/>
      <point x="223" y="565" type="line"/>
      <point x="122" y="565"/>
      <point x="184" y="564"/>
      <point x="92" y="564" type="curve" smooth="yes"/>
      <point x="78" y="564"/>
      <point x="16" y="564"/>
      <point x="-3" y="565" type="curve"/>
      <point x="-3" y="521" type="line"/>
      <point x="55" y="521"/>
      <point x="62" y="512"/>
      <point x="78" y="487" type="curve"/>
      <point x="237" y="241" type="line"/>
      <point x="237" y="71" type="line" smooth="yes"/>
      <point x="237" y="43"/>
      <point x="212" y="44"/>
      <point x="181" y="44" type="curve" smooth="yes"/>
      <point x="158" y="44" type="line"/>
      <point x="158" y="0" type="line"/>
      <point x="175" y="0"/>
      <point x="253" y="1"/>
      <point x="275" y="1" type="curve" smooth="yes"/>
      <point x="310" y="0"/>
      <point x="366" y="0"/>
      <point x="395" y="0" type="curve"/>
      <point x="395" y="44" type="line"/>
      <point x="371" y="44" type="line" smooth="yes"/>
      <point x="343" y="44"/>
      <point x="315" y="37"/>
      <point x="315" y="72" type="curve" smooth="yes"/>
      <point x="315" y="240" type="line"/>
      <point x="477" y="488" type="line"/>
      <point x="502" y="524"/>
      <point x="504" y="521"/>
      <point x="554" y="521" type="curve"/>
      <point x="554" y="565" type="line"/>
    </contour>
  </outline>
</glyph>
<glyph name="Z" format="1">
  <advance width="502"/>
  <unicode hex="005A"/>
  <outline>
    <contour>
      <point x="38" y="564" type="line"/>
      <point x="38" y="414" type="line"/>
      <point x="87" y="414" type="line"/>
      <point x="87" y="487" type="line" smooth="yes"/>
      <point x="87" y="501"/>
      <point x="88" y="509"/>
      <point x="99" y="513" type="curve"/>
      <point x="109" y="516"/>
      <point x="127" y="516"/>
      <point x="158" y="516" type="curve" smooth="yes"/>
      <point x="380" y="516" type="line"/>
      <point x="26" y="58" type="line"/>
      <point x="26" y="0" type="line"/>
      <point x="476" y="0" type="line"/>
      <point x="476" y="158" type="line"/>
      <point x="426" y="158" type="line"/>
      <point x="426" y="112"/>
      <point x="426" y="85"/>
      <point x="422" y="70" type="curve" smooth="yes"/>
      <point x="418" y="53"/>
      <point x="411" y="48"/>
      <point x="397" y="48" type="curve" smooth="yes"/>
      <point x="110" y="48" type="line"/>
      <point x="465" y="504" type="line"/>
      <point x="465" y="564" type="line"/>
    </contour>
  </outline>
</glyph>
<glyph name="bracketleft" format="1">
  <advance width="305"/>
  <unicode hex="005B"/>
  <outline>
    <contour>
      <point x="86" y="565" type="line"/>
      <point x="86" y="-128" type="line"/>
      <point x="282" y="-128" type="line"/>
      <point x="282" y="-78" type="line"/>
      <point x="159" y="-78" type="line"/>
      <point x="159" y="516" type="line"/>
      <point x="283" y="516" type="line"/>
      <point x="283" y="565" type="line"/>
    </contour>
  </outline>
</glyph>
<glyph name="backslash" format="1">
  <advance width="244"/>
  <unicode hex="005C"/>
  <outline>
    <contour>
      <point x="-11" y="571" type="line"/>
      <point x="207" y="-46" type="line"/>
      <point x="261" y="-46" type="line"/>
      <point x="44" y="571" type="line"/>
    </contour>
  </outline>
</glyph>
<glyph name="bracketright" format="1">
  <advance width="305"/>
  <unicode hex="005D"/>
  <outline>
    <contour>
      <point x="21" y="565" type="line"/>
      <point x="21" y="516" type="line"/>
      <point x="145" y="516" type="line"/>
      <point x="145" y="-78" type="line"/>
      <point x="21" y="-78" type="line"/>
      <point x="21" y="-128" type="line"/>
      <point x="217" y="-128" type="line"/>
      <point x="217" y="565" type="line"/>
    </contour>
  </outline>
</glyph>
<glyph name="asciicircum" format="1">
  <advance width="745"/>
  <unicode hex="005E"/>
  <outline>
    <contour>
      <point x="348" y="615" type="line"/>
      <point x="137" y="372" type="line"/>
      <point x="179" y="362" type="line"/>
      <point x="371" y="553" type="line"/>
      <point x="564" y="362" type="line"/>
      <point x="607" y="372" type="line"/>
      <point x="407" y="615" type="line"/>
    </contour>
  </outline>
</glyph>
<glyph name="underscore" format="1">
  <advance width="448"/>
  <unicode hex="005F"/>
  <outline>
    <contour>
      <point x="-3" y="-110" type="line"/>
      <point x="-3" y="-158" type="line"/>
      <point x="451" y="-158" type="line"/>
      <point x="451" y="-110" type="line"/>
    </contour>
  </outline>
</glyph>
<glyph name="grave" format="1">
  <advance width="359"/>
  <unicode hex="0060"/>
  <outline>
    <contour>
      <point x="110" y="573" type="curve" smooth="yes"/>
      <point x="93" y="573"/>
      <point x="79" y="566"/>
      <point x="79" y="557" type="curve"/>
      <point x="80" y="547"/>
      <point x="91" y="533"/>
      <point x="106" y="519" type="curve" smooth="yes"/>
      <point x="126" y="498"/>
      <point x="189" y="451"/>
      <point x="210" y="433" type="curve"/>
      <point x="245" y="433" type="line"/>
      <point x="148" y="560" type="line" smooth="yes"/>
      <point x="142" y="568"/>
      <point x="125" y="573"/>
    </contour>
  </outline>
</glyph>
<glyph name="a" format="1">
  <advance width="446"/>
  <unicode hex="0061"/>
  <outline>
    <contour>
      <point x="211" y="386" type="curve" smooth="yes"/>
      <point x="151" y="386"/>
      <point x="103" y="375"/>
      <point x="67" y="359" type="curve"/>
      <point x="61" y="285" type="line"/>
      <point x="100" y="280" type="line"/>
      <point x="112" y="328"/>
      <point x="144" y="350"/>
      <point x="203" y="350" type="curve" smooth="yes"/>
      <point x="273" y="350"/>
      <point x="306" y="322"/>
      <point x="306" y="271" type="curve" smooth="yes"/>
      <point x="306" y="210" type="line"/>
      <point x="269" y="220"/>
      <point x="234" y="226"/>
      <point x="198" y="226" type="curve" smooth="yes"/>
      <point x="107" y="226"/>
      <point x="35" y="187"/>
      <point x="35" y="106" type="curve" smooth="yes"/>
      <point x="35" y="35"/>
      <point x="93" y="-9"/>
      <point x="168" y="-9" type="curve" smooth="yes"/>
      <point x="230" y="-9"/>
      <point x="275" y="13"/>
      <point x="309" y="56" type="curve"/>
      <point x="309" y="-2" type="line"/>
      <point x="330" y="-1"/>
      <point x="353" y="0"/>
      <point x="377" y="0" type="curve" smooth="yes"/>
      <point x="397" y="0"/>
      <point x="416" y="0"/>
      <point x="436" y="0" type="curve"/>
      <point x="436" y="37" type="line"/>
      <point x="417" y="37" type="line" smooth="yes"/>
      <point x="394" y="37"/>
      <point x="382" y="34"/>
      <point x="379" y="61" type="curve"/>
      <point x="377" y="252" type="line"/>
      <point x="377" y="352"/>
      <point x="320" y="386"/>
    </contour>
    <contour>
      <point x="214" y="190" type="curve" smooth="yes"/>
      <point x="243" y="190"/>
      <point x="273" y="185"/>
      <point x="306" y="176" type="curve"/>
      <point x="306" y="134" type="line" smooth="yes"/>
      <point x="306" y="72"/>
      <point x="248" y="35"/>
      <point x="189" y="35" type="curve" smooth="yes"/>
      <point x="144" y="35"/>
      <point x="105" y="61"/>
      <point x="105" y="108" type="curve" smooth="yes"/>
      <point x="105" y="164"/>
      <point x="153" y="190"/>
    </contour>
  </outline>
</glyph>
<glyph name="b" format="1">
  <advance width="512"/>
  <unicode hex="0062"/>
  <outline>
    <contour>
      <point x="151" y="546" type="line"/>
      <point x="110" y="545"/>
      <point x="66" y="544"/>
      <point x="17" y="544" type="curve"/>
      <point x="17" y="506" type="line"/>
      <point x="50" y="505"/>
      <point x="80" y="509"/>
      <point x="80" y="483" type="curve" smooth="yes"/>
      <point x="80" y="67" type="line" smooth="yes"/>
      <point x="80" y="50"/>
      <point x="78" y="42"/>
      <point x="53" y="39" type="curve"/>
      <point x="18" y="37" type="line"/>
      <point x="18" y="0" type="line"/>
      <point x="24" y="0"/>
      <point x="66" y="0"/>
      <point x="78" y="0" type="curve" smooth="yes"/>
      <point x="103" y="-1"/>
      <point x="128" y="-1"/>
      <point x="147" y="-2" type="curve"/>
      <point x="147" y="64" type="line"/>
      <point x="181" y="15"/>
      <point x="227" y="-9"/>
      <point x="291" y="-9" type="curve" smooth="yes"/>
      <point x="405" y="-9"/>
      <point x="475" y="72"/>
      <point x="475" y="188" type="curve" smooth="yes"/>
      <point x="475" y="305"/>
      <point x="404" y="386"/>
      <point x="290" y="386" type="curve" smooth="yes"/>
      <point x="231" y="386"/>
      <point x="184" y="362"/>
      <point x="152" y="319" type="curve"/>
    </contour>
    <contour>
      <point x="276" y="343" type="curve" smooth="yes"/>
      <point x="357" y="343"/>
      <point x="402" y="277"/>
      <point x="402" y="191" type="curve" smooth="yes"/>
      <point x="402" y="102"/>
      <point x="358" y="35"/>
      <point x="275" y="35" type="curve" smooth="yes"/>
      <point x="192" y="35"/>
      <point x="147" y="98"/>
      <point x="147" y="189" type="curve" smooth="yes"/>
      <point x="147" y="279"/>
      <point x="191" y="343"/>
    </contour>
  </outline>
</glyph>
<glyph name="c" format="1">
  <advance width="426"/>
  <unicode hex="0063"/>
  <outline>
    <contour>
      <point x="219" y="386" type="curve" smooth="yes"/>
      <point x="164" y="386"/>
      <point x="119" y="363"/>
      <point x="86" y="328" type="curve" smooth="yes"/>
      <point x="53" y="292"/>
      <point x="34" y="242"/>
      <point x="34" y="186" type="curve" smooth="yes"/>
      <point x="34" y="126"/>
      <point x="53" y="76"/>
      <point x="87" y="44" type="curve" smooth="yes"/>
      <point x="121" y="11"/>
      <point x="169" y="-9"/>
      <point x="228" y="-9" type="curve" smooth="yes"/>
      <point x="272" y="-9"/>
      <point x="310" y="3"/>
      <point x="338" y="21" type="curve" smooth="yes"/>
      <point x="367" y="40"/>
      <point x="387" y="71"/>
      <point x="396" y="109" type="curve"/>
      <point x="346" y="118" type="line"/>
      <point x="331" y="63"/>
      <point x="292" y="35"/>
      <point x="236" y="35" type="curve" smooth="yes"/>
      <point x="197" y="35"/>
      <point x="165" y="51"/>
      <point x="143" y="78" type="curve" smooth="yes"/>
      <point x="121" y="105"/>
      <point x="109" y="140"/>
      <point x="109" y="189" type="curve" smooth="yes"/>
      <point x="109" y="236"/>
      <point x="120" y="275"/>
      <point x="142" y="301" type="curve" smooth="yes"/>
      <point x="164" y="328"/>
      <point x="195" y="343"/>
      <point x="235" y="343" type="curve" smooth="yes"/>
      <point x="301" y="343"/>
      <point x="340" y="310"/>
      <point x="343" y="242" type="curve"/>
      <point x="384" y="242" type="line"/>
      <point x="384" y="374" type="line"/>
      <point x="383" y="374"/>
      <point x="381" y="374"/>
      <point x="377" y="374" type="curve"/>
      <point x="373" y="374"/>
      <point x="346" y="375"/>
      <point x="345" y="375" type="curve"/>
      <point x="335" y="341" type="line"/>
      <point x="306" y="378"/>
      <point x="265" y="386"/>
    </contour>
  </outline>
</glyph>
<glyph name="d" format="1">
  <advance width="524"/>
  <unicode hex="0064"/>
  <outline>
    <contour>
      <point x="425" y="568"/>
      <point x="405" y="567"/>
      <point x="382" y="567" type="curve" smooth="yes"/>
      <point x="356" y="566"/>
      <point x="328" y="566"/>
      <point x="300" y="566" type="curve"/>
      <point x="300" y="526" type="line"/>
      <point x="355" y="524" type="line"/>
      <point x="366" y="522"/>
      <point x="371" y="518"/>
      <point x="371" y="510" type="curve" smooth="yes"/>
      <point x="370" y="331" type="line"/>
      <point x="338" y="376"/>
      <point x="289" y="401"/>
      <point x="227" y="401" type="curve" smooth="yes"/>
      <point x="110" y="401"/>
      <point x="34" y="317"/>
      <point x="34" y="194" type="curve" smooth="yes"/>
      <point x="34" y="75"/>
      <point x="107" y="-9"/>
      <point x="225" y="-9" type="curve" smooth="yes"/>
      <point x="290" y="-9"/>
      <point x="341" y="17"/>
      <point x="374" y="67" type="curve"/>
      <point x="374" y="-2" type="line"/>
      <point x="397" y="-1"/>
      <point x="421" y="0"/>
      <point x="446" y="0" type="curve" smooth="yes"/>
      <point x="467" y="0"/>
      <point x="488" y="0"/>
      <point x="509" y="0" type="curve"/>
      <point x="509" y="38" type="line"/>
      <point x="494" y="38" type="line"/>
      <point x="466" y="38"/>
      <point x="444" y="38"/>
      <point x="444" y="56" type="curve" smooth="yes"/>
      <point x="444" y="568" type="line"/>
    </contour>
    <contour>
      <point x="326" y="357"/>
      <point x="373" y="286"/>
      <point x="373" y="196" type="curve" smooth="yes"/>
      <point x="373" y="104"/>
      <point x="329" y="36"/>
      <point x="241" y="36" type="curve" smooth="yes"/>
      <point x="156" y="36"/>
      <point x="109" y="105"/>
      <point x="109" y="197" type="curve" smooth="yes"/>
      <point x="109" y="286"/>
      <point x="157" y="357"/>
      <point x="240" y="357" type="curve" smooth="yes"/>
    </contour>
  </outline>
</glyph>
<glyph name="e" format="1">
  <advance width="463"/>
  <unicode hex="0065"/>
  <outline>
    <contour>
      <point x="234" y="386" type="curve" smooth="yes"/>
      <point x="113" y="386"/>
      <point x="34" y="308"/>
      <point x="34" y="187" type="curve" smooth="yes"/>
      <point x="34" y="67"/>
      <point x="115" y="-9"/>
      <point x="238" y="-9" type="curve" smooth="yes"/>
      <point x="332" y="-9"/>
      <point x="400" y="30"/>
      <point x="425" y="101" type="curve"/>
      <point x="374" y="109" type="line"/>
      <point x="351" y="59"/>
      <point x="306" y="35"/>
      <point x="248" y="35" type="curve" smooth="yes"/>
      <point x="163" y="35"/>
      <point x="107" y="88"/>
      <point x="107" y="176" type="curve"/>
      <point x="430" y="176" type="line"/>
      <point x="429" y="306"/>
      <point x="361" y="386"/>
    </contour>
    <contour>
      <point x="234" y="343" type="curve" smooth="yes"/>
      <point x="309" y="343"/>
      <point x="352" y="304"/>
      <point x="362" y="213" type="curve"/>
      <point x="107" y="213" type="line"/>
      <point x="116" y="290"/>
      <point x="160" y="343"/>
    </contour>
  </outline>
</glyph>
<glyph name="f" format="1">
  <advance width="267"/>
  <unicode hex="0066"/>
  <outline>
    <contour>
      <point x="135" y="576"/>
      <point x="88" y="536"/>
      <point x="88" y="443" type="curve" smooth="yes"/>
      <point x="88" y="392" type="line"/>
      <point x="23" y="392" type="line"/>
      <point x="23" y="353" type="line"/>
      <point x="88" y="353" type="line"/>
      <point x="88" y="69" type="line" smooth="yes"/>
      <point x="88" y="34"/>
      <point x="61" y="38"/>
      <point x="27" y="38" type="curve"/>
      <point x="27" y="0" type="line"/>
      <point x="47" y="0"/>
      <point x="102" y="1"/>
      <point x="122" y="1" type="curve" smooth="yes"/>
      <point x="134" y="1"/>
      <point x="225" y="0"/>
      <point x="237" y="0" type="curve"/>
      <point x="237" y="38" type="line"/>
      <point x="194" y="38"/>
      <point x="162" y="34"/>
      <point x="162" y="68" type="curve" smooth="yes"/>
      <point x="162" y="353" type="line"/>
      <point x="258" y="353" type="line"/>
      <point x="258" y="392" type="line"/>
      <point x="162" y="392" type="line"/>
      <point x="162" y="422" type="line" smooth="yes"/>
      <point x="162" y="489"/>
      <point x="161" y="534"/>
      <point x="224" y="534" type="curve" smooth="yes"/>
      <point x="257" y="534"/>
      <point x="276" y="513"/>
      <point x="281" y="476" type="curve"/>
      <point x="316" y="479" type="line"/>
      <point x="316" y="561" type="line"/>
      <point x="288" y="571"/>
      <point x="253" y="576"/>
      <point x="217" y="576" type="curve" smooth="yes"/>
    </contour>
  </outline>
</glyph>
<glyph name="g" format="1">
  <advance width="521"/>
  <unicode hex="0067"/>
  <outline>
    <contour>
      <point x="112" y="401"/>
      <point x="36" y="316"/>
      <point x="36" y="198" type="curve" smooth="yes"/>
      <point x="36" y="80"/>
      <point x="110" y="0"/>
      <point x="228" y="0" type="curve" smooth="yes"/>
      <point x="291" y="0"/>
      <point x="343" y="25"/>
      <point x="376" y="72" type="curve"/>
      <point x="376" y="-9" type="line" smooth="yes"/>
      <point x="376" y="-98"/>
      <point x="321" y="-142"/>
      <point x="237" y="-142" type="curve" smooth="yes"/>
      <point x="167" y="-142"/>
      <point x="126" y="-124"/>
      <point x="115" y="-54" type="curve"/>
      <point x="75" y="-54" type="line"/>
      <point x="72" y="-147" type="line"/>
      <point x="120" y="-174"/>
      <point x="175" y="-186"/>
      <point x="237" y="-186" type="curve" smooth="yes"/>
      <point x="381" y="-186"/>
      <point x="449" y="-126"/>
      <point x="449" y="27" type="curve" smooth="yes"/>
      <point x="449" y="319" type="line" smooth="yes"/>
      <point x="449" y="340"/>
      <point x="450" y="348"/>
      <point x="477" y="352" type="curve" smooth="yes"/>
      <point x="487" y="353"/>
      <point x="499" y="353"/>
      <point x="515" y="353" type="curve"/>
      <point x="515" y="392" type="line"/>
      <point x="506" y="392"/>
      <point x="471" y="391"/>
      <point x="460" y="391" type="curve" smooth="yes"/>
      <point x="433" y="391"/>
      <point x="408" y="392"/>
      <point x="382" y="393" type="curve"/>
      <point x="382" y="321" type="line"/>
      <point x="345" y="374"/>
      <point x="294" y="401"/>
      <point x="229" y="401" type="curve" smooth="yes"/>
    </contour>
    <contour>
      <point x="328" y="357"/>
      <point x="379" y="291"/>
      <point x="379" y="201" type="curve" smooth="yes"/>
      <point x="379" y="111"/>
      <point x="330" y="44"/>
      <point x="245" y="44" type="curve" smooth="yes"/>
      <point x="159" y="44"/>
      <point x="112" y="108"/>
      <point x="112" y="198" type="curve" smooth="yes"/>
      <point x="112" y="287"/>
      <point x="159" y="357"/>
      <point x="244" y="357" type="curve" smooth="yes"/>
    </contour>
  </outline>
</glyph>
<glyph name="h" format="1">
  <advance width="513"/>
  <unicode hex="0068"/>
  <outline>
    <contour>
      <point x="25" y="564"/>
      <point x="145" y="566"/>
      <point x="20" y="566" type="curve"/>
      <point x="20" y="526" type="line"/>
      <point x="55" y="526" type="line"/>
      <point x="76" y="526"/>
      <point x="84" y="518"/>
      <point x="84" y="510" type="curve" smooth="yes"/>
      <point x="84" y="60" type="line" smooth="yes"/>
      <point x="84" y="34"/>
      <point x="45" y="38"/>
      <point x="17" y="38" type="curve"/>
      <point x="17" y="0" type="line"/>
      <point x="25" y="0"/>
      <point x="107" y="1"/>
      <point x="118" y="1" type="curve" smooth="yes"/>
      <point x="139" y="0"/>
      <point x="215" y="0"/>
      <point x="224" y="0" type="curve"/>
      <point x="224" y="38" type="line"/>
      <point x="186" y="38"/>
      <point x="157" y="34"/>
      <point x="157" y="58" type="curve" smooth="yes"/>
      <point x="157" y="281" type="line"/>
      <point x="181" y="321"/>
      <point x="230" y="357"/>
      <point x="284" y="357" type="curve" smooth="yes"/>
      <point x="356" y="357"/>
      <point x="365" y="313"/>
      <point x="365" y="233" type="curve" smooth="yes"/>
      <point x="365" y="63" type="line" smooth="yes"/>
      <point x="365" y="38"/>
      <point x="338" y="40"/>
      <point x="298" y="38" type="curve"/>
      <point x="298" y="0" type="line"/>
      <point x="314" y="0"/>
      <point x="380" y="1"/>
      <point x="400" y="1" type="curve" smooth="yes"/>
      <point x="421" y="0"/>
      <point x="493" y="0"/>
      <point x="501" y="0" type="curve"/>
      <point x="501" y="38" type="line"/>
      <point x="483" y="38" type="line"/>
      <point x="456" y="38"/>
      <point x="439" y="42"/>
      <point x="439" y="66" type="curve" smooth="yes"/>
      <point x="439" y="201" type="line" smooth="yes"/>
      <point x="439" y="324"/>
      <point x="427" y="401"/>
      <point x="312" y="401" type="curve" smooth="yes"/>
      <point x="250" y="401"/>
      <point x="200" y="383"/>
      <point x="157" y="338" type="curve"/>
      <point x="157" y="568" type="line"/>
    </contour>
  </outline>
</glyph>
<glyph name="j" format="1">
  <advance width="239"/>
  <unicode hex="006A"/>
  <outline>
    <contour>
      <point x="145" y="393"/>
      <point x="122" y="392"/>
      <point x="100" y="392" type="curve" smooth="yes"/>
      <point x="78" y="392"/>
      <point x="53" y="392"/>
      <point x="28" y="392" type="curve"/>
      <point x="28" y="353" type="line"/>
      <point x="64" y="353"/>
      <point x="93" y="355"/>
      <point x="93" y="328" type="curve" smooth="yes"/>
      <point x="93" y="37" type="line" smooth="yes"/>
      <point x="93" y="-56"/>
      <point x="99" y="-136"/>
      <point x="26" y="-136" type="curve" smooth="yes"/>
      <point x="5" y="-136"/>
      <point x="-5" y="-127"/>
      <point x="-9" y="-94" type="curve"/>
      <point x="-44" y="-92" type="line"/>
      <point x="-44" y="-170" type="line"/>
      <point x="-20" y="-177"/>
      <point x="5" y="-178"/>
      <point x="30" y="-178" type="curve" smooth="yes"/>
      <point x="166" y="-178"/>
      <point x="166" y="-80"/>
      <point x="166" y="36" type="curve" smooth="yes"/>
      <point x="166" y="394" type="line"/>
    </contour>
    <contour>
      <point x="90" y="576"/>
      <point x="73" y="561"/>
      <point x="73" y="536" type="curve" smooth="yes"/>
      <point x="73" y="510"/>
      <point x="90" y="494"/>
      <point x="120" y="494" type="curve" smooth="yes"/>
      <point x="150" y="494"/>
      <point x="167" y="510"/>
      <point x="167" y="536" type="curve" smooth="yes"/>
      <point x="167" y="562"/>
      <point x="150" y="576"/>
      <point x="120" y="576" type="curve" smooth="yes"/>
    </contour>
  </outline>
</glyph>
<glyph name="k" format="1">
  <advance width="460"/>
  <unicode hex="006B"/>
  <outline>
    <contour>
      <point x="19" y="544" type="line"/>
      <point x="19" y="506" type="line"/>
      <point x="51" y="506"/>
      <point x="82" y="509"/>
      <point x="82" y="485" type="curve" smooth="yes"/>
      <point x="82" y="66" type="line" smooth="yes"/>
      <point x="82" y="37"/>
      <point x="56" y="38"/>
      <point x="17" y="37" type="curve"/>
      <point x="17" y="0" type="line"/>
      <point x="24" y="0"/>
      <point x="98" y="0"/>
      <point x="107" y="1" type="curve"/>
      <point x="123" y="1"/>
      <point x="194" y="0"/>
      <point x="218" y="0" type="curve"/>
      <point x="218" y="37" type="line"/>
      <point x="176" y="37"/>
      <point x="152" y="36"/>
      <point x="152" y="66" type="curve" smooth="yes"/>
      <point x="152" y="169" type="line"/>
      <point x="170" y="181" type="line"/>
      <point x="306" y="56" type="line"/>
      <point x="310" y="51"/>
      <point x="312" y="47"/>
      <point x="312" y="44" type="curve" smooth="yes"/>
      <point x="312" y="41"/>
      <point x="309" y="39"/>
      <point x="303" y="38" type="curve" smooth="yes"/>
      <point x="296" y="38"/>
      <point x="285" y="37"/>
      <point x="271" y="37" type="curve"/>
      <point x="271" y="0" type="line"/>
      <point x="280" y="0"/>
      <point x="365" y="1"/>
      <point x="376" y="1" type="curve" smooth="yes"/>
      <point x="392" y="1"/>
      <point x="447" y="0"/>
      <point x="461" y="0" type="curve"/>
      <point x="461" y="37" type="line"/>
      <point x="441" y="37" type="line"/>
      <point x="422" y="37"/>
      <point x="408" y="40"/>
      <point x="388" y="59" type="curve" smooth="yes"/>
      <point x="224" y="210" type="line"/>
      <point x="342" y="298" type="line" smooth="yes"/>
      <point x="381" y="327"/>
      <point x="394" y="338"/>
      <point x="421" y="339" type="curve"/>
      <point x="443" y="339" type="line"/>
      <point x="443" y="377" type="line"/>
      <point x="400" y="376"/>
      <point x="369" y="376"/>
      <point x="338" y="376" type="curve" smooth="yes"/>
      <point x="319" y="376"/>
      <point x="296" y="376"/>
      <point x="267" y="377" type="curve"/>
      <point x="266" y="339" type="line"/>
      <point x="272" y="339"/>
      <point x="277" y="339"/>
      <point x="282" y="339" type="curve" smooth="yes"/>
      <point x="295" y="339"/>
      <point x="308" y="338"/>
      <point x="308" y="333" type="curve" smooth="yes"/>
      <point x="308" y="328"/>
      <point x="294" y="314"/>
      <point x="266" y="294" type="curve" smooth="yes"/>
      <point x="152" y="209" type="line"/>
      <point x="152" y="546" type="line"/>
    </contour>
  </outline>
</glyph>
<glyph name="l" format="1">
  <advance width="241"/>
  <unicode hex="006C"/>
  <outline>
    <contour>
      <point x="106" y="566"/>
      <point x="66" y="566"/>
      <point x="20" y="566" type="curve"/>
      <point x="20" y="526" type="line"/>
      <point x="52" y="525"/>
      <point x="83" y="528"/>
      <point x="83" y="504" type="curve" smooth="yes"/>
      <point x="83" y="75" type="line" smooth="yes"/>
      <point x="83" y="35"/>
      <point x="57" y="38"/>
      <point x="18" y="38" type="curve"/>
      <point x="18" y="0" type="line"/>
      <point x="49" y="0"/>
      <point x="109" y="1"/>
      <point x="120" y="1" type="curve" smooth="yes"/>
      <point x="141" y="0"/>
      <point x="216" y="0"/>
      <point x="225" y="0" type="curve"/>
      <point x="225" y="38" type="line"/>
      <point x="186" y="38"/>
      <point x="157" y="37"/>
      <point x="157" y="70" type="curve" smooth="yes"/>
      <point x="157" y="568" type="line"/>
    </contour>
  </outline>
</glyph>
<glyph name="m" format="1">
  <advance width="750"/>
  <unicode hex="006D"/>
  <outline>
    <contour>
      <point x="556" y="386" type="curve" smooth="yes"/>
      <point x="499" y="386"/>
      <point x="448" y="360"/>
      <point x="407" y="314" type="curve"/>
      <point x="387" y="361"/>
      <point x="346" y="386"/>
      <point x="296" y="386" type="curve" smooth="yes"/>
      <point x="236" y="385"/>
      <point x="185" y="360"/>
      <point x="148" y="316" type="curve"/>
      <point x="148" y="378" type="line"/>
      <point x="99" y="377"/>
      <point x="56" y="377"/>
      <point x="21" y="377" type="curve"/>
      <point x="21" y="339" type="line"/>
      <point x="53" y="339"/>
      <point x="81" y="343"/>
      <point x="81" y="320" type="curve" smooth="yes"/>
      <point x="81" y="61" type="line" smooth="yes"/>
      <point x="81" y="34"/>
      <point x="47" y="37"/>
      <point x="19" y="37" type="curve"/>
      <point x="19" y="0" type="line"/>
      <point x="34" y="0"/>
      <point x="99" y="1"/>
      <point x="120" y="1" type="curve" smooth="yes"/>
      <point x="140" y="0"/>
      <point x="208" y="0"/>
      <point x="215" y="0" type="curve"/>
      <point x="215" y="37" type="line"/>
      <point x="177" y="38" type="line"/>
      <point x="159" y="38"/>
      <point x="152" y="45"/>
      <point x="152" y="61" type="curve"/>
      <point x="152" y="226" type="line"/>
      <point x="152" y="242"/>
      <point x="152" y="259"/>
      <point x="152" y="275" type="curve"/>
      <point x="187" y="313"/>
      <point x="217" y="343"/>
      <point x="269" y="343" type="curve" smooth="yes"/>
      <point x="335" y="343"/>
      <point x="344" y="296"/>
      <point x="344" y="224" type="curve" smooth="yes"/>
      <point x="344" y="61" type="line" smooth="yes"/>
      <point x="344" y="36"/>
      <point x="318" y="38"/>
      <point x="281" y="37" type="curve"/>
      <point x="281" y="0" type="line"/>
      <point x="289" y="0"/>
      <point x="372" y="1"/>
      <point x="383" y="1" type="curve" smooth="yes"/>
      <point x="402" y="0"/>
      <point x="467" y="0"/>
      <point x="474" y="0" type="curve"/>
      <point x="474" y="37" type="line"/>
      <point x="440" y="38"/>
      <point x="415" y="35"/>
      <point x="415" y="58" type="curve" smooth="yes"/>
      <point x="415" y="212" type="line" smooth="yes"/>
      <point x="415" y="234"/>
      <point x="415" y="254"/>
      <point x="416" y="274" type="curve"/>
      <point x="443" y="310"/>
      <point x="482" y="343"/>
      <point x="530" y="343" type="curve" smooth="yes"/>
      <point x="597" y="343"/>
      <point x="606" y="299"/>
      <point x="606" y="224" type="curve" smooth="yes"/>
      <point x="606" y="62" type="line" smooth="yes"/>
      <point x="606" y="37"/>
      <point x="580" y="39"/>
      <point x="543" y="38" type="curve"/>
      <point x="543" y="0" type="line"/>
      <point x="576" y="0"/>
      <point x="610" y="0"/>
      <point x="643" y="0" type="curve"/>
      <point x="674" y="0"/>
      <point x="705" y="0"/>
      <point x="736" y="0" type="curve"/>
      <point x="737" y="38" type="line"/>
      <point x="707" y="39" type="line"/>
      <point x="691" y="40"/>
      <point x="677" y="40"/>
      <point x="677" y="57" type="curve" smooth="yes"/>
      <point x="677" y="211" type="line" smooth="yes"/>
      <point x="676" y="316"/>
      <point x="660" y="384"/>
    </contour>
  </outline>
</glyph>
<glyph name="n" format="1">
  <advance width="509"/>
  <unicode hex="006E"/>
  <outline>
    <contour>
      <point x="246" y="401"/>
      <point x="193" y="378"/>
      <point x="154" y="333" type="curve"/>
      <point x="154" y="394" type="line"/>
      <point x="111" y="392"/>
      <point x="70" y="392"/>
      <point x="18" y="392" type="curve"/>
      <point x="18" y="353" type="line"/>
      <point x="53" y="353"/>
      <point x="83" y="358"/>
      <point x="83" y="338" type="curve" smooth="yes"/>
      <point x="83" y="61" type="line" smooth="yes"/>
      <point x="83" y="33"/>
      <point x="45" y="38"/>
      <point x="16" y="38" type="curve"/>
      <point x="16" y="0" type="line"/>
      <point x="31" y="0"/>
      <point x="102" y="1"/>
      <point x="124" y="1" type="curve" smooth="yes"/>
      <point x="145" y="0"/>
      <point x="215" y="0"/>
      <point x="223" y="0" type="curve"/>
      <point x="223" y="38" type="line"/>
      <point x="187" y="38"/>
      <point x="156" y="35"/>
      <point x="156" y="59" type="curve" smooth="yes"/>
      <point x="156" y="218" type="line" smooth="yes"/>
      <point x="156" y="241"/>
      <point x="156" y="263"/>
      <point x="157" y="285" type="curve"/>
      <point x="186" y="321"/>
      <point x="228" y="356"/>
      <point x="283" y="357" type="curve" smooth="yes"/>
      <point x="354" y="356"/>
      <point x="363" y="308"/>
      <point x="363" y="233" type="curve" smooth="yes"/>
      <point x="363" y="59" type="line" smooth="yes"/>
      <point x="363" y="34"/>
      <point x="324" y="38"/>
      <point x="296" y="38" type="curve"/>
      <point x="296" y="0" type="line"/>
      <point x="313" y="0"/>
      <point x="383" y="1"/>
      <point x="405" y="1" type="curve" smooth="yes"/>
      <point x="425" y="0"/>
      <point x="491" y="0"/>
      <point x="498" y="0" type="curve"/>
      <point x="498" y="38" type="line"/>
      <point x="479" y="40"/>
      <point x="437" y="33"/>
      <point x="437" y="57" type="curve" smooth="yes"/>
      <point x="437" y="258" type="line" smooth="yes"/>
      <point x="437" y="358"/>
      <point x="390" y="401"/>
      <point x="305" y="401" type="curve" smooth="yes"/>
    </contour>
  </outline>
</glyph>
<glyph name="o" format="1">
  <advance width="488"/>
  <unicode hex="006F"/>
  <outline>
    <contour>
      <point x="120" y="401"/>
      <point x="35" y="320"/>
      <point x="35" y="196" type="curve" smooth="yes"/>
      <point x="35" y="75"/>
      <point x="120" y="-9"/>
      <point x="243" y="-9" type="curve" smooth="yes"/>
      <point x="367" y="-9"/>
      <point x="453" y="74"/>
      <point x="453" y="196" type="curve" smooth="yes"/>
      <point x="453" y="320"/>
      <point x="368" y="401"/>
      <point x="243" y="401" type="curve" smooth="yes"/>
    </contour>
    <contour>
      <point x="331" y="357"/>
      <point x="376" y="288"/>
      <point x="376" y="197" type="curve" smooth="yes"/>
      <point x="376" y="107"/>
      <point x="330" y="36"/>
      <point x="243" y="36" type="curve" smooth="yes"/>
      <point x="158" y="36"/>
      <point x="111" y="107"/>
      <point x="111" y="197" type="curve" smooth="yes"/>
      <point x="111" y="288"/>
      <point x="157" y="357"/>
      <point x="243" y="357" type="curve" smooth="yes"/>
    </contour>
  </outline>
</glyph>
<glyph name="p" format="1">
  <advance width="503"/>
  <unicode hex="0070"/>
  <outline>
    <contour>
      <point x="285" y="385" type="curve" smooth="yes"/>
      <point x="220" y="385"/>
      <point x="169" y="357"/>
      <point x="141" y="309" type="curve"/>
      <point x="140" y="379" type="line"/>
      <point x="99" y="376"/>
      <point x="55" y="377"/>
      <point x="13" y="377" type="curve"/>
      <point x="13" y="339" type="line"/>
      <point x="43" y="339"/>
      <point x="73" y="342"/>
      <point x="73" y="322" type="curve" smooth="yes"/>
      <point x="73" y="-106" type="line" smooth="yes"/>
      <point x="73" y="-135"/>
      <point x="39" y="-131"/>
      <point x="9" y="-132" type="curve"/>
      <point x="9" y="-170" type="line"/>
      <point x="15" y="-170"/>
      <point x="104" y="-170"/>
      <point x="110" y="-170" type="curve" smooth="yes"/>
      <point x="112" y="-170"/>
      <point x="210" y="-170"/>
      <point x="213" y="-170" type="curve"/>
      <point x="213" y="-132" type="line"/>
      <point x="199" y="-132" type="line" smooth="yes"/>
      <point x="164" y="-132"/>
      <point x="144" y="-136"/>
      <point x="144" y="-108" type="curve" smooth="yes"/>
      <point x="144" y="59" type="line"/>
      <point x="175" y="15"/>
      <point x="222" y="-9"/>
      <point x="284" y="-9" type="curve" smooth="yes"/>
      <point x="397" y="-9"/>
      <point x="467" y="74"/>
      <point x="467" y="191" type="curve" smooth="yes"/>
      <point x="467" y="304"/>
      <point x="396" y="385"/>
    </contour>
    <contour>
      <point x="266" y="339" type="curve" smooth="yes"/>
      <point x="350" y="339"/>
      <point x="396" y="277"/>
      <point x="396" y="188" type="curve" smooth="yes"/>
      <point x="396" y="98"/>
      <point x="352" y="35"/>
      <point x="268" y="35" type="curve" smooth="yes"/>
      <point x="187" y="35"/>
      <point x="140" y="100"/>
      <point x="140" y="189" type="curve" smooth="yes"/>
      <point x="140" y="276"/>
      <point x="184" y="339"/>
    </contour>
  </outline>
</glyph>
<glyph name="q" format="1">
  <advance width="503"/>
  <unicode hex="0071"/>
  <outline>
    <contour>
      <point x="220" y="386" type="curve" smooth="yes"/>
      <point x="108" y="386"/>
      <point x="37" y="306"/>
      <point x="37" y="191" type="curve" smooth="yes"/>
      <point x="37" y="74"/>
      <point x="107" y="-9"/>
      <point x="220" y="-9" type="curve" smooth="yes"/>
      <point x="282" y="-9"/>
      <point x="328" y="13"/>
      <point x="359" y="59" type="curve"/>
      <point x="360" y="-107" type="line"/>
      <point x="360" y="-139"/>
      <point x="338" y="-132"/>
      <point x="306" y="-132" type="curve" smooth="yes"/>
      <point x="290" y="-132" type="line"/>
      <point x="290" y="-170" type="line"/>
      <point x="293" y="-170"/>
      <point x="386" y="-170"/>
      <point x="388" y="-170" type="curve" smooth="yes"/>
      <point x="389" y="-170"/>
      <point x="490" y="-170"/>
      <point x="495" y="-170" type="curve"/>
      <point x="495" y="-132" type="line"/>
      <point x="466" y="-131"/>
      <point x="431" y="-140"/>
      <point x="431" y="-105" type="curve" smooth="yes"/>
      <point x="431" y="309" type="line" smooth="yes"/>
      <point x="431" y="338"/>
      <point x="452" y="341"/>
      <point x="493" y="339" type="curve"/>
      <point x="493" y="377" type="line"/>
      <point x="452" y="377"/>
      <point x="404" y="376"/>
      <point x="364" y="379" type="curve"/>
      <point x="363" y="310" type="line"/>
      <point x="333" y="358"/>
      <point x="282" y="386"/>
    </contour>
    <contour>
      <point x="238" y="343" type="curve" smooth="yes"/>
      <point x="319" y="343"/>
      <point x="364" y="277"/>
      <point x="364" y="188" type="curve" smooth="yes"/>
      <point x="364" y="101"/>
      <point x="320" y="35"/>
      <point x="236" y="35" type="curve" smooth="yes"/>
      <point x="156" y="35"/>
      <point x="108" y="99"/>
      <point x="108" y="187" type="curve" smooth="yes"/>
      <point x="108" y="275"/>
      <point x="152" y="343"/>
    </contour>
  </outline>
</glyph>
<glyph name="r" format="1">
  <advance width="360"/>
  <unicode hex="0072"/>
  <outline>
    <contour>
      <point x="239" y="401"/>
      <point x="188" y="368"/>
      <point x="160" y="314" type="curve"/>
      <point x="160" y="393" type="line"/>
      <point x="106" y="391"/>
      <point x="75" y="392"/>
      <point x="24" y="392" type="curve"/>
      <point x="24" y="353" type="line"/>
      <point x="63" y="353"/>
      <point x="89" y="359"/>
      <point x="89" y="333" type="curve" smooth="yes"/>
      <point x="89" y="68" type="line" smooth="yes"/>
      <point x="89" y="32"/>
      <point x="55" y="38"/>
      <point x="22" y="38" type="curve"/>
      <point x="22" y="0" type="line"/>
      <point x="29" y="0"/>
      <point x="110" y="1"/>
      <point x="121" y="1" type="curve" smooth="yes"/>
      <point x="133" y="1"/>
      <point x="228" y="0"/>
      <point x="238" y="0" type="curve"/>
      <point x="238" y="38" type="line"/>
      <point x="197" y="38"/>
      <point x="163" y="45"/>
      <point x="163" y="83" type="curve"/>
      <point x="164" y="124"/>
      <point x="164" y="163"/>
      <point x="164" y="205" type="curve"/>
      <point x="165" y="278"/>
      <point x="199" y="346"/>
      <point x="263" y="346" type="curve" smooth="yes"/>
      <point x="293" y="346"/>
      <point x="309" y="338"/>
      <point x="321" y="310" type="curve"/>
      <point x="347" y="310" type="line"/>
      <point x="347" y="399" type="line"/>
      <point x="334" y="401"/>
      <point x="320" y="401"/>
      <point x="308" y="401" type="curve" smooth="yes"/>
    </contour>
  </outline>
</glyph>
<glyph name="s" format="1">
  <advance width="390"/>
  <unicode hex="0073"/>
  <outline>
    <contour>
      <point x="181" y="386" type="curve" smooth="yes"/>
      <point x="107" y="386"/>
      <point x="46" y="346"/>
      <point x="46" y="280" type="curve" smooth="yes"/>
      <point x="46" y="214"/>
      <point x="94" y="191"/>
      <point x="166" y="169" type="curve" smooth="yes"/>
      <point x="218" y="153"/>
      <point x="288" y="141"/>
      <point x="288" y="92" type="curve" smooth="yes"/>
      <point x="288" y="50"/>
      <point x="242" y="31"/>
      <point x="191" y="31" type="curve" smooth="yes"/>
      <point x="124" y="31"/>
      <point x="83" y="60"/>
      <point x="80" y="125" type="curve"/>
      <point x="39" y="125" type="line"/>
      <point x="39" y="0" type="line"/>
      <point x="76" y="0" type="line"/>
      <point x="80" y="35" type="line"/>
      <point x="105" y="5"/>
      <point x="142" y="-9"/>
      <point x="201" y="-9" type="curve" smooth="yes"/>
      <point x="285" y="-9"/>
      <point x="354" y="25"/>
      <point x="354" y="102" type="curve" smooth="yes"/>
      <point x="354" y="180"/>
      <point x="287" y="201"/>
      <point x="205" y="222" type="curve" smooth="yes"/>
      <point x="159" y="234"/>
      <point x="110" y="248"/>
      <point x="110" y="287" type="curve" smooth="yes"/>
      <point x="110" y="326"/>
      <point x="146" y="348"/>
      <point x="193" y="348" type="curve" smooth="yes"/>
      <point x="259" y="348"/>
      <point x="295" y="316"/>
      <point x="297" y="260" type="curve"/>
      <point x="337" y="260" type="line"/>
      <point x="337" y="377" type="line"/>
      <point x="305" y="377" type="line"/>
      <point x="296" y="347" type="line"/>
      <point x="271" y="373"/>
      <point x="227" y="386"/>
    </contour>
  </outline>
</glyph>
<glyph name="t" format="1">
  <advance width="276"/>
  <unicode hex="0074"/>
  <outline>
    <contour>
      <point x="91" y="472" type="line"/>
      <point x="82" y="378" type="line"/>
      <point x="6" y="373" type="line"/>
      <point x="6" y="339" type="line"/>
      <point x="75" y="339" type="line"/>
      <point x="75" y="125" type="line" smooth="yes"/>
      <point x="75" y="45"/>
      <point x="90" y="-9"/>
      <point x="169" y="-9" type="curve" smooth="yes"/>
      <point x="222" y="-9"/>
      <point x="255" y="26"/>
      <point x="255" y="85" type="curve"/>
      <point x="216" y="81" type="line"/>
      <point x="216" y="53"/>
      <point x="206" y="35"/>
      <point x="184" y="35" type="curve" smooth="yes"/>
      <point x="142" y="35"/>
      <point x="145" y="77"/>
      <point x="145" y="128" type="curve" smooth="yes"/>
      <point x="145" y="339" type="line"/>
      <point x="246" y="339" type="line"/>
      <point x="246" y="377" type="line"/>
      <point x="145" y="377" type="line"/>
      <point x="145" y="483" type="line"/>
    </contour>
  </outline>
</glyph>
<glyph name="u" format="1">
  <advance width="513"/>
  <unicode hex="0075"/>
  <outline>
    <contour>
      <point x="387" y="391"/>
      <point x="340" y="391"/>
      <point x="295" y="391" type="curve"/>
      <point x="295" y="353" type="line"/>
      <point x="343" y="353"/>
      <point x="360" y="360"/>
      <point x="360" y="321" type="curve"/>
      <point x="360" y="138" type="line"/>
      <point x="360" y="128"/>
      <point x="360" y="116"/>
      <point x="359" y="106" type="curve"/>
      <point x="333" y="61"/>
      <point x="288" y="36"/>
      <point x="230" y="36" type="curve" smooth="yes"/>
      <point x="161" y="36"/>
      <point x="154" y="88"/>
      <point x="154" y="162" type="curve" smooth="yes"/>
      <point x="154" y="393" type="line"/>
      <point x="100" y="392"/>
      <point x="76" y="391"/>
      <point x="18" y="391" type="curve"/>
      <point x="18" y="353" type="line"/>
      <point x="62" y="353"/>
      <point x="80" y="360"/>
      <point x="80" y="323" type="curve" smooth="yes"/>
      <point x="80" y="185" type="line" smooth="yes"/>
      <point x="80" y="66"/>
      <point x="92" y="-9"/>
      <point x="207" y="-9" type="curve" smooth="yes"/>
      <point x="268" y="-9"/>
      <point x="322" y="12"/>
      <point x="363" y="57" type="curve"/>
      <point x="363" y="-2" type="line"/>
      <point x="402" y="0"/>
      <point x="443" y="0"/>
      <point x="496" y="0" type="curve"/>
      <point x="496" y="38" type="line"/>
      <point x="458" y="38"/>
      <point x="434" y="35"/>
      <point x="434" y="61" type="curve" smooth="yes"/>
      <point x="434" y="394" type="line"/>
    </contour>
  </outline>
</glyph>
<glyph name="v" format="1">
  <advance width="461"/>
  <unicode hex="0076"/>
  <outline>
    <contour>
      <point x="456" y="377" type="line"/>
      <point x="415" y="377"/>
      <point x="402" y="376"/>
      <point x="362" y="376" type="curve" smooth="yes"/>
      <point x="328" y="376"/>
      <point x="321" y="377"/>
      <point x="284" y="377" type="curve"/>
      <point x="284" y="339" type="line"/>
      <point x="315" y="339"/>
      <point x="341" y="342"/>
      <point x="342" y="322" type="curve"/>
      <point x="341" y="313"/>
      <point x="338" y="301"/>
      <point x="331" y="286" type="curve"/>
      <point x="238" y="45" type="line"/>
      <point x="139" y="295" type="line"/>
      <point x="132" y="315"/>
      <point x="131" y="319"/>
      <point x="131" y="323" type="curve"/>
      <point x="132" y="341"/>
      <point x="158" y="339"/>
      <point x="191" y="339" type="curve"/>
      <point x="191" y="377" type="line"/>
      <point x="170" y="377"/>
      <point x="102" y="376"/>
      <point x="89" y="376" type="curve" smooth="yes"/>
      <point x="76" y="376"/>
      <point x="19" y="377"/>
      <point x="4" y="377" type="curve"/>
      <point x="5" y="339" type="line"/>
      <point x="50" y="339"/>
      <point x="50" y="341"/>
      <point x="68" y="300" type="curve" smooth="yes"/>
      <point x="197" y="-5" type="line"/>
      <point x="267" y="-5" type="line"/>
      <point x="400" y="314" type="line"/>
      <point x="410" y="338"/>
      <point x="424" y="339"/>
      <point x="456" y="339" type="curve"/>
    </contour>
  </outline>
</glyph>
<glyph name="w" format="1">
  <advance width="699"/>
  <unicode hex="0077"/>
  <outline>
    <contour>
      <point x="679" y="392"/>
      <point x="621" y="391"/>
      <point x="607" y="391" type="curve" smooth="yes"/>
      <point x="595" y="391"/>
      <point x="544" y="392"/>
      <point x="532" y="392" type="curve"/>
      <point x="532" y="353" type="line"/>
      <point x="557" y="353"/>
      <point x="583" y="355"/>
      <point x="584" y="343" type="curve"/>
      <point x="583" y="336"/>
      <point x="582" y="330"/>
      <point x="578" y="318" type="curve"/>
      <point x="496" y="49" type="line"/>
      <point x="401" y="360" type="line"/>
      <point x="309" y="360" type="line"/>
      <point x="211" y="52" type="line"/>
      <point x="136" y="293" type="line"/>
      <point x="132" y="310"/>
      <point x="129" y="326"/>
      <point x="129" y="337" type="curve" smooth="yes"/>
      <point x="129" y="349"/>
      <point x="132" y="353"/>
      <point x="146" y="353" type="curve" smooth="yes"/>
      <point x="149" y="353"/>
      <point x="160" y="353"/>
      <point x="178" y="353" type="curve"/>
      <point x="178" y="392" type="line"/>
      <point x="160" y="392"/>
      <point x="100" y="391"/>
      <point x="89" y="391" type="curve" smooth="yes"/>
      <point x="67" y="391"/>
      <point x="36" y="391"/>
      <point x="6" y="392" type="curve"/>
      <point x="6" y="353" type="line"/>
      <point x="50" y="353"/>
      <point x="50" y="349"/>
      <point x="64" y="306" type="curve" smooth="yes"/>
      <point x="168" y="-5" type="line"/>
      <point x="245" y="-5" type="line"/>
      <point x="349" y="329" type="line"/>
      <point x="453" y="-5" type="line"/>
      <point x="529" y="-5" type="line"/>
      <point x="635" y="318" type="line"/>
      <point x="645" y="349"/>
      <point x="651" y="353"/>
      <point x="693" y="353" type="curve"/>
      <point x="693" y="392" type="line"/>
    </contour>
  </outline>
</glyph>
<glyph name="x" format="1">
  <advance width="464"/>
  <unicode hex="0078"/>
  <outline>
    <contour>
      <point x="437" y="377" type="line"/>
      <point x="403" y="376"/>
      <point x="380" y="376"/>
      <point x="354" y="376" type="curve" smooth="yes"/>
      <point x="343" y="376"/>
      <point x="296" y="377"/>
      <point x="282" y="377" type="curve"/>
      <point x="281" y="346" type="line"/>
      <point x="300" y="346"/>
      <point x="319" y="346"/>
      <point x="319" y="335" type="curve" smooth="yes"/>
      <point x="319" y="330"/>
      <point x="316" y="325"/>
      <point x="311" y="318" type="curve"/>
      <point x="235" y="227" type="line"/>
      <point x="150" y="324" type="line"/>
      <point x="147" y="328"/>
      <point x="144" y="332"/>
      <point x="144" y="336" type="curve" smooth="yes"/>
      <point x="144" y="346"/>
      <point x="167" y="345"/>
      <point x="187" y="346" type="curve"/>
      <point x="187" y="377" type="line"/>
      <point x="167" y="377"/>
      <point x="114" y="376"/>
      <point x="104" y="376" type="curve" smooth="yes"/>
      <point x="98" y="376"/>
      <point x="21" y="377"/>
      <point x="20" y="377" type="curve"/>
      <point x="20" y="339" type="line"/>
      <point x="59" y="339"/>
      <point x="59" y="338"/>
      <point x="86" y="306" type="curve" smooth="yes"/>
      <point x="186" y="192" type="line"/>
      <point x="85" y="70" type="line"/>
      <point x="68" y="48"/>
      <point x="59" y="37"/>
      <point x="35" y="37" type="curve" smooth="yes"/>
      <point x="15" y="37" type="line"/>
      <point x="15" y="0" type="line"/>
      <point x="22" y="0"/>
      <point x="86" y="1"/>
      <point x="95" y="1" type="curve" smooth="yes"/>
      <point x="103" y="1"/>
      <point x="175" y="0"/>
      <point x="177" y="0" type="curve"/>
      <point x="177" y="31" type="line"/>
      <point x="155" y="32"/>
      <point x="136" y="33"/>
      <point x="136" y="46" type="curve"/>
      <point x="141" y="54"/>
      <point x="147" y="61"/>
      <point x="152" y="69" type="curve"/>
      <point x="228" y="158" type="line"/>
      <point x="299" y="74" type="line"/>
      <point x="309" y="61"/>
      <point x="317" y="49"/>
      <point x="324" y="39" type="curve"/>
      <point x="318" y="34"/>
      <point x="308" y="31"/>
      <point x="291" y="31" type="curve"/>
      <point x="291" y="0" type="line"/>
      <point x="296" y="0"/>
      <point x="368" y="1"/>
      <point x="370" y="1" type="curve" smooth="yes"/>
      <point x="387" y="1"/>
      <point x="438" y="0"/>
      <point x="449" y="0" type="curve"/>
      <point x="449" y="37" type="line"/>
      <point x="430" y="37"/>
      <point x="421" y="37"/>
      <point x="413" y="42" type="curve" smooth="yes"/>
      <point x="404" y="46"/>
      <point x="397" y="53"/>
      <point x="382" y="70" type="curve"/>
      <point x="272" y="196" type="line"/>
      <point x="372" y="316" type="line"/>
      <point x="390" y="336"/>
      <point x="391" y="339"/>
      <point x="437" y="339" type="curve"/>
    </contour>
  </outline>
</glyph>
<glyph name="y" format="1">
  <advance width="464"/>
  <unicode hex="0079"/>
  <outline>
    <contour>
      <point x="453" y="392"/>
      <point x="388" y="391"/>
      <point x="372" y="391" type="curve" smooth="yes"/>
      <point x="359" y="391"/>
      <point x="302" y="392"/>
      <point x="286" y="392" type="curve"/>
      <point x="286" y="353" type="line"/>
      <point x="323" y="353"/>
      <point x="347" y="357"/>
      <point x="349" y="333" type="curve"/>
      <point x="348" y="324"/>
      <point x="345" y="316"/>
      <point x="340" y="303" type="curve"/>
      <point x="245" y="68" type="line"/>
      <point x="141" y="292" type="line"/>
      <point x="134" y="308"/>
      <point x="129" y="322"/>
      <point x="129" y="334" type="curve"/>
      <point x="129" y="353"/>
      <point x="134" y="353"/>
      <point x="193" y="353" type="curve"/>
      <point x="193" y="392" type="line"/>
      <point x="172" y="392"/>
      <point x="101" y="391"/>
      <point x="87" y="391" type="curve" smooth="yes"/>
      <point x="73" y="391"/>
      <point x="9" y="392"/>
      <point x="-7" y="392" type="curve"/>
      <point x="-7" y="353" type="line"/>
      <point x="53" y="353"/>
      <point x="45" y="354"/>
      <point x="69" y="303" type="curve"/>
      <point x="211" y="-5" type="line"/>
      <point x="199" y="-33"/>
      <point x="187" y="-62"/>
      <point x="175" y="-90" type="curve" smooth="yes"/>
      <point x="158" y="-132"/>
      <point x="116" y="-128"/>
      <point x="71" y="-120" type="curve"/>
      <point x="68" y="-165" type="line"/>
      <point x="81" y="-170"/>
      <point x="107" y="-177"/>
      <point x="126" y="-177" type="curve" smooth="yes"/>
      <point x="188" y="-177"/>
      <point x="217" y="-125"/>
      <point x="251" y="-47" type="curve" smooth="yes"/>
      <point x="401" y="310" type="line" smooth="yes"/>
      <point x="420" y="352"/>
      <point x="422" y="353"/>
      <point x="470" y="353" type="curve"/>
      <point x="470" y="392" type="line"/>
    </contour>
  </outline>
</glyph>
<glyph name="z" format="1">
  <advance width="410"/>
  <unicode hex="007A"/>
  <outline>
    <contour>
      <point x="46" y="376" type="line"/>
      <point x="46" y="253" type="line"/>
      <point x="82" y="253" type="line"/>
      <point x="82" y="287"/>
      <point x="83" y="307"/>
      <point x="86" y="320" type="curve" smooth="yes"/>
      <point x="90" y="331"/>
      <point x="98" y="336"/>
      <point x="112" y="336" type="curve" smooth="yes"/>
      <point x="296" y="336" type="line"/>
      <point x="35" y="51" type="line"/>
      <point x="35" y="0" type="line"/>
      <point x="376" y="0" type="line"/>
      <point x="376" y="130" type="line"/>
      <point x="339" y="130" type="line"/>
      <point x="339" y="85" type="line" smooth="yes"/>
      <point x="339" y="47"/>
      <point x="338" y="41"/>
      <point x="299" y="41" type="curve" smooth="yes"/>
      <point x="109" y="41" type="line"/>
      <point x="371" y="326" type="line"/>
      <point x="371" y="376" type="line"/>
    </contour>
  </outline>
</glyph>
<glyph name="braceleft" format="1">
  <advance width="362"/>
  <unicode hex="007B"/>
  <outline>
    <contour>
      <point x="306" y="597" type="line"/>
      <point x="188" y="598"/>
      <point x="155" y="560"/>
      <point x="155" y="449" type="curve" smooth="yes"/>
      <point x="155" y="371" type="line" smooth="yes"/>
      <point x="155" y="293"/>
      <point x="132" y="254"/>
      <point x="56" y="251" type="curve"/>
      <point x="56" y="208" type="line"/>
      <point x="132" y="204"/>
      <point x="155" y="167"/>
      <point x="155" y="90" type="curve" smooth="yes"/>
      <point x="155" y="9" type="line" smooth="yes"/>
      <point x="155" y="-103"/>
      <point x="189" y="-140"/>
      <point x="306" y="-139" type="curve"/>
      <point x="306" y="-100" type="line"/>
      <point x="203" y="-99"/>
      <point x="216" y="-37"/>
      <point x="216" y="64" type="curve" smooth="yes"/>
      <point x="216" y="158"/>
      <point x="200" y="208"/>
      <point x="116" y="229" type="curve"/>
      <point x="218" y="255"/>
      <point x="216" y="321"/>
      <point x="216" y="443" type="curve" smooth="yes"/>
      <point x="216" y="531"/>
      <point x="226" y="557"/>
      <point x="306" y="558" type="curve"/>
    </contour>
  </outline>
</glyph>
<glyph name="bar" format="1">
  <advance width="437"/>
  <unicode hex="007C"/>
  <outline>
    <contour>
      <point x="191" y="607" type="line"/>
      <point x="191" y="-189" type="line"/>
      <point x="247" y="-189" type="line"/>
      <point x="247" y="607" type="line"/>
    </contour>
  </outline>
</glyph>
<glyph name="asciitilde" format="1">
  <advance width="643"/>
  <unicode hex="007E"/>
  <outline>
    <contour>
      <point x="209" y="327" type="curve" smooth="yes"/>
      <point x="165" y="327"/>
      <point x="120" y="309"/>
      <point x="65" y="272" type="curve"/>
      <point x="65" y="214" type="line"/>
      <point x="117" y="250"/>
      <point x="157" y="275"/>
      <point x="208" y="275" type="curve" smooth="yes"/>
      <point x="277" y="275"/>
      <point x="360" y="214"/>
      <point x="437" y="214" type="curve" smooth="yes"/>
      <point x="481" y="214"/>
      <point x="524" y="231"/>
      <point x="579" y="269" type="curve"/>
      <point x="579" y="326" type="line"/>
      <point x="529" y="291"/>
      <point x="485" y="266"/>
      <point x="437" y="266" type="curve" smooth="yes"/>
      <point x="369" y="266"/>
      <point x="285" y="327"/>
    </contour>
  </outline>
</glyph>
<glyph name="uni0080" format="1">
  <advance width="800"/>
  <unicode hex="0080"/>
  <outline>
    <contour>
      <point x="100" y="460" type="line"/>
      <point x="100" y="-240" type="line"/>
      <point x="700" y="-240" type="line"/>
      <point x="700" y="460" type="line"/>
    </contour>
    <contour>
      <point x="650" y="-190" type="line"/>
      <point x="150" y="-190" type="line"/>
      <point x="150" y="410" type="line"/>
      <point x="650" y="410" type="line"/>
    </contour>
  </outline>
</glyph>
<glyph name="cent" format="1">
  <advance width="491"/>
  <unicode hex="00A2"/>
  <outline>
    <contour>
      <point x="225" y="478" type="line"/>
      <point x="225" y="401" type="line"/>
      <point x="113" y="398"/>
      <point x="36" y="309"/>
      <point x="36" y="194" type="curve" smooth="yes"/>
      <point x="36" y="78"/>
      <point x="110" y="-5"/>
      <point x="225" y="-11" type="curve"/>
      <point x="225" y="-88" type="line"/>
      <point x="265" y="-88" type="line"/>
      <point x="265" y="-11" type="line"/>
      <point x="306" y="-8"/>
      <point x="340" y="5"/>
      <point x="366" y="26" type="curve" smooth="yes"/>
      <point x="393" y="47"/>
      <point x="412" y="78"/>
      <point x="421" y="114" type="curve"/>
      <point x="366" y="125" type="line"/>
      <point x="349" y="68"/>
      <point x="308" y="36"/>
      <point x="250" y="36" type="curve" smooth="yes"/>
      <point x="164" y="36"/>
      <point x="118" y="106"/>
      <point x="118" y="198" type="curve" smooth="yes"/>
      <point x="118" y="290"/>
      <point x="161" y="356"/>
      <point x="250" y="356" type="curve" smooth="yes"/>
      <point x="318" y="356"/>
      <point x="360" y="320"/>
      <point x="362" y="252" type="curve"/>
      <point x="408" y="252" type="line"/>
      <point x="408" y="392" type="line"/>
      <point x="366" y="392" type="line"/>
      <point x="355" y="358" type="line"/>
      <point x="333" y="385"/>
      <point x="303" y="395"/>
      <point x="265" y="400" type="curve"/>
      <point x="265" y="478" type="line"/>
    </contour>
  </outline>
</glyph>
<glyph name="sterling" format="1">
  <advance width="497"/>
  <unicode hex="00A3"/>
  <outline>
    <contour>
      <point x="175" y="603"/>
      <point x="106" y="553"/>
      <point x="106" y="463" type="curve" smooth="yes"/>
      <point x="106" y="416"/>
      <point x="123" y="370"/>
      <point x="149" y="318" type="curve"/>
      <point x="47" y="318" type="line"/>
      <point x="47" y="275" type="line"/>
      <point x="165" y="275" type="line"/>
      <point x="190" y="220"/>
      <point x="200" y="168"/>
      <point x="196" y="132" type="curve"/>
      <point x="171" y="149"/>
      <point x="152" y="155"/>
      <point x="128" y="155" type="curve" smooth="yes"/>
      <point x="77" y="155"/>
      <point x="37" y="123"/>
      <point x="37" y="75" type="curve" smooth="yes"/>
      <point x="37" y="28"/>
      <point x="73" y="-7"/>
      <point x="123" y="-7" type="curve" smooth="yes"/>
      <point x="164" y="-7"/>
      <point x="200" y="18"/>
      <point x="225" y="62" type="curve"/>
      <point x="271" y="14"/>
      <point x="314" y="-7"/>
      <point x="356" y="-7" type="curve" smooth="yes"/>
      <point x="430" y="-7"/>
      <point x="465" y="53"/>
      <point x="466" y="134" type="curve"/>
      <point x="419" y="138" type="line"/>
      <point x="416" y="71"/>
      <point x="396" y="42"/>
      <point x="355" y="42" type="curve" smooth="yes"/>
      <point x="316" y="42"/>
      <point x="279" y="75"/>
      <point x="242" y="105" type="curve"/>
      <point x="248" y="130"/>
      <point x="252" y="150"/>
      <point x="252" y="178" type="curve" smooth="yes"/>
      <point x="252" y="208"/>
      <point x="246" y="238"/>
      <point x="233" y="275" type="curve"/>
      <point x="338" y="275" type="line"/>
      <point x="338" y="318" type="line"/>
      <point x="217" y="318" type="line"/>
      <point x="186" y="391"/>
      <point x="174" y="439"/>
      <point x="174" y="468" type="curve" smooth="yes"/>
      <point x="174" y="522"/>
      <point x="216" y="557"/>
      <point x="271" y="557" type="curve" smooth="yes"/>
      <point x="334" y="557"/>
      <point x="371" y="521"/>
      <point x="374" y="457" type="curve"/>
      <point x="432" y="460" type="line"/>
      <point x="430" y="552"/>
      <point x="371" y="603"/>
      <point x="269" y="603" type="curve" smooth="yes"/>
    </contour>
    <contour>
      <point x="148" y="120"/>
      <point x="170" y="109"/>
      <point x="187" y="92" type="curve"/>
      <point x="172" y="50"/>
      <point x="151" y="33"/>
      <point x="122" y="33" type="curve" smooth="yes"/>
      <point x="99" y="33"/>
      <point x="81" y="50"/>
      <point x="81" y="74" type="curve" smooth="yes"/>
      <point x="81" y="100"/>
      <point x="101" y="120"/>
      <point x="128" y="120" type="curve" smooth="yes"/>
    </contour>
  </outline>
</glyph>
<glyph name="currency" format="1">
  <advance width="571"/>
  <unicode hex="00A4"/>
  <outline>
    <contour>
      <point x="401" y="484" type="line"/>
      <point x="363" y="511"/>
      <point x="328" y="523"/>
      <point x="285" y="523" type="curve" smooth="yes"/>
      <point x="243" y="523"/>
      <point x="209" y="511"/>
      <point x="171" y="484" type="curve"/>
      <point x="97" y="556" type="line"/>
      <point x="62" y="521" type="line"/>
      <point x="135" y="450" type="line"/>
      <point x="108" y="413"/>
      <point x="96" y="379"/>
      <point x="96" y="338" type="curve" smooth="yes"/>
      <point x="96" y="296"/>
      <point x="108" y="261"/>
      <point x="135" y="225" type="curve"/>
      <point x="62" y="154" type="line"/>
      <point x="97" y="120" type="line"/>
      <point x="171" y="191" type="line"/>
      <point x="205" y="165"/>
      <point x="241" y="153"/>
      <point x="285" y="153" type="curve" smooth="yes"/>
      <point x="329" y="153"/>
      <point x="366" y="165"/>
      <point x="401" y="191" type="curve"/>
      <point x="475" y="120" type="line"/>
      <point x="510" y="154" type="line"/>
      <point x="436" y="226" type="line"/>
      <point x="462" y="258"/>
      <point x="474" y="300"/>
      <point x="474" y="338" type="curve" smooth="yes"/>
      <point x="474" y="380"/>
      <point x="462" y="418"/>
      <point x="436" y="449" type="curve"/>
      <point x="510" y="521" type="line"/>
      <point x="475" y="556" type="line"/>
    </contour>
    <contour>
      <point x="362" y="474"/>
      <point x="424" y="414"/>
      <point x="424" y="338" type="curve" smooth="yes"/>
      <point x="424" y="262"/>
      <point x="363" y="202"/>
      <point x="285" y="202" type="curve" smooth="yes"/>
      <point x="209" y="202"/>
      <point x="147" y="262"/>
      <point x="147" y="338" type="curve" smooth="yes"/>
      <point x="147" y="414"/>
      <point x="209" y="474"/>
      <point x="285" y="474" type="curve" smooth="yes"/>
    </contour>
  </outline>
</glyph>
<glyph name="yen" format="1">
  <advance width="492"/>
  <unicode hex="00A5"/>
  <outline>
    <contour>
      <point x="533" y="543" type="line"/>
      <point x="509" y="542"/>
      <point x="469" y="542"/>
      <point x="445" y="542" type="curve" smooth="yes"/>
      <point x="421" y="542"/>
      <point x="372" y="543"/>
      <point x="335" y="543" type="curve"/>
      <point x="335" y="501" type="line"/>
      <point x="349" y="501" type="line" smooth="yes"/>
      <point x="374" y="501"/>
      <point x="401" y="503"/>
      <point x="401" y="490" type="curve" smooth="yes"/>
      <point x="401" y="486"/>
      <point x="399" y="480"/>
      <point x="395" y="474" type="curve"/>
      <point x="273" y="278" type="line"/>
      <point x="151" y="475" type="line"/>
      <point x="148" y="481"/>
      <point x="146" y="486"/>
      <point x="146" y="490" type="curve" smooth="yes"/>
      <point x="146" y="504"/>
      <point x="171" y="501"/>
      <point x="213" y="501" type="curve"/>
      <point x="213" y="543" type="line"/>
      <point x="141" y="543"/>
      <point x="163" y="542"/>
      <point x="96" y="542" type="curve"/>
      <point x="82" y="542"/>
      <point x="18" y="542"/>
      <point x="-3" y="543" type="curve"/>
      <point x="-3" y="501" type="line"/>
      <point x="55" y="501"/>
      <point x="55" y="500"/>
      <point x="85" y="452" type="curve" smooth="yes"/>
      <point x="135" y="375" type="line"/>
      <point x="28" y="375" type="line"/>
      <point x="28" y="337" type="line"/>
      <point x="160" y="337" type="line"/>
      <point x="192" y="288" type="line"/>
      <point x="28" y="288" type="line"/>
      <point x="28" y="248" type="line"/>
      <point x="215" y="248" type="line"/>
      <point x="228" y="225" type="line"/>
      <point x="228" y="66" type="line" smooth="yes"/>
      <point x="228" y="39"/>
      <point x="203" y="42"/>
      <point x="174" y="42" type="curve" smooth="yes"/>
      <point x="152" y="42" type="line"/>
      <point x="152" y="0" type="line"/>
      <point x="161" y="0"/>
      <point x="253" y="1"/>
      <point x="264" y="1" type="curve" smooth="yes"/>
      <point x="298" y="0"/>
      <point x="352" y="0"/>
      <point x="379" y="0" type="curve"/>
      <point x="379" y="42" type="line"/>
      <point x="357" y="42" type="line" smooth="yes"/>
      <point x="325" y="42"/>
      <point x="302" y="37"/>
      <point x="302" y="67" type="curve" smooth="yes"/>
      <point x="302" y="224" type="line"/>
      <point x="316" y="248" type="line"/>
      <point x="507" y="248" type="line"/>
      <point x="507" y="288" type="line"/>
      <point x="339" y="288" type="line"/>
      <point x="371" y="337" type="line"/>
      <point x="507" y="337" type="line"/>
      <point x="507" y="375" type="line"/>
      <point x="397" y="375" type="line"/>
      <point x="459" y="469" type="line"/>
      <point x="482" y="504"/>
      <point x="483" y="501"/>
      <point x="533" y="501" type="curve"/>
    </contour>
  </outline>
</glyph>
<glyph name="brokenbar" format="1">
  <advance width="454"/>
  <unicode hex="00A6"/>
  <outline>
    <contour>
      <point x="199" y="638" type="line"/>
      <point x="199" y="317" type="line"/>
      <point x="257" y="317" type="line"/>
      <point x="257" y="638" type="line"/>
    </contour>
    <contour>
      <point x="199" y="232" type="line"/>
      <point x="199" y="-88" type="line"/>
      <point x="257" y="-88" type="line"/>
      <point x="257" y="232" type="line"/>
    </contour>
  </outline>
</glyph>
<glyph name="section" format="1">
  <advance width="420"/>
  <unicode hex="00A7"/>
  <outline>
    <contour>
      <point x="208" y="554" type="curve" smooth="yes"/>
      <point x="123" y="554"/>
      <point x="53" y="515"/>
      <point x="53" y="434" type="curve" smooth="yes"/>
      <point x="53" y="393"/>
      <point x="70" y="361"/>
      <point x="103" y="338" type="curve"/>
      <point x="53" y="303"/>
      <point x="32" y="269"/>
      <point x="32" y="227" type="curve" smooth="yes"/>
      <point x="32" y="146"/>
      <point x="106" y="111"/>
      <point x="190" y="77" type="curve" smooth="yes"/>
      <point x="247" y="54"/>
      <point x="306" y="28"/>
      <point x="306" y="-23" type="curve" smooth="yes"/>
      <point x="306" y="-71"/>
      <point x="264" y="-99"/>
      <point x="210" y="-99" type="curve" smooth="yes"/>
      <point x="135" y="-99"/>
      <point x="104" y="-69"/>
      <point x="104" y="-13" type="curve"/>
      <point x="60" y="-13" type="line"/>
      <point x="61" y="-96" type="line"/>
      <point x="99" y="-124"/>
      <point x="152" y="-138"/>
      <point x="210" y="-138" type="curve" smooth="yes"/>
      <point x="301" y="-138"/>
      <point x="367" y="-97"/>
      <point x="367" y="-13" type="curve" smooth="yes"/>
      <point x="367" y="27"/>
      <point x="350" y="59"/>
      <point x="317" y="83" type="curve"/>
      <point x="363" y="111"/>
      <point x="388" y="148"/>
      <point x="388" y="192" type="curve" smooth="yes"/>
      <point x="388" y="275"/>
      <point x="314" y="310"/>
      <point x="225" y="346" type="curve" smooth="yes"/>
      <point x="160" y="372"/>
      <point x="115" y="389"/>
      <point x="115" y="442" type="curve" smooth="yes"/>
      <point x="115" y="490"/>
      <point x="157" y="515"/>
      <point x="208" y="515" type="curve" smooth="yes"/>
      <point x="274" y="515"/>
      <point x="309" y="483"/>
      <point x="312" y="419" type="curve"/>
      <point x="357" y="419" type="line"/>
      <point x="356" y="511"/>
      <point x="295" y="554"/>
    </contour>
    <contour>
      <point x="136" y="319" type="curve"/>
      <point x="188" y="296"/>
      <point x="240" y="277"/>
      <point x="280" y="254" type="curve" smooth="yes"/>
      <point x="312" y="234"/>
      <point x="329" y="213"/>
      <point x="329" y="183" type="curve" smooth="yes"/>
      <point x="329" y="154"/>
      <point x="314" y="128"/>
      <point x="282" y="103" type="curve"/>
      <point x="243" y="120"/>
      <point x="184" y="142"/>
      <point x="151" y="162" type="curve" smooth="yes"/>
      <point x="115" y="182"/>
      <point x="91" y="206"/>
      <point x="91" y="239" type="curve" smooth="yes"/>
      <point x="91" y="263"/>
      <point x="103" y="287"/>
    </contour>
  </outline>
</glyph>
<glyph name="dieresis" format="1">
  <advance width="373"/>
  <unicode hex="00A8"/>
  <outline>
    <contour>
      <point x="243" y="557"/>
      <point x="228" y="543"/>
      <point x="228" y="519" type="curve" smooth="yes"/>
      <point x="228" y="496"/>
      <point x="243" y="479"/>
      <point x="268" y="479" type="curve" smooth="yes"/>
      <point x="293" y="479"/>
      <point x="309" y="496"/>
      <point x="309" y="519" type="curve" smooth="yes"/>
      <point x="309" y="543"/>
      <point x="293" y="557"/>
      <point x="268" y="557" type="curve" smooth="yes"/>
    </contour>
    <contour>
      <point x="80" y="557"/>
      <point x="64" y="543"/>
      <point x="64" y="519" type="curve" smooth="yes"/>
      <point x="64" y="496"/>
      <point x="80" y="479"/>
      <point x="105" y="479" type="curve" smooth="yes"/>
      <point x="130" y="479"/>
      <point x="145" y="496"/>
      <point x="145" y="519" type="curve" smooth="yes"/>
      <point x="145" y="543"/>
      <point x="130" y="557"/>
      <point x="105" y="557" type="curve" smooth="yes"/>
    </contour>
  </outline>
</glyph>
<glyph name="copyright" format="1">
  <advance width="701"/>
  <unicode hex="00A9"/>
  <outline>
    <contour>
      <point x="351" y="590" type="curve" smooth="yes"/>
      <point x="168" y="590"/>
      <point x="42" y="442"/>
      <point x="42" y="288" type="curve" smooth="yes"/>
      <point x="42" y="107"/>
      <point x="197" y="-13"/>
      <point x="351" y="-13" type="curve" smooth="yes"/>
      <point x="533" y="-13"/>
      <point x="660" y="134"/>
      <point x="660" y="288" type="curve" smooth="yes"/>
      <point x="660" y="472"/>
      <point x="506" y="590"/>
    </contour>
    <contour>
      <point x="448" y="413" type="line"/>
      <point x="430" y="441"/>
      <point x="393" y="460"/>
      <point x="354" y="460" type="curve" smooth="yes"/>
      <point x="253" y="460"/>
      <point x="182" y="383"/>
      <point x="182" y="286" type="curve" smooth="yes"/>
      <point x="182" y="189"/>
      <point x="252" y="109"/>
      <point x="348" y="109" type="curve" smooth="yes"/>
      <point x="415" y="109"/>
      <point x="466" y="141"/>
      <point x="493" y="208" type="curve"/>
      <point x="464" y="220" type="line"/>
      <point x="437" y="165"/>
      <point x="398" y="143"/>
      <point x="353" y="143" type="curve" smooth="yes"/>
      <point x="279" y="143"/>
      <point x="243" y="206"/>
      <point x="243" y="292" type="curve" smooth="yes"/>
      <point x="243" y="373"/>
      <point x="278" y="432"/>
      <point x="352" y="432" type="curve" smooth="yes"/>
      <point x="402" y="432"/>
      <point x="438" y="403"/>
      <point x="457" y="344" type="curve"/>
      <point x="490" y="349" type="line"/>
      <point x="490" y="456" type="line"/>
      <point x="453" y="460" type="line"/>
    </contour>
    <contour>
      <point x="351" y="553" type="curve" smooth="yes"/>
      <point x="495" y="553"/>
      <point x="619" y="436"/>
      <point x="619" y="288" type="curve" smooth="yes"/>
      <point x="619" y="156"/>
      <point x="511" y="25"/>
      <point x="350" y="25" type="curve" smooth="yes"/>
      <point x="204" y="25"/>
      <point x="82" y="142"/>
      <point x="82" y="288" type="curve" smooth="yes"/>
      <point x="82" y="433"/>
      <point x="204" y="553"/>
    </contour>
  </outline>
</glyph>
<glyph name="ordfeminine" format="1">
  <advance width="464"/>
  <unicode hex="00AA"/>
  <outline>
    <contour>
      <point x="174" y="565"/>
      <point x="140" y="557"/>
      <point x="115" y="545" type="curve"/>
      <point x="111" y="494" type="line"/>
      <point x="138" y="491" type="line"/>
      <point x="147" y="524"/>
      <point x="168" y="539"/>
      <point x="209" y="539" type="curve" smooth="yes"/>
      <point x="258" y="539"/>
      <point x="280" y="520"/>
      <point x="280" y="485" type="curve" smooth="yes"/>
      <point x="280" y="443" type="line"/>
      <point x="255" y="450"/>
      <point x="230" y="453"/>
      <point x="206" y="453" type="curve" smooth="yes"/>
      <point x="144" y="453"/>
      <point x="94" y="426"/>
      <point x="94" y="371" type="curve" smooth="yes"/>
      <point x="94" y="322"/>
      <point x="133" y="292"/>
      <point x="185" y="292" type="curve" smooth="yes"/>
      <point x="228" y="292"/>
      <point x="259" y="308"/>
      <point x="283" y="337" type="curve"/>
      <point x="283" y="297" type="line"/>
      <point x="295" y="298"/>
      <point x="310" y="298"/>
      <point x="326" y="298" type="curve" smooth="yes"/>
      <point x="340" y="298"/>
      <point x="355" y="298"/>
      <point x="369" y="298" type="curve"/>
      <point x="369" y="324" type="line"/>
      <point x="342" y="324"/>
      <point x="332" y="321"/>
      <point x="330" y="341" type="curve"/>
      <point x="330" y="472" type="line"/>
      <point x="330" y="542"/>
      <point x="290" y="565"/>
      <point x="214" y="565" type="curve" smooth="yes"/>
    </contour>
    <contour>
      <point x="236" y="430"/>
      <point x="257" y="425"/>
      <point x="280" y="419" type="curve"/>
      <point x="280" y="391" type="line" smooth="yes"/>
      <point x="280" y="347"/>
      <point x="239" y="322"/>
      <point x="200" y="323" type="curve" smooth="yes"/>
      <point x="167" y="322"/>
      <point x="141" y="341"/>
      <point x="141" y="373" type="curve" smooth="yes"/>
      <point x="141" y="412"/>
      <point x="175" y="430"/>
      <point x="216" y="430" type="curve" smooth="yes"/>
    </contour>
  </outline>
</glyph>
<glyph name="guillemetleft" format="1">
  <advance width="422"/>
  <unicode hex="00AB"/>
  <outline>
    <contour>
      <point x="147" y="354" type="line"/>
      <point x="35" y="189" type="line"/>
      <point x="147" y="25" type="line"/>
      <point x="217" y="25" type="line"/>
      <point x="104" y="189" type="line"/>
      <point x="217" y="354" type="line"/>
    </contour>
    <contour>
      <point x="325" y="354" type="line"/>
      <point x="217" y="189" type="line"/>
      <point x="325" y="25" type="line"/>
      <point x="396" y="25" type="line"/>
      <point x="282" y="189" type="line"/>
      <point x="396" y="354" type="line"/>
    </contour>
  </outline>
</glyph>
<glyph name="logicalnot" format="1">
  <advance width="673"/>
  <unicode hex="00AC"/>
  <outline>
    <contour>
      <point x="86" y="391" type="line"/>
      <point x="86" y="338" type="line"/>
      <point x="532" y="338" type="line"/>
      <point x="532" y="153" type="line"/>
      <point x="586" y="153" type="line"/>
      <point x="586" y="391" type="line"/>
    </contour>
  </outline>
</glyph>
<glyph name="softhyphen" format="1">
  <advance width="312"/>
  <unicode hex="00AD"/>
  <outline>
    <contour>
      <point x="32" y="228" type="line"/>
      <point x="32" y="170" type="line"/>
      <point x="280" y="170" type="line"/>
      <point x="280" y="228" type="line"/>
    </contour>
  </outline>
</glyph>
<glyph name="registered" format="1">
  <advance width="701"/>
  <unicode hex="00AE"/>
  <outline>
    <contour>
      <point x="351" y="590" type="curve" smooth="yes"/>
      <point x="168" y="590"/>
      <point x="42" y="442"/>
      <point x="42" y="288" type="curve" smooth="yes"/>
      <point x="42" y="106"/>
      <point x="197" y="-13"/>
      <point x="349" y="-13" type="curve" smooth="yes"/>
      <point x="533" y="-13"/>
      <point x="660" y="136"/>
      <point x="660" y="288" type="curve" smooth="yes"/>
      <point x="660" y="470"/>
      <point x="507" y="590"/>
    </contour>
    <contour>
      <point x="351" y="553" type="curve" smooth="yes"/>
      <point x="494" y="553"/>
      <point x="619" y="437"/>
      <point x="619" y="288" type="curve" smooth="yes"/>
      <point x="619" y="157"/>
      <point x="511" y="25"/>
      <point x="350" y="25" type="curve" smooth="yes"/>
      <point x="218" y="25"/>
      <point x="82" y="129"/>
      <point x="82" y="288" type="curve" smooth="yes"/>
      <point x="82" y="421"/>
      <point x="191" y="553"/>
    </contour>
    <contour>
      <point x="205" y="455" type="line"/>
      <point x="205" y="442" type="line"/>
      <point x="223" y="440"/>
      <point x="233" y="436"/>
      <point x="233" y="423" type="curve" smooth="yes"/>
      <point x="233" y="168" type="line" smooth="yes"/>
      <point x="233" y="157"/>
      <point x="224" y="154"/>
      <point x="205" y="152" type="curve"/>
      <point x="205" y="125" type="line"/>
      <point x="224" y="125"/>
      <point x="243" y="125"/>
      <point x="261" y="125" type="curve"/>
      <point x="278" y="125"/>
      <point x="295" y="125"/>
      <point x="312" y="125" type="curve"/>
      <point x="312" y="152" type="line"/>
      <point x="296" y="153"/>
      <point x="285" y="156"/>
      <point x="285" y="165" type="curve" smooth="yes"/>
      <point x="285" y="277" type="line"/>
      <point x="305" y="277" type="line" smooth="yes"/>
      <point x="384" y="277"/>
      <point x="391" y="240"/>
      <point x="404" y="194" type="curve" smooth="yes"/>
      <point x="413" y="160"/>
      <point x="425" y="132"/>
      <point x="462" y="132" type="curve" smooth="yes"/>
      <point x="502" y="132" type="line"/>
      <point x="502" y="158" type="line"/>
      <point x="488" y="158" type="line" smooth="yes"/>
      <point x="472" y="158"/>
      <point x="462" y="179"/>
      <point x="456" y="203" type="curve" smooth="yes"/>
      <point x="447" y="240"/>
      <point x="430" y="266"/>
      <point x="379" y="282" type="curve"/>
      <point x="450" y="293"/>
      <point x="486" y="325"/>
      <point x="486" y="369" type="curve" smooth="yes"/>
      <point x="486" y="442"/>
      <point x="410" y="455"/>
      <point x="330" y="455" type="curve" smooth="yes"/>
    </contour>
    <contour>
      <point x="339" y="427" type="line"/>
      <point x="401" y="427"/>
      <point x="429" y="409"/>
      <point x="429" y="367" type="curve" smooth="yes"/>
      <point x="429" y="323"/>
      <point x="396" y="303"/>
      <point x="327" y="303" type="curve"/>
      <point x="285" y="304" type="line"/>
      <point x="285" y="427" type="line"/>
    </contour>
  </outline>
</glyph>
<glyph name="macron" format="1">
  <advance width="298"/>
  <unicode hex="00AF"/>
  <outline>
    <contour>
      <point x="-5" y="557" type="line"/>
      <point x="-5" y="525" type="line"/>
      <point x="304" y="525" type="line"/>
      <point x="304" y="557" type="line"/>
    </contour>
  </outline>
</glyph>
<glyph name="degree" format="1">
  <advance width="313"/>
  <unicode hex="00B0"/>
  <outline>
    <contour>
      <point x="157" y="589" type="curve" smooth="yes"/>
      <point x="89" y="589"/>
      <point x="33" y="536"/>
      <point x="33" y="468" type="curve" smooth="yes"/>
      <point x="33" y="401"/>
      <point x="89" y="348"/>
      <point x="156" y="348" type="curve" smooth="yes"/>
      <point x="224" y="348"/>
      <point x="280" y="401"/>
      <point x="280" y="468" type="curve" smooth="yes"/>
      <point x="280" y="535"/>
      <point x="224" y="589"/>
    </contour>
    <contour>
      <point x="157" y="551" type="curve" smooth="yes"/>
      <point x="204" y="551"/>
      <point x="241" y="511"/>
      <point x="241" y="468" type="curve" smooth="yes"/>
      <point x="241" y="423"/>
      <point x="202" y="385"/>
      <point x="157" y="385" type="curve" smooth="yes"/>
      <point x="109" y="385"/>
      <point x="72" y="423"/>
      <point x="72" y="468" type="curve" smooth="yes"/>
      <point x="72" y="514"/>
      <point x="109" y="551"/>
    </contour>
  </outline>
</glyph>
<glyph name="plusminus" format="1">
  <advance width="647"/>
  <unicode hex="00B1"/>
  <outline>
    <contour>
      <point x="298" y="524" type="line"/>
      <point x="298" y="356" type="line"/>
      <point x="83" y="356" type="line"/>
      <point x="83" y="306" type="line"/>
      <point x="298" y="306" type="line"/>
      <point x="298" y="138" type="line"/>
      <point x="349" y="138" type="line"/>
      <point x="349" y="306" type="line"/>
      <point x="563" y="306" type="line"/>
      <point x="563" y="356" type="line"/>
      <point x="349" y="356" type="line"/>
      <point x="349" y="524" type="line"/>
    </contour>
    <contour>
      <point x="83" y="52" type="line"/>
      <point x="83" y="2" type="line"/>
      <point x="563" y="2" type="line"/>
      <point x="563" y="52" type="line"/>
    </contour>
  </outline>
</glyph>
<glyph name="twosuperior" format="1">
  <advance width="500"/>
  <unicode hex="00B2"/>
  <outline>
    <contour>
      <point x="156" y="643"/>
      <point x="118" y="631"/>
      <point x="88" y="607" type="curve"/>
      <point x="88" y="532" type="line"/>
      <point x="123" y="531" type="line"/>
      <point x="123" y="588"/>
      <point x="148" y="613"/>
      <point x="208" y="613" type="curve" smooth="yes"/>
      <point x="253" y="613"/>
      <point x="286" y="588"/>
      <point x="286" y="544" type="curve" smooth="yes"/>
      <point x="286" y="505"/>
      <point x="265" y="485"/>
      <point x="230" y="462" type="curve" smooth="yes"/>
      <point x="144" y="405"/>
      <point x="79" y="365"/>
      <point x="79" y="258" type="curve"/>
      <point x="79" y="244" type="line"/>
      <point x="336" y="244" type="line"/>
      <point x="336" y="360" type="line"/>
      <point x="305" y="360" type="line"/>
      <point x="305" y="313"/>
      <point x="309" y="280"/>
      <point x="283" y="280" type="curve" smooth="yes"/>
      <point x="126" y="280" type="line"/>
      <point x="126" y="328"/>
      <point x="163" y="366"/>
      <point x="218" y="404" type="curve" smooth="yes"/>
      <point x="284" y="447"/>
      <point x="336" y="472"/>
      <point x="336" y="539" type="curve" smooth="yes"/>
      <point x="336" y="604"/>
      <point x="293" y="643"/>
      <point x="216" y="643" type="curve" smooth="yes"/>
    </contour>
  </outline>
</glyph>
<glyph name="threesuperior" format="1">
  <advance width="500"/>
  <unicode hex="00B3"/>
  <outline>
    <contour>
      <point x="134" y="399"/>
      <point x="95" y="388"/>
      <point x="63" y="366" type="curve"/>
      <point x="63" y="289" type="line"/>
      <point x="100" y="288" type="line"/>
      <point x="100" y="339"/>
      <point x="121" y="368"/>
      <point x="177" y="368" type="curve" smooth="yes"/>
      <point x="223" y="368"/>
      <point x="256" y="342"/>
      <point x="256" y="298" type="curve" smooth="yes"/>
      <point x="256" y="246"/>
      <point x="214" y="223"/>
      <point x="159" y="222" type="curve"/>
      <point x="159" y="189" type="line"/>
      <point x="220" y="189"/>
      <point x="270" y="168"/>
      <point x="270" y="106" type="curve" smooth="yes"/>
      <point x="270" y="53"/>
      <point x="231" y="24"/>
      <point x="181" y="24" type="curve" smooth="yes"/>
      <point x="120" y="24"/>
      <point x="87" y="53"/>
      <point x="87" y="115" type="curve"/>
      <point x="50" y="114" type="line"/>
      <point x="50" y="36"/>
      <point x="100" y="-10"/>
      <point x="178" y="-10" type="curve" smooth="yes"/>
      <point x="259" y="-10"/>
      <point x="320" y="28"/>
      <point x="320" y="105" type="curve" smooth="yes"/>
      <point x="320" y="166"/>
      <point x="286" y="197"/>
      <point x="230" y="208" type="curve"/>
      <point x="280" y="222"/>
      <point x="305" y="251"/>
      <point x="305" y="297" type="curve" smooth="yes"/>
      <point x="305" y="366"/>
      <point x="252" y="399"/>
      <point x="178" y="399" type="curve" smooth="yes"/>
    </contour>
  </outline>
</glyph>
<glyph name="acute" format="1">
  <advance width="373"/>
  <unicode hex="00B4"/>
  <outline>
    <contour>
      <point x="237" y="593"/>
      <point x="213" y="574"/>
      <point x="200" y="556" type="curve" smooth="yes"/>
      <point x="119" y="450" type="line"/>
      <point x="155" y="450" type="line"/>
      <point x="279" y="566" type="line" smooth="yes"/>
      <point x="294" y="579"/>
      <point x="284" y="593"/>
      <point x="258" y="593" type="curve" smooth="yes"/>
    </contour>
  </outline>
</glyph>
<glyph name="paragraph" format="1">
  <advance width="511"/>
  <unicode hex="00B6"/>
  <outline>
    <contour>
      <point x="232" y="590" type="line" smooth="yes"/>
      <point x="173" y="590"/>
      <point x="125" y="576"/>
      <point x="91" y="549" type="curve" smooth="yes"/>
      <point x="57" y="522"/>
      <point x="38" y="483"/>
      <point x="38" y="433" type="curve" smooth="yes"/>
      <point x="38" y="388"/>
      <point x="53" y="349"/>
      <point x="84" y="320" type="curve" smooth="yes"/>
      <point x="114" y="291"/>
      <point x="158" y="274"/>
      <point x="217" y="272" type="curve"/>
      <point x="217" y="-90" type="line"/>
      <point x="270" y="-90" type="line"/>
      <point x="270" y="541" type="line"/>
      <point x="362" y="541" type="line"/>
      <point x="362" y="-90" type="line"/>
      <point x="415" y="-90" type="line"/>
      <point x="415" y="541" type="line"/>
      <point x="481" y="541" type="line"/>
      <point x="481" y="590" type="line"/>
    </contour>
  </outline>
</glyph>
<glyph name="periodcentered" format="1">
  <advance width="245"/>
  <unicode hex="00B7"/>
  <outline>
    <contour>
      <point x="88" y="391"/>
      <point x="72" y="378"/>
      <point x="72" y="352" type="curve" smooth="yes"/>
      <point x="72" y="330"/>
      <point x="85" y="312"/>
      <point x="119" y="312" type="curve" smooth="yes"/>
      <point x="153" y="312"/>
      <point x="166" y="331"/>
      <point x="166" y="352" type="curve" smooth="yes"/>
      <point x="166" y="378"/>
      <point x="148" y="391"/>
      <point x="119" y="391" type="curve" smooth="yes"/>
    </contour>
  </outline>
</glyph>
<glyph name="cedilla" format="1">
  <advance width="359"/>
  <unicode hex="00B8"/>
  <outline>
    <contour>
      <point x="161" y="-3" type="line"/>
      <point x="155" y="-74" type="line"/>
      <point x="161" y="-73"/>
      <point x="162" y="-73"/>
      <point x="163" y="-73" type="curve"/>
      <point x="197" y="-75"/>
      <point x="216" y="-84"/>
      <point x="216" y="-108" type="curve" smooth="yes"/>
      <point x="216" y="-135"/>
      <point x="196" y="-147"/>
      <point x="159" y="-147" type="curve" smooth="yes"/>
      <point x="141" y="-147"/>
      <point x="120" y="-144"/>
      <point x="97" y="-135" type="curve"/>
      <point x="89" y="-165" type="line"/>
      <point x="121" y="-176"/>
      <point x="144" y="-179"/>
      <point x="167" y="-179" type="curve" smooth="yes"/>
      <point x="224" y="-179"/>
      <point x="271" y="-159"/>
      <point x="271" y="-107" type="curve" smooth="yes"/>
      <point x="271" y="-66"/>
      <point x="240" y="-40"/>
      <point x="196" y="-40" type="curve" smooth="yes"/>
      <point x="197" y="-40"/>
      <point x="189" y="-40"/>
      <point x="187" y="-40" type="curve"/>
      <point x="190" y="-3" type="line"/>
    </contour>
  </outline>
</glyph>
<glyph name="onesuperior" format="1">
  <advance width="500"/>
  <unicode hex="00B9"/>
  <outline>
    <contour>
      <point x="209" y="566" type="line"/>
      <point x="179" y="551"/>
      <point x="150" y="540"/>
      <point x="119" y="535" type="curve"/>
      <point x="119" y="496" type="line"/>
      <point x="142" y="501"/>
      <point x="166" y="510"/>
      <point x="191" y="522" type="curve"/>
      <point x="191" y="203" type="line"/>
      <point x="128" y="203" type="line"/>
      <point x="128" y="173" type="line"/>
      <point x="301" y="173" type="line"/>
      <point x="301" y="203" type="line"/>
      <point x="240" y="203" type="line"/>
      <point x="240" y="565" type="line"/>
    </contour>
  </outline>
</glyph>
<glyph name="ordmasculine" format="1">
  <advance width="338"/>
  <unicode hex="00BA"/>
  <outline>
    <contour>
      <point x="82" y="574"/>
      <point x="23" y="523"/>
      <point x="23" y="439" type="curve" smooth="yes"/>
      <point x="23" y="358"/>
      <point x="83" y="304"/>
      <point x="170" y="304" type="curve" smooth="yes"/>
      <point x="255" y="304"/>
      <point x="314" y="355"/>
      <point x="314" y="439" type="curve" smooth="yes"/>
      <point x="314" y="523"/>
      <point x="254" y="574"/>
      <point x="168" y="574" type="curve" smooth="yes"/>
    </contour>
    <contour>
      <point x="226" y="544"/>
      <point x="260" y="504"/>
      <point x="260" y="440" type="curve" smooth="yes"/>
      <point x="260" y="378"/>
      <point x="228" y="334"/>
      <point x="170" y="334" type="curve" smooth="yes"/>
      <point x="110" y="334"/>
      <point x="77" y="378"/>
      <point x="77" y="439" type="curve" smooth="yes"/>
      <point x="77" y="504"/>
      <point x="111" y="544"/>
      <point x="170" y="544" type="curve" smooth="yes"/>
    </contour>
  </outline>
</glyph>
<glyph name="guillemetright" format="1">
  <advance width="422"/>
  <unicode hex="00BB"/>
  <outline>
    <contour>
      <point x="213" y="354" type="line"/>
      <point x="327" y="189" type="line"/>
      <point x="213" y="25" type="line"/>
      <point x="283" y="25" type="line"/>
      <point x="396" y="189" type="line"/>
      <point x="283" y="354" type="line"/>
    </contour>
    <contour>
      <point x="35" y="354" type="line"/>
      <point x="149" y="189" type="line"/>
      <point x="35" y="25" type="line"/>
      <point x="105" y="25" type="line"/>
      <point x="213" y="189" type="line"/>
      <point x="105" y="354" type="line"/>
    </contour>
  </outline>
</glyph>
<glyph name="onequarter" format="1">
  <advance width="869"/>
  <unicode hex="00BC"/>
  <outline>
    <contour>
      <point x="498" y="549" type="line"/>
      <point x="289" y="-44" type="line"/>
      <point x="341" y="-44" type="line"/>
      <point x="550" y="549" type="line"/>
    </contour>
    <contour>
      <point x="201" y="544" type="line"/>
      <point x="172" y="530"/>
      <point x="144" y="519"/>
      <point x="114" y="514" type="curve"/>
      <point x="114" y="477" type="line"/>
      <point x="137" y="482"/>
      <point x="160" y="490"/>
      <point x="184" y="502" type="curve"/>
      <point x="184" y="195" type="line"/>
      <point x="123" y="195" type="line"/>
      <point x="123" y="166" type="line"/>
      <point x="289" y="166" type="line"/>
      <point x="289" y="195" type="line"/>
      <point x="231" y="195" type="line"/>
      <point x="231" y="543" type="line"/>
    </contour>
    <contour>
      <point x="660" y="377" type="line"/>
      <point x="498" y="149" type="line"/>
      <point x="505" y="111" type="line"/>
      <point x="669" y="111" type="line"/>
      <point x="669" y="27" type="line"/>
      <point x="614" y="27" type="line"/>
      <point x="614" y="0" type="line"/>
      <point x="758" y="0" type="line"/>
      <point x="758" y="27" type="line"/>
      <point x="713" y="27" type="line"/>
      <point x="713" y="111" type="line"/>
      <point x="776" y="111" type="line"/>
      <point x="776" y="142" type="line"/>
      <point x="713" y="142" type="line"/>
      <point x="713" y="377" type="line"/>
    </contour>
    <contour>
      <point x="670" y="141" type="line"/>
      <point x="531" y="141" type="line"/>
      <point x="669" y="340" type="line"/>
    </contour>
  </outline>
</glyph>
<glyph name="onehalf" format="1">
  <advance width="904"/>
  <unicode hex="00BD"/>
  <outline>
    <contour>
      <point x="506" y="571" type="line"/>
      <point x="289" y="-46" type="line"/>
      <point x="343" y="-46" type="line"/>
      <point x="561" y="571" type="line"/>
    </contour>
    <component base="onesuperior"/>
    <component base="twosuperior" xOffset="457" yOffset="-243"/>
  </outline>
</glyph>
<glyph name="threequarters" format="1">
  <advance width="904"/>
  <unicode hex="00BE"/>
  <outline>
    <contour>
      <point x="518" y="571" type="line"/>
      <point x="301" y="-46" type="line"/>
      <point x="355" y="-46" type="line"/>
      <point x="572" y="571" type="line"/>
    </contour>
    <component base="foursuperior" xOffset="476" yOffset="6"/>
    <component base="threesuperior" xOffset="-6" yOffset="180"/>
  </outline>
</glyph>
<glyph name="AE" format="1">
  <advance width="799"/>
  <unicode hex="00C6"/>
  <outline>
    <contour>
      <point x="320" y="543" type="line"/>
      <point x="262" y="450" type="line"/>
      <point x="52" y="103" type="line" smooth="yes"/>
      <point x="21" y="51"/>
      <point x="21" y="42"/>
      <point x="-33" y="42" type="curve"/>
      <point x="-33" y="0" type="line"/>
      <point x="1" y="1"/>
      <point x="48" y="1"/>
      <point x="72" y="1" type="curve" smooth="yes"/>
      <point x="79" y="1"/>
      <point x="139" y="0"/>
      <point x="159" y="0" type="curve"/>
      <point x="159" y="42" type="line"/>
      <point x="135" y="42" type="line" smooth="yes"/>
      <point x="120" y="42"/>
      <point x="110" y="43"/>
      <point x="105" y="45" type="curve" smooth="yes"/>
      <point x="89" y="51"/>
      <point x="99" y="67"/>
      <point x="113" y="93" type="curve" smooth="yes"/>
      <point x="190" y="226" type="line"/>
      <point x="380" y="226" type="line"/>
      <point x="380" y="65" type="line" smooth="yes"/>
      <point x="380" y="42"/>
      <point x="355" y="42"/>
      <point x="321" y="42" type="curve" smooth="yes"/>
      <point x="294" y="42" type="line"/>
      <point x="294" y="0" type="line"/>
      <point x="761" y="0" type="line"/>
      <point x="761" y="147" type="line"/>
      <point x="714" y="147" type="line"/>
      <point x="714" y="93" type="line"/>
      <point x="713" y="67"/>
      <point x="714" y="48"/>
      <point x="691" y="48" type="curve" smooth="yes"/>
      <point x="457" y="48" type="line"/>
      <point x="457" y="257" type="line"/>
      <point x="601" y="257" type="line" smooth="yes"/>
      <point x="619" y="257"/>
      <point x="622" y="248"/>
      <point x="622" y="221" type="curve"/>
      <point x="656" y="221" type="line"/>
      <point x="656" y="336" type="line"/>
      <point x="622" y="336" type="line"/>
      <point x="622" y="317"/>
      <point x="624" y="300"/>
      <point x="603" y="300" type="curve" smooth="yes"/>
      <point x="457" y="300" type="line"/>
      <point x="457" y="497" type="line"/>
      <point x="682" y="497" type="line" smooth="yes"/>
      <point x="717" y="497"/>
      <point x="711" y="460"/>
      <point x="711" y="426" type="curve" smooth="yes"/>
      <point x="711" y="405" type="line"/>
      <point x="759" y="405" type="line"/>
      <point x="759" y="543" type="line"/>
    </contour>
    <contour>
      <point x="380" y="270" type="line"/>
      <point x="215" y="270" type="line"/>
      <point x="352" y="498" type="line"/>
      <point x="380" y="498" type="line"/>
    </contour>
  </outline>
</glyph>
<glyph name="AE" format="1">
  <advance width="831"/>
  <unicode hex="00C6"/>
  <outline>
    <contour>
      <point x="333" y="565" type="line"/>
      <point x="272" y="468" type="line"/>
      <point x="54" y="107" type="line" smooth="yes"/>
      <point x="22" y="53"/>
      <point x="22" y="44"/>
      <point x="-34" y="44" type="curve"/>
      <point x="-34" y="0" type="line"/>
      <point x="1" y="1"/>
      <point x="50" y="1"/>
      <point x="75" y="1" type="curve" smooth="yes"/>
      <point x="82" y="1"/>
      <point x="145" y="0"/>
      <point x="165" y="0" type="curve"/>
      <point x="165" y="44" type="line"/>
      <point x="140" y="44" type="line" smooth="yes"/>
      <point x="125" y="44"/>
      <point x="114" y="45"/>
      <point x="109" y="47" type="curve" smooth="yes"/>
      <point x="93" y="53"/>
      <point x="103" y="70"/>
      <point x="118" y="97" type="curve" smooth="yes"/>
      <point x="198" y="235" type="line"/>
      <point x="395" y="235" type="line"/>
      <point x="395" y="68" type="line" smooth="yes"/>
      <point x="395" y="44"/>
      <point x="369" y="44"/>
      <point x="334" y="44" type="curve" smooth="yes"/>
      <point x="306" y="44" type="line"/>
      <point x="306" y="0" type="line"/>
      <point x="791" y="0" type="line"/>
      <point x="791" y="153" type="line"/>
      <point x="743" y="153" type="line"/>
      <point x="743" y="97" type="line"/>
      <point x="742" y="70"/>
      <point x="743" y="50"/>
      <point x="719" y="50" type="curve" smooth="yes"/>
      <point x="475" y="50" type="line"/>
      <point x="475" y="267" type="line"/>
      <point x="625" y="267" type="line" smooth="yes"/>
      <point x="644" y="267"/>
      <point x="647" y="258"/>
      <point x="647" y="230" type="curve"/>
      <point x="682" y="230" type="line"/>
      <point x="682" y="349" type="line"/>
      <point x="647" y="349" type="line"/>
      <point x="647" y="330"/>
      <point x="649" y="312"/>
      <point x="627" y="312" type="curve" smooth="yes"/>
      <point x="475" y="312" type="line"/>
      <point x="475" y="517" type="line"/>
      <point x="709" y="517" type="line" smooth="yes"/>
      <point x="746" y="517"/>
      <point x="739" y="478"/>
      <point x="739" y="443" type="curve" smooth="yes"/>
      <point x="739" y="421" type="line"/>
      <point x="789" y="421" type="line"/>
      <point x="789" y="565" type="line"/>
    </contour>
    <contour>
      <point x="395" y="281" type="line"/>
      <point x="224" y="281" type="line"/>
      <point x="366" y="518" type="line"/>
      <point x="395" y="518" type="line"/>
    </contour>
  </outline>
</glyph>
<glyph name="Eth" format="1">
  <advance width="647"/>
  <unicode hex="00D0"/>
  <outline>
    <contour>
      <point x="22" y="320" type="line"/>
      <point x="22" y="256" type="line"/>
      <point x="287" y="256" type="line"/>
      <point x="287" y="320" type="line"/>
    </contour>
    <component base="D"/>
  </outline>
</glyph>
<glyph name="multiply" format="1">
  <advance width="647"/>
  <unicode hex="00D7"/>
  <outline>
    <contour>
      <point x="324" y="296" type="line"/>
      <point x="138" y="478" type="line"/>
      <point x="102" y="443" type="line"/>
      <point x="288" y="261" type="line"/>
      <point x="102" y="80" type="line"/>
      <point x="138" y="44" type="line"/>
      <point x="325" y="226" type="line"/>
      <point x="510" y="44" type="line"/>
      <point x="547" y="80" type="line"/>
      <point x="361" y="261" type="line"/>
      <point x="547" y="443" type="line"/>
      <point x="510" y="478" type="line"/>
    </contour>
  </outline>
</glyph>
<glyph name="Oslash" format="1">
  <advance width="669"/>
  <unicode hex="00D8"/>
  <outline>
    <contour>
      <point x="63" y="-20" type="line"/>
      <point x="105" y="-31" type="line"/>
      <point x="602" y="577" type="line"/>
      <point x="561" y="589" type="line"/>
    </contour>
    <component base="O"/>
  </outline>
</glyph>
<glyph name="Oslash" format="1">
  <advance width="643"/>
  <unicode hex="00D8"/>
  <outline>
    <contour>
      <point x="61" y="-19" type="line"/>
      <point x="101" y="-30" type="line"/>
      <point x="579" y="555" type="line"/>
      <point x="539" y="566" type="line"/>
    </contour>
    <contour>
      <point x="322" y="554" type="curve" smooth="yes"/>
      <point x="152" y="554"/>
      <point x="44" y="441"/>
      <point x="44" y="272" type="curve" smooth="yes"/>
      <point x="44" y="101"/>
      <point x="152" y="-10"/>
      <point x="325" y="-10" type="curve" smooth="yes"/>
      <point x="492" y="-10"/>
      <point x="600" y="105"/>
      <point x="600" y="272" type="curve" smooth="yes"/>
      <point x="600" y="441"/>
      <point x="491" y="554"/>
    </contour>
    <contour>
      <point x="322" y="506" type="curve" smooth="yes"/>
      <point x="450" y="506"/>
      <point x="517" y="408"/>
      <point x="517" y="272" type="curve" smooth="yes"/>
      <point x="517" y="137"/>
      <point x="449" y="39"/>
      <point x="322" y="39" type="curve" smooth="yes"/>
      <point x="193" y="39"/>
      <point x="127" y="137"/>
      <point x="127" y="272" type="curve" smooth="yes"/>
      <point x="127" y="407"/>
      <point x="194" y="506"/>
    </contour>
  </outline>
</glyph>
<glyph name="Thorn" format="1">
  <advance width="514"/>
  <unicode hex="00DE"/>
  <outline>
    <contour>
      <point x="233" y="564"/>
      <point x="183" y="564"/>
      <point x="156" y="564" type="curve" smooth="yes"/>
      <point x="146" y="564"/>
      <point x="34" y="565"/>
      <point x="25" y="565" type="curve"/>
      <point x="25" y="527" type="line"/>
      <point x="48" y="527" type="line" smooth="yes"/>
      <point x="75" y="527"/>
      <point x="103" y="527"/>
      <point x="103" y="511" type="curve" smooth="yes"/>
      <point x="103" y="70" type="line" smooth="yes"/>
      <point x="103" y="41"/>
      <point x="78" y="37"/>
      <point x="47" y="37" type="curve" smooth="yes"/>
      <point x="25" y="37" type="line"/>
      <point x="25" y="0" type="line"/>
      <point x="35" y="0"/>
      <point x="106" y="0"/>
      <point x="118" y="1" type="curve"/>
      <point x="203" y="1"/>
      <point x="225" y="0"/>
      <point x="260" y="0" type="curve"/>
      <point x="260" y="37" type="line"/>
      <point x="238" y="37" type="line" smooth="yes"/>
      <point x="208" y="37"/>
      <point x="182" y="40"/>
      <point x="182" y="64" type="curve" smooth="yes"/>
      <point x="182" y="128" type="line"/>
      <point x="271" y="128" type="line" smooth="yes"/>
      <point x="409" y="128"/>
      <point x="490" y="171"/>
      <point x="490" y="290" type="curve" smooth="yes"/>
      <point x="490" y="398"/>
      <point x="408" y="451"/>
      <point x="284" y="451" type="curve" smooth="yes"/>
      <point x="182" y="451" type="line"/>
      <point x="182" y="506" type="line" smooth="yes"/>
      <point x="182" y="528"/>
      <point x="208" y="527"/>
      <point x="238" y="527" type="curve" smooth="yes"/>
      <point x="260" y="527" type="line"/>
      <point x="260" y="565" type="line"/>
    </contour>
    <contour>
      <point x="366" y="405"/>
      <point x="411" y="366"/>
      <point x="411" y="288" type="curve" smooth="yes"/>
      <point x="411" y="207"/>
      <point x="358" y="174"/>
      <point x="265" y="174" type="curve" smooth="yes"/>
      <point x="182" y="174" type="line"/>
      <point x="182" y="405" type="line"/>
      <point x="268" y="405" type="line" smooth="yes"/>
    </contour>
  </outline>
</glyph>
<glyph name="Thorn" format="1">
  <advance width="494"/>
  <unicode hex="00DE"/>
  <outline>
    <contour>
      <point x="250" y="543" type="line"/>
      <point x="224" y="542"/>
      <point x="176" y="542"/>
      <point x="150" y="542" type="curve" smooth="yes"/>
      <point x="140" y="542"/>
      <point x="33" y="543"/>
      <point x="24" y="543" type="curve"/>
      <point x="24" y="507" type="line"/>
      <point x="46" y="507" type="line" smooth="yes"/>
      <point x="72" y="507"/>
      <point x="99" y="507"/>
      <point x="99" y="491" type="curve" smooth="yes"/>
      <point x="99" y="67" type="line" smooth="yes"/>
      <point x="99" y="39"/>
      <point x="75" y="36"/>
      <point x="45" y="36" type="curve" smooth="yes"/>
      <point x="24" y="36" type="line"/>
      <point x="24" y="0" type="line"/>
      <point x="34" y="0"/>
      <point x="102" y="0"/>
      <point x="113" y="1" type="curve"/>
      <point x="195" y="1"/>
      <point x="216" y="0"/>
      <point x="250" y="0" type="curve"/>
      <point x="250" y="36" type="line"/>
      <point x="229" y="36" type="line" smooth="yes"/>
      <point x="200" y="36"/>
      <point x="175" y="38"/>
      <point x="175" y="62" type="curve" smooth="yes"/>
      <point x="175" y="123" type="line"/>
      <point x="261" y="123" type="line" smooth="yes"/>
      <point x="393" y="123"/>
      <point x="471" y="164"/>
      <point x="471" y="279" type="curve" smooth="yes"/>
      <point x="471" y="383"/>
      <point x="392" y="434"/>
      <point x="273" y="434" type="curve" smooth="yes"/>
      <point x="175" y="434" type="line"/>
      <point x="175" y="487" type="line" smooth="yes"/>
      <point x="175" y="508"/>
      <point x="200" y="507"/>
      <point x="229" y="507" type="curve" smooth="yes"/>
      <point x="250" y="507" type="line"/>
    </contour>
    <contour>
      <point x="258" y="389" type="line" smooth="yes"/>
      <point x="352" y="389"/>
      <point x="395" y="352"/>
      <point x="395" y="277" type="curve" smooth="yes"/>
      <point x="395" y="199"/>
      <point x="344" y="167"/>
      <point x="255" y="167" type="curve" smooth="yes"/>
      <point x="175" y="167" type="line"/>
      <point x="175" y="389" type="line"/>
    </contour>
  </outline>
</glyph>
<glyph name="germandbls" format="1">
  <advance width="512"/>
  <unicode hex="00DF"/>
  <outline>
    <contour>
      <point x="258" y="554" type="curve" smooth="yes"/>
      <point x="123" y="554"/>
      <point x="81" y="491"/>
      <point x="81" y="361" type="curve" smooth="yes"/>
      <point x="81" y="67" type="line" smooth="yes"/>
      <point x="81" y="34"/>
      <point x="50" y="40"/>
      <point x="18" y="40" type="curve"/>
      <point x="18" y="0" type="line"/>
      <point x="26" y="0"/>
      <point x="112" y="1"/>
      <point x="123" y="1" type="curve" smooth="yes"/>
      <point x="132" y="1"/>
      <point x="204" y="0"/>
      <point x="213" y="0" type="curve"/>
      <point x="213" y="40" type="line"/>
      <point x="175" y="40"/>
      <point x="152" y="37"/>
      <point x="152" y="67" type="curve" smooth="yes"/>
      <point x="152" y="398" type="line" smooth="yes"/>
      <point x="152" y="478"/>
      <point x="187" y="513"/>
      <point x="257" y="513" type="curve" smooth="yes"/>
      <point x="318" y="513"/>
      <point x="360" y="482"/>
      <point x="360" y="423" type="curve" smooth="yes"/>
      <point x="360" y="360"/>
      <point x="328" y="331"/>
      <point x="260" y="328" type="curve"/>
      <point x="260" y="290" type="line"/>
      <point x="361" y="289"/>
      <point x="406" y="248"/>
      <point x="406" y="155" type="curve" smooth="yes"/>
      <point x="406" y="51"/>
      <point x="332" y="21"/>
      <point x="277" y="34" type="curve"/>
      <point x="277" y="-5" type="line"/>
      <point x="293" y="-8"/>
      <point x="307" y="-9"/>
      <point x="320" y="-9" type="curve" smooth="yes"/>
      <point x="421" y="-9"/>
      <point x="479" y="56"/>
      <point x="479" y="158" type="curve" smooth="yes"/>
      <point x="479" y="246"/>
      <point x="433" y="301"/>
      <point x="348" y="312" type="curve"/>
      <point x="348" y="313" type="line"/>
      <point x="400" y="331"/>
      <point x="429" y="365"/>
      <point x="429" y="421" type="curve" smooth="yes"/>
      <point x="429" y="512"/>
      <point x="359" y="554"/>
    </contour>
  </outline>
</glyph>
